G04 EAGLE Gerber RS-274X export*
G75*
%MOMM*%
%FSLAX34Y34*%
%LPD*%
%INSolderpaste Top*%
%IPPOS*%
%AMOC8*
5,1,8,0,0,1.08239X$1,22.5*%
G01*
%ADD10R,1.000000X1.100000*%
%ADD11R,1.400000X1.600000*%
%ADD12R,1.100000X1.000000*%
%ADD13R,0.800000X0.800000*%
%ADD14C,0.255000*%
%ADD15R,1.100000X1.900000*%
%ADD16R,1.000000X1.800000*%
%ADD17R,1.500000X1.800000*%
%ADD18R,1.500000X2.500000*%
%ADD19R,1.850000X0.400000*%
%ADD20R,2.000000X6.000000*%
%ADD21R,1.600000X1.400000*%
%ADD22R,2.300000X1.600000*%


D10*
X126873Y154550D03*
X126873Y137550D03*
D11*
X189184Y133223D03*
X161184Y133223D03*
D12*
X281550Y292100D03*
X264550Y292100D03*
D13*
X336550Y233800D03*
X336550Y248800D03*
D12*
X203590Y214630D03*
X220590Y214630D03*
D10*
X107950Y137550D03*
X107950Y154550D03*
X88900Y137550D03*
X88900Y154550D03*
D12*
X264550Y330200D03*
X281550Y330200D03*
D13*
X336550Y325000D03*
X336550Y310000D03*
D14*
X141279Y179142D02*
X137427Y182994D01*
X137745Y183312D01*
X141597Y179460D01*
X141279Y179142D01*
X139493Y181564D02*
X138857Y181564D01*
X140913Y186480D02*
X144765Y182628D01*
X140913Y186480D02*
X141231Y186798D01*
X145083Y182946D01*
X144765Y182628D01*
X142979Y185050D02*
X142343Y185050D01*
X144400Y189966D02*
X148252Y186114D01*
X144400Y189966D02*
X144718Y190284D01*
X148570Y186432D01*
X148252Y186114D01*
X146466Y188536D02*
X145830Y188536D01*
X147886Y193452D02*
X151738Y189600D01*
X147886Y193452D02*
X148204Y193770D01*
X152056Y189918D01*
X151738Y189600D01*
X149952Y192022D02*
X149316Y192022D01*
X151372Y196938D02*
X155224Y193086D01*
X151372Y196938D02*
X151690Y197256D01*
X155542Y193404D01*
X155224Y193086D01*
X153438Y195508D02*
X152802Y195508D01*
X154858Y200424D02*
X158710Y196572D01*
X154858Y200424D02*
X155176Y200742D01*
X159028Y196890D01*
X158710Y196572D01*
X156924Y198994D02*
X156288Y198994D01*
X158662Y204228D02*
X162514Y200376D01*
X162196Y200058D01*
X158344Y203910D01*
X158662Y204228D01*
X159774Y202480D02*
X160410Y202480D01*
X162148Y207714D02*
X166000Y203862D01*
X165682Y203544D01*
X161830Y207396D01*
X162148Y207714D01*
X163260Y205966D02*
X163896Y205966D01*
X165634Y211200D02*
X169486Y207348D01*
X169168Y207030D01*
X165316Y210882D01*
X165634Y211200D01*
X166746Y209452D02*
X167382Y209452D01*
X169120Y214687D02*
X172972Y210835D01*
X172654Y210517D01*
X168802Y214369D01*
X169120Y214687D01*
X170232Y212939D02*
X170868Y212939D01*
X172606Y218173D02*
X176458Y214321D01*
X176140Y214003D01*
X172288Y217855D01*
X172606Y218173D01*
X173718Y216425D02*
X174354Y216425D01*
X172606Y226327D02*
X176458Y230179D01*
X172606Y226327D02*
X172288Y226645D01*
X176140Y230497D01*
X176458Y230179D01*
X175028Y228749D02*
X174392Y228749D01*
X172972Y233665D02*
X169120Y229813D01*
X168802Y230131D01*
X172654Y233983D01*
X172972Y233665D01*
X171542Y232235D02*
X170906Y232235D01*
X169486Y237152D02*
X165634Y233300D01*
X165316Y233618D01*
X169168Y237470D01*
X169486Y237152D01*
X168056Y235722D02*
X167420Y235722D01*
X166000Y240638D02*
X162148Y236786D01*
X161830Y237104D01*
X165682Y240956D01*
X166000Y240638D01*
X164570Y239208D02*
X163934Y239208D01*
X162514Y244124D02*
X158662Y240272D01*
X158344Y240590D01*
X162196Y244442D01*
X162514Y244124D01*
X161084Y242694D02*
X160448Y242694D01*
X159028Y247610D02*
X155176Y243758D01*
X154858Y244076D01*
X158710Y247928D01*
X159028Y247610D01*
X157598Y246180D02*
X156962Y246180D01*
X155224Y251414D02*
X151372Y247562D01*
X155224Y251414D02*
X155542Y251096D01*
X151690Y247244D01*
X151372Y247562D01*
X153476Y249666D02*
X154112Y249666D01*
X151738Y254900D02*
X147886Y251048D01*
X151738Y254900D02*
X152056Y254582D01*
X148204Y250730D01*
X147886Y251048D01*
X149990Y253152D02*
X150626Y253152D01*
X148252Y258386D02*
X144400Y254534D01*
X148252Y258386D02*
X148570Y258068D01*
X144718Y254216D01*
X144400Y254534D01*
X146504Y256638D02*
X147140Y256638D01*
X144765Y261872D02*
X140913Y258020D01*
X144765Y261872D02*
X145083Y261554D01*
X141231Y257702D01*
X140913Y258020D01*
X143017Y260124D02*
X143653Y260124D01*
X141279Y265358D02*
X137427Y261506D01*
X141279Y265358D02*
X141597Y265040D01*
X137745Y261188D01*
X137427Y261506D01*
X139531Y263610D02*
X140167Y263610D01*
X129273Y261506D02*
X125421Y265358D01*
X129273Y261506D02*
X128955Y261188D01*
X125103Y265040D01*
X125421Y265358D01*
X126533Y263610D02*
X127169Y263610D01*
X121935Y261872D02*
X125787Y258020D01*
X125469Y257702D01*
X121617Y261554D01*
X121935Y261872D01*
X123047Y260124D02*
X123683Y260124D01*
X118448Y258386D02*
X122300Y254534D01*
X121982Y254216D01*
X118130Y258068D01*
X118448Y258386D01*
X119560Y256638D02*
X120196Y256638D01*
X114962Y254900D02*
X118814Y251048D01*
X118496Y250730D01*
X114644Y254582D01*
X114962Y254900D01*
X116074Y253152D02*
X116710Y253152D01*
X111476Y251414D02*
X115328Y247562D01*
X115010Y247244D01*
X111158Y251096D01*
X111476Y251414D01*
X112588Y249666D02*
X113224Y249666D01*
X107990Y247928D02*
X111842Y244076D01*
X111524Y243758D01*
X107672Y247610D01*
X107990Y247928D01*
X109102Y246180D02*
X109738Y246180D01*
X104186Y244124D02*
X108038Y240272D01*
X104186Y244124D02*
X104504Y244442D01*
X108356Y240590D01*
X108038Y240272D01*
X106252Y242694D02*
X105616Y242694D01*
X100700Y240638D02*
X104552Y236786D01*
X100700Y240638D02*
X101018Y240956D01*
X104870Y237104D01*
X104552Y236786D01*
X102766Y239208D02*
X102130Y239208D01*
X97214Y237152D02*
X101066Y233300D01*
X97214Y237152D02*
X97532Y237470D01*
X101384Y233618D01*
X101066Y233300D01*
X99280Y235722D02*
X98644Y235722D01*
X93728Y233665D02*
X97580Y229813D01*
X93728Y233665D02*
X94046Y233983D01*
X97898Y230131D01*
X97580Y229813D01*
X95794Y232235D02*
X95158Y232235D01*
X90242Y230179D02*
X94094Y226327D01*
X90242Y230179D02*
X90560Y230497D01*
X94412Y226645D01*
X94094Y226327D01*
X92308Y228749D02*
X91672Y228749D01*
X94094Y218173D02*
X90242Y214321D01*
X94094Y218173D02*
X94412Y217855D01*
X90560Y214003D01*
X90242Y214321D01*
X92346Y216425D02*
X92982Y216425D01*
X97580Y214687D02*
X93728Y210835D01*
X97580Y214687D02*
X97898Y214369D01*
X94046Y210517D01*
X93728Y210835D01*
X95832Y212939D02*
X96468Y212939D01*
X101066Y211200D02*
X97214Y207348D01*
X101066Y211200D02*
X101384Y210882D01*
X97532Y207030D01*
X97214Y207348D01*
X99318Y209452D02*
X99954Y209452D01*
X104552Y207714D02*
X100700Y203862D01*
X104552Y207714D02*
X104870Y207396D01*
X101018Y203544D01*
X100700Y203862D01*
X102804Y205966D02*
X103440Y205966D01*
X108038Y204228D02*
X104186Y200376D01*
X108038Y204228D02*
X108356Y203910D01*
X104504Y200058D01*
X104186Y200376D01*
X106290Y202480D02*
X106926Y202480D01*
X111524Y200742D02*
X107672Y196890D01*
X111524Y200742D02*
X111842Y200424D01*
X107990Y196572D01*
X107672Y196890D01*
X109776Y198994D02*
X110412Y198994D01*
X115328Y196938D02*
X111476Y193086D01*
X111158Y193404D01*
X115010Y197256D01*
X115328Y196938D01*
X113898Y195508D02*
X113262Y195508D01*
X118814Y193452D02*
X114962Y189600D01*
X114644Y189918D01*
X118496Y193770D01*
X118814Y193452D01*
X117384Y192022D02*
X116748Y192022D01*
X122300Y189966D02*
X118448Y186114D01*
X118130Y186432D01*
X121982Y190284D01*
X122300Y189966D01*
X120870Y188536D02*
X120234Y188536D01*
X125787Y186480D02*
X121935Y182628D01*
X121617Y182946D01*
X125469Y186798D01*
X125787Y186480D01*
X124357Y185050D02*
X123721Y185050D01*
X129273Y182994D02*
X125421Y179142D01*
X125103Y179460D01*
X128955Y183312D01*
X129273Y182994D01*
X127843Y181564D02*
X127207Y181564D01*
D15*
X301060Y216450D03*
X278060Y253450D03*
X278060Y216450D03*
X301060Y253450D03*
D10*
X247650Y245500D03*
X247650Y262500D03*
X247650Y207400D03*
X247650Y224400D03*
D12*
X156600Y156210D03*
X173600Y156210D03*
X245500Y146050D03*
X262500Y146050D03*
X264550Y311150D03*
X281550Y311150D03*
D13*
X336550Y286900D03*
X336550Y271900D03*
D12*
X245500Y184150D03*
X262500Y184150D03*
X245500Y165100D03*
X262500Y165100D03*
D16*
X268000Y120650D03*
X240000Y120650D03*
D17*
X330200Y115560D03*
D18*
X330200Y152400D03*
D17*
X330200Y189240D03*
D19*
X298950Y152400D03*
X298950Y145900D03*
X298950Y165400D03*
X298950Y158900D03*
X298950Y139400D03*
D20*
X331200Y152400D03*
D12*
X65650Y184150D03*
X48650Y184150D03*
X65650Y203200D03*
X48650Y203200D03*
X65650Y165100D03*
X48650Y165100D03*
D21*
X57150Y113000D03*
X57150Y141000D03*
D12*
X65650Y311150D03*
X48650Y311150D03*
X65650Y330200D03*
X48650Y330200D03*
X65650Y292100D03*
X48650Y292100D03*
D21*
X57150Y240000D03*
X57150Y268000D03*
D10*
X88900Y116450D03*
X88900Y99450D03*
X107950Y116450D03*
X107950Y99450D03*
D12*
X175650Y261620D03*
X192650Y261620D03*
D10*
X228600Y262500D03*
X228600Y245500D03*
D22*
X82800Y25400D03*
X145800Y25400D03*
X209800Y25400D03*
X272800Y25400D03*
M02*
