G04 EAGLE Gerber RS-274X export*
G75*
%MOMM*%
%FSLAX34Y34*%
%LPD*%
%INBottom Copper*%
%IPPOS*%
%AMOC8*
5,1,8,0,0,1.08239X$1,22.5*%
G01*
%ADD10C,1.650000*%
%ADD11C,1.500000*%
%ADD12C,1.879600*%
%ADD13R,1.600000X2.300000*%
%ADD14C,0.787400*%
%ADD15C,0.254000*%
%ADD16C,0.406400*%

G36*
X351654Y2810D02*
X351654Y2810D01*
X351773Y2817D01*
X351811Y2830D01*
X351852Y2835D01*
X351962Y2878D01*
X352075Y2915D01*
X352110Y2937D01*
X352147Y2952D01*
X352243Y3021D01*
X352344Y3085D01*
X352372Y3115D01*
X352405Y3138D01*
X352481Y3230D01*
X352562Y3317D01*
X352582Y3352D01*
X352607Y3383D01*
X352658Y3491D01*
X352716Y3595D01*
X352726Y3635D01*
X352743Y3671D01*
X352765Y3788D01*
X352795Y3903D01*
X352799Y3963D01*
X352803Y3983D01*
X352801Y4004D01*
X352805Y4064D01*
X352805Y345186D01*
X352790Y345304D01*
X352783Y345423D01*
X352770Y345461D01*
X352765Y345502D01*
X352722Y345612D01*
X352685Y345725D01*
X352663Y345760D01*
X352648Y345797D01*
X352579Y345893D01*
X352515Y345994D01*
X352485Y346022D01*
X352462Y346055D01*
X352370Y346131D01*
X352283Y346212D01*
X352248Y346232D01*
X352217Y346257D01*
X352109Y346308D01*
X352005Y346366D01*
X351965Y346376D01*
X351929Y346393D01*
X351812Y346415D01*
X351697Y346445D01*
X351637Y346449D01*
X351617Y346453D01*
X351596Y346451D01*
X351536Y346455D01*
X4064Y346455D01*
X3946Y346440D01*
X3827Y346433D01*
X3789Y346420D01*
X3748Y346415D01*
X3638Y346372D01*
X3525Y346335D01*
X3490Y346313D01*
X3453Y346298D01*
X3357Y346229D01*
X3256Y346165D01*
X3228Y346135D01*
X3195Y346112D01*
X3119Y346020D01*
X3038Y345933D01*
X3018Y345898D01*
X2993Y345867D01*
X2942Y345759D01*
X2884Y345655D01*
X2874Y345615D01*
X2857Y345579D01*
X2835Y345462D01*
X2805Y345347D01*
X2801Y345287D01*
X2797Y345267D01*
X2799Y345246D01*
X2795Y345186D01*
X2795Y4064D01*
X2810Y3946D01*
X2817Y3827D01*
X2830Y3789D01*
X2835Y3748D01*
X2878Y3638D01*
X2915Y3525D01*
X2937Y3490D01*
X2952Y3453D01*
X3021Y3357D01*
X3085Y3256D01*
X3115Y3228D01*
X3138Y3195D01*
X3230Y3119D01*
X3317Y3038D01*
X3352Y3018D01*
X3383Y2993D01*
X3491Y2942D01*
X3595Y2884D01*
X3635Y2874D01*
X3671Y2857D01*
X3788Y2835D01*
X3903Y2805D01*
X3963Y2801D01*
X3983Y2797D01*
X4004Y2799D01*
X4064Y2795D01*
X351536Y2795D01*
X351654Y2810D01*
G37*
%LPC*%
G36*
X62313Y25780D02*
X62313Y25780D01*
X60118Y26689D01*
X58439Y28368D01*
X57530Y30563D01*
X57530Y32523D01*
X57518Y32621D01*
X57515Y32720D01*
X57498Y32779D01*
X57490Y32839D01*
X57454Y32931D01*
X57426Y33026D01*
X57396Y33078D01*
X57373Y33134D01*
X57315Y33214D01*
X57265Y33300D01*
X57199Y33375D01*
X57187Y33392D01*
X57177Y33400D01*
X57159Y33421D01*
X57149Y33430D01*
X57149Y64258D01*
X57141Y64327D01*
X57142Y64397D01*
X57121Y64484D01*
X57109Y64573D01*
X57084Y64638D01*
X57067Y64706D01*
X57025Y64786D01*
X56992Y64869D01*
X56951Y64926D01*
X56919Y64987D01*
X56858Y65054D01*
X56806Y65126D01*
X56752Y65171D01*
X56705Y65223D01*
X56630Y65272D01*
X56561Y65329D01*
X56497Y65359D01*
X56439Y65397D01*
X56354Y65427D01*
X56273Y65465D01*
X56204Y65478D01*
X56138Y65501D01*
X56049Y65508D01*
X55961Y65525D01*
X55891Y65520D01*
X55821Y65526D01*
X55733Y65510D01*
X55643Y65505D01*
X55577Y65483D01*
X55508Y65471D01*
X55426Y65434D01*
X55341Y65407D01*
X55282Y65370D01*
X55218Y65341D01*
X55148Y65285D01*
X55072Y65237D01*
X55024Y65186D01*
X54970Y65142D01*
X54915Y65070D01*
X54854Y65005D01*
X54820Y64944D01*
X54778Y64888D01*
X54707Y64744D01*
X54140Y63375D01*
X50925Y60159D01*
X46724Y58419D01*
X42176Y58419D01*
X37975Y60159D01*
X34759Y63375D01*
X33120Y67334D01*
X33056Y67446D01*
X32997Y67561D01*
X32977Y67584D01*
X32962Y67610D01*
X32872Y67703D01*
X32787Y67800D01*
X32762Y67817D01*
X32741Y67838D01*
X32630Y67906D01*
X32524Y67979D01*
X32495Y67989D01*
X32470Y68005D01*
X32346Y68043D01*
X32225Y68086D01*
X32195Y68089D01*
X32166Y68098D01*
X32037Y68104D01*
X31908Y68117D01*
X31878Y68112D01*
X31848Y68113D01*
X31722Y68087D01*
X31594Y68067D01*
X31566Y68055D01*
X31537Y68049D01*
X31420Y67992D01*
X31302Y67941D01*
X31278Y67923D01*
X31251Y67909D01*
X31153Y67825D01*
X31050Y67746D01*
X31032Y67723D01*
X31009Y67703D01*
X30935Y67597D01*
X30855Y67495D01*
X30843Y67468D01*
X30826Y67443D01*
X30780Y67322D01*
X30729Y67203D01*
X30719Y67162D01*
X30713Y67146D01*
X30711Y67124D01*
X30696Y67059D01*
X30114Y65267D01*
X29261Y63593D01*
X28156Y62072D01*
X26828Y60744D01*
X25307Y59639D01*
X23633Y58786D01*
X21846Y58205D01*
X21589Y58165D01*
X21589Y68580D01*
X21574Y68698D01*
X21567Y68817D01*
X21554Y68855D01*
X21549Y68895D01*
X21506Y69006D01*
X21469Y69119D01*
X21447Y69153D01*
X21432Y69191D01*
X21362Y69287D01*
X21299Y69388D01*
X21269Y69416D01*
X21245Y69448D01*
X21154Y69524D01*
X21067Y69606D01*
X21032Y69625D01*
X21001Y69651D01*
X20893Y69702D01*
X20789Y69759D01*
X20749Y69770D01*
X20713Y69787D01*
X20596Y69809D01*
X20481Y69839D01*
X20420Y69843D01*
X20400Y69847D01*
X20380Y69845D01*
X20320Y69849D01*
X19049Y69849D01*
X19049Y69851D01*
X20320Y69851D01*
X20438Y69866D01*
X20557Y69873D01*
X20595Y69886D01*
X20635Y69891D01*
X20746Y69935D01*
X20859Y69971D01*
X20894Y69993D01*
X20931Y70008D01*
X21027Y70078D01*
X21128Y70141D01*
X21156Y70171D01*
X21189Y70195D01*
X21264Y70286D01*
X21346Y70373D01*
X21366Y70408D01*
X21391Y70440D01*
X21442Y70547D01*
X21500Y70652D01*
X21510Y70691D01*
X21527Y70727D01*
X21549Y70844D01*
X21579Y70959D01*
X21583Y71020D01*
X21587Y71040D01*
X21585Y71060D01*
X21589Y71120D01*
X21589Y81535D01*
X21846Y81495D01*
X23633Y80914D01*
X25307Y80061D01*
X26828Y78956D01*
X28156Y77628D01*
X29261Y76107D01*
X30114Y74433D01*
X30704Y72616D01*
X30729Y72530D01*
X30760Y72404D01*
X30774Y72377D01*
X30782Y72348D01*
X30848Y72237D01*
X30908Y72123D01*
X30929Y72100D01*
X30944Y72074D01*
X31035Y71983D01*
X31122Y71887D01*
X31147Y71871D01*
X31169Y71850D01*
X31280Y71784D01*
X31388Y71713D01*
X31417Y71703D01*
X31442Y71687D01*
X31566Y71651D01*
X31689Y71609D01*
X31719Y71607D01*
X31748Y71599D01*
X31877Y71594D01*
X32006Y71584D01*
X32036Y71589D01*
X32066Y71588D01*
X32192Y71616D01*
X32319Y71639D01*
X32347Y71651D01*
X32376Y71657D01*
X32491Y71716D01*
X32609Y71769D01*
X32633Y71788D01*
X32660Y71802D01*
X32756Y71887D01*
X32858Y71968D01*
X32876Y71992D01*
X32898Y72012D01*
X32971Y72118D01*
X33049Y72222D01*
X33068Y72260D01*
X33077Y72274D01*
X33085Y72295D01*
X33120Y72366D01*
X34759Y76325D01*
X37975Y79541D01*
X42176Y81281D01*
X46724Y81281D01*
X50925Y79541D01*
X54140Y76325D01*
X54707Y74956D01*
X54742Y74896D01*
X54768Y74831D01*
X54820Y74758D01*
X54865Y74680D01*
X54913Y74630D01*
X54954Y74574D01*
X55024Y74516D01*
X55086Y74452D01*
X55146Y74415D01*
X55199Y74371D01*
X55281Y74332D01*
X55357Y74285D01*
X55424Y74265D01*
X55487Y74235D01*
X55575Y74218D01*
X55661Y74192D01*
X55731Y74188D01*
X55800Y74175D01*
X55889Y74181D01*
X55979Y74177D01*
X56047Y74191D01*
X56117Y74195D01*
X56202Y74223D01*
X56290Y74241D01*
X56353Y74272D01*
X56419Y74293D01*
X56495Y74341D01*
X56576Y74381D01*
X56629Y74426D01*
X56688Y74463D01*
X56750Y74529D01*
X56818Y74587D01*
X56858Y74644D01*
X56906Y74695D01*
X56949Y74774D01*
X57001Y74847D01*
X57026Y74912D01*
X57060Y74973D01*
X57082Y75060D01*
X57114Y75144D01*
X57122Y75214D01*
X57139Y75281D01*
X57149Y75442D01*
X57149Y87220D01*
X75066Y105136D01*
X75126Y105215D01*
X75194Y105287D01*
X75223Y105340D01*
X75260Y105388D01*
X75300Y105479D01*
X75348Y105565D01*
X75363Y105624D01*
X75387Y105679D01*
X75402Y105777D01*
X75427Y105873D01*
X75433Y105973D01*
X75437Y105994D01*
X75435Y106006D01*
X75437Y106034D01*
X75437Y186788D01*
X82559Y193909D01*
X82619Y193988D01*
X82687Y194060D01*
X82716Y194113D01*
X82753Y194161D01*
X82793Y194252D01*
X82841Y194338D01*
X82856Y194397D01*
X82880Y194452D01*
X82895Y194550D01*
X82920Y194646D01*
X82926Y194746D01*
X82930Y194767D01*
X82928Y194779D01*
X82930Y194807D01*
X82930Y196767D01*
X83839Y198962D01*
X85518Y200641D01*
X87713Y201550D01*
X90087Y201550D01*
X92282Y200641D01*
X93961Y198962D01*
X94870Y196767D01*
X94870Y194393D01*
X93961Y192198D01*
X93072Y191309D01*
X93041Y191270D01*
X93004Y191236D01*
X92944Y191145D01*
X92877Y191058D01*
X92857Y191012D01*
X92830Y190971D01*
X92794Y190867D01*
X92750Y190766D01*
X92743Y190717D01*
X92726Y190670D01*
X92718Y190561D01*
X92701Y190452D01*
X92705Y190402D01*
X92701Y190353D01*
X92720Y190245D01*
X92730Y190135D01*
X92747Y190089D01*
X92756Y190040D01*
X92801Y189940D01*
X92838Y189836D01*
X92866Y189795D01*
X92886Y189750D01*
X92955Y189664D01*
X93017Y189573D01*
X93054Y189540D01*
X93085Y189501D01*
X93173Y189435D01*
X93255Y189363D01*
X93299Y189340D01*
X93339Y189310D01*
X93484Y189239D01*
X93552Y189211D01*
X95231Y187532D01*
X95992Y185695D01*
X96016Y185651D01*
X96033Y185605D01*
X96095Y185514D01*
X96149Y185418D01*
X96184Y185383D01*
X96212Y185341D01*
X96294Y185269D01*
X96371Y185190D01*
X96413Y185164D01*
X96450Y185131D01*
X96548Y185081D01*
X96642Y185024D01*
X96689Y185009D01*
X96733Y184986D01*
X96841Y184962D01*
X96946Y184930D01*
X96995Y184928D01*
X97044Y184917D01*
X97154Y184920D01*
X97263Y184915D01*
X97312Y184925D01*
X97362Y184926D01*
X97467Y184957D01*
X97575Y184979D01*
X97620Y185001D01*
X97667Y185015D01*
X97762Y185071D01*
X97861Y185119D01*
X97898Y185151D01*
X97941Y185176D01*
X98062Y185283D01*
X113166Y200386D01*
X113226Y200465D01*
X113294Y200537D01*
X113323Y200590D01*
X113360Y200638D01*
X113400Y200729D01*
X113448Y200815D01*
X113463Y200874D01*
X113487Y200929D01*
X113502Y201027D01*
X113527Y201123D01*
X113533Y201223D01*
X113537Y201244D01*
X113535Y201256D01*
X113537Y201284D01*
X113537Y203885D01*
X113525Y203983D01*
X113522Y204082D01*
X113505Y204140D01*
X113497Y204200D01*
X113461Y204292D01*
X113433Y204387D01*
X113403Y204439D01*
X113380Y204496D01*
X113322Y204576D01*
X113272Y204661D01*
X113206Y204737D01*
X113194Y204753D01*
X113184Y204761D01*
X113166Y204782D01*
X111779Y206168D01*
X110870Y208363D01*
X110870Y210737D01*
X111779Y212932D01*
X113458Y214611D01*
X115653Y215520D01*
X116565Y215520D01*
X116614Y215526D01*
X116663Y215524D01*
X116771Y215546D01*
X116880Y215560D01*
X116926Y215578D01*
X116975Y215588D01*
X117074Y215636D01*
X117176Y215677D01*
X117216Y215706D01*
X117261Y215728D01*
X117344Y215799D01*
X117433Y215863D01*
X117465Y215902D01*
X117503Y215934D01*
X117566Y216024D01*
X117636Y216108D01*
X117657Y216153D01*
X117686Y216194D01*
X117725Y216297D01*
X117771Y216396D01*
X117781Y216445D01*
X117798Y216491D01*
X117811Y216601D01*
X117831Y216708D01*
X117828Y216758D01*
X117834Y216807D01*
X117818Y216916D01*
X117811Y217026D01*
X117796Y217073D01*
X117789Y217122D01*
X117737Y217275D01*
X117220Y218523D01*
X117220Y220897D01*
X118129Y223092D01*
X119808Y224771D01*
X122003Y225680D01*
X124377Y225680D01*
X126572Y224771D01*
X128251Y223092D01*
X129160Y220897D01*
X129160Y218523D01*
X129129Y218449D01*
X129127Y218440D01*
X129122Y218432D01*
X129085Y218287D01*
X129045Y218142D01*
X129045Y218133D01*
X129043Y218124D01*
X129033Y217963D01*
X129033Y199292D01*
X99940Y170200D01*
X99880Y170121D01*
X99812Y170049D01*
X99783Y169996D01*
X99746Y169948D01*
X99706Y169857D01*
X99658Y169771D01*
X99643Y169712D01*
X99619Y169657D01*
X99604Y169559D01*
X99579Y169463D01*
X99573Y169363D01*
X99569Y169342D01*
X99571Y169330D01*
X99569Y169302D01*
X99569Y110098D01*
X99581Y110000D01*
X99584Y109901D01*
X99601Y109842D01*
X99609Y109782D01*
X99645Y109690D01*
X99673Y109595D01*
X99703Y109543D01*
X99726Y109487D01*
X99784Y109407D01*
X99834Y109321D01*
X99900Y109246D01*
X99912Y109229D01*
X99922Y109221D01*
X99940Y109200D01*
X111253Y97888D01*
X111253Y94565D01*
X111265Y94467D01*
X111268Y94368D01*
X111285Y94310D01*
X111293Y94250D01*
X111329Y94158D01*
X111357Y94063D01*
X111387Y94011D01*
X111410Y93954D01*
X111468Y93874D01*
X111518Y93789D01*
X111584Y93713D01*
X111596Y93697D01*
X111606Y93689D01*
X111624Y93668D01*
X113011Y92282D01*
X113920Y90087D01*
X113920Y87713D01*
X113011Y85518D01*
X111332Y83839D01*
X110520Y83503D01*
X110400Y83434D01*
X110277Y83369D01*
X110262Y83356D01*
X110244Y83346D01*
X110144Y83249D01*
X110041Y83155D01*
X110030Y83138D01*
X110016Y83124D01*
X109943Y83006D01*
X109867Y82890D01*
X109860Y82870D01*
X109849Y82853D01*
X109809Y82720D01*
X109763Y82589D01*
X109762Y82569D01*
X109756Y82549D01*
X109749Y82410D01*
X109738Y82272D01*
X109742Y82252D01*
X109741Y82232D01*
X109769Y82095D01*
X109793Y81958D01*
X109801Y81940D01*
X109805Y81920D01*
X109866Y81795D01*
X109923Y81668D01*
X109936Y81653D01*
X109945Y81634D01*
X110035Y81528D01*
X110122Y81420D01*
X110138Y81408D01*
X110151Y81392D01*
X110265Y81312D01*
X110376Y81229D01*
X110401Y81216D01*
X110411Y81209D01*
X110430Y81202D01*
X110520Y81158D01*
X114425Y79541D01*
X117641Y76325D01*
X119381Y72124D01*
X119381Y67576D01*
X117641Y63375D01*
X114425Y60159D01*
X110224Y58419D01*
X105676Y58419D01*
X101475Y60159D01*
X98259Y63375D01*
X96620Y67334D01*
X96556Y67446D01*
X96497Y67561D01*
X96477Y67584D01*
X96462Y67610D01*
X96372Y67703D01*
X96287Y67800D01*
X96262Y67817D01*
X96241Y67838D01*
X96131Y67906D01*
X96024Y67979D01*
X95996Y67989D01*
X95970Y68005D01*
X95846Y68043D01*
X95725Y68086D01*
X95695Y68089D01*
X95666Y68098D01*
X95537Y68104D01*
X95408Y68117D01*
X95378Y68112D01*
X95348Y68113D01*
X95222Y68087D01*
X95094Y68067D01*
X95066Y68055D01*
X95037Y68049D01*
X94921Y67992D01*
X94802Y67941D01*
X94778Y67923D01*
X94751Y67909D01*
X94653Y67825D01*
X94551Y67746D01*
X94532Y67723D01*
X94509Y67703D01*
X94435Y67597D01*
X94355Y67495D01*
X94343Y67468D01*
X94326Y67443D01*
X94280Y67322D01*
X94229Y67203D01*
X94219Y67161D01*
X94213Y67146D01*
X94211Y67124D01*
X94196Y67059D01*
X93614Y65267D01*
X92761Y63593D01*
X91656Y62072D01*
X90328Y60744D01*
X88807Y59639D01*
X87133Y58786D01*
X85346Y58205D01*
X85089Y58165D01*
X85089Y68580D01*
X85074Y68698D01*
X85067Y68817D01*
X85054Y68855D01*
X85049Y68895D01*
X85006Y69006D01*
X84969Y69119D01*
X84947Y69153D01*
X84932Y69191D01*
X84862Y69287D01*
X84799Y69388D01*
X84769Y69416D01*
X84745Y69448D01*
X84654Y69524D01*
X84567Y69606D01*
X84532Y69625D01*
X84501Y69651D01*
X84393Y69702D01*
X84289Y69759D01*
X84249Y69770D01*
X84213Y69787D01*
X84096Y69809D01*
X83981Y69839D01*
X83920Y69843D01*
X83900Y69847D01*
X83880Y69845D01*
X83820Y69849D01*
X81280Y69849D01*
X81162Y69834D01*
X81043Y69827D01*
X81005Y69814D01*
X80964Y69809D01*
X80854Y69765D01*
X80741Y69729D01*
X80706Y69707D01*
X80669Y69692D01*
X80573Y69622D01*
X80472Y69559D01*
X80444Y69529D01*
X80411Y69505D01*
X80336Y69414D01*
X80254Y69327D01*
X80234Y69292D01*
X80209Y69260D01*
X80158Y69153D01*
X80100Y69048D01*
X80090Y69009D01*
X80073Y68973D01*
X80051Y68856D01*
X80021Y68741D01*
X80017Y68680D01*
X80013Y68660D01*
X80015Y68640D01*
X80011Y68580D01*
X80011Y58165D01*
X79754Y58205D01*
X77967Y58786D01*
X76293Y59639D01*
X74772Y60744D01*
X73444Y62072D01*
X72339Y63593D01*
X71743Y64763D01*
X71732Y64779D01*
X71724Y64798D01*
X71643Y64911D01*
X71564Y65026D01*
X71549Y65039D01*
X71538Y65055D01*
X71430Y65144D01*
X71326Y65236D01*
X71308Y65245D01*
X71293Y65258D01*
X71167Y65317D01*
X71042Y65381D01*
X71023Y65385D01*
X71005Y65394D01*
X70868Y65420D01*
X70732Y65450D01*
X70712Y65450D01*
X70692Y65453D01*
X70553Y65445D01*
X70414Y65440D01*
X70395Y65435D01*
X70375Y65434D01*
X70243Y65391D01*
X70109Y65352D01*
X70091Y65342D01*
X70073Y65336D01*
X69955Y65261D01*
X69835Y65190D01*
X69821Y65176D01*
X69804Y65165D01*
X69708Y65064D01*
X69610Y64965D01*
X69600Y64948D01*
X69586Y64934D01*
X69519Y64812D01*
X69448Y64692D01*
X69442Y64673D01*
X69432Y64655D01*
X69398Y64521D01*
X69359Y64387D01*
X69358Y64367D01*
X69353Y64347D01*
X69343Y64187D01*
X69343Y61584D01*
X69355Y61486D01*
X69358Y61387D01*
X69375Y61328D01*
X69383Y61268D01*
X69419Y61176D01*
X69447Y61081D01*
X69477Y61029D01*
X69500Y60973D01*
X69558Y60893D01*
X69608Y60807D01*
X69674Y60732D01*
X69686Y60715D01*
X69696Y60707D01*
X69714Y60686D01*
X79736Y50664D01*
X79815Y50604D01*
X79887Y50536D01*
X79940Y50507D01*
X79988Y50470D01*
X80079Y50430D01*
X80165Y50382D01*
X80224Y50367D01*
X80279Y50343D01*
X80377Y50328D01*
X80473Y50303D01*
X80573Y50297D01*
X80594Y50293D01*
X80606Y50295D01*
X80634Y50293D01*
X182295Y50293D01*
X182393Y50305D01*
X182492Y50308D01*
X182550Y50325D01*
X182610Y50333D01*
X182702Y50369D01*
X182797Y50397D01*
X182849Y50427D01*
X182906Y50450D01*
X182986Y50508D01*
X183071Y50558D01*
X183147Y50624D01*
X183163Y50636D01*
X183171Y50646D01*
X183192Y50664D01*
X184578Y52051D01*
X186773Y52960D01*
X189147Y52960D01*
X191342Y52051D01*
X193021Y50372D01*
X193930Y48177D01*
X193930Y45803D01*
X193021Y43608D01*
X191342Y41929D01*
X189147Y41020D01*
X186773Y41020D01*
X184578Y41929D01*
X183192Y43316D01*
X183114Y43376D01*
X183042Y43444D01*
X182989Y43473D01*
X182941Y43510D01*
X182850Y43550D01*
X182763Y43598D01*
X182705Y43613D01*
X182649Y43637D01*
X182551Y43652D01*
X182455Y43677D01*
X182355Y43683D01*
X182335Y43687D01*
X182323Y43685D01*
X182295Y43687D01*
X77372Y43687D01*
X75066Y45994D01*
X65921Y55138D01*
X65812Y55223D01*
X65705Y55312D01*
X65686Y55320D01*
X65670Y55333D01*
X65542Y55388D01*
X65417Y55447D01*
X65397Y55451D01*
X65378Y55459D01*
X65240Y55481D01*
X65104Y55507D01*
X65084Y55506D01*
X65064Y55509D01*
X64925Y55496D01*
X64787Y55487D01*
X64768Y55481D01*
X64748Y55479D01*
X64616Y55432D01*
X64485Y55389D01*
X64467Y55378D01*
X64448Y55371D01*
X64333Y55293D01*
X64216Y55219D01*
X64202Y55204D01*
X64185Y55193D01*
X64093Y55089D01*
X63998Y54987D01*
X63988Y54970D01*
X63975Y54954D01*
X63911Y54830D01*
X63844Y54709D01*
X63839Y54689D01*
X63830Y54671D01*
X63800Y54535D01*
X63765Y54401D01*
X63763Y54373D01*
X63760Y54361D01*
X63761Y54340D01*
X63755Y54240D01*
X63755Y38954D01*
X63758Y38925D01*
X63756Y38895D01*
X63778Y38768D01*
X63795Y38639D01*
X63805Y38611D01*
X63810Y38582D01*
X63864Y38464D01*
X63912Y38343D01*
X63929Y38319D01*
X63941Y38292D01*
X64022Y38191D01*
X64098Y38086D01*
X64121Y38067D01*
X64140Y38044D01*
X64243Y37966D01*
X64343Y37883D01*
X64370Y37870D01*
X64394Y37852D01*
X64538Y37782D01*
X66882Y36811D01*
X68561Y35132D01*
X69470Y32937D01*
X69470Y30563D01*
X68561Y28368D01*
X66882Y26689D01*
X64687Y25780D01*
X62313Y25780D01*
G37*
%LPD*%
%LPC*%
G36*
X170263Y95630D02*
X170263Y95630D01*
X168068Y96539D01*
X166389Y98218D01*
X165480Y100413D01*
X165480Y102790D01*
X165497Y102850D01*
X165524Y102914D01*
X165538Y103003D01*
X165562Y103089D01*
X165563Y103159D01*
X165574Y103228D01*
X165566Y103317D01*
X165567Y103407D01*
X165551Y103475D01*
X165544Y103544D01*
X165514Y103629D01*
X165493Y103716D01*
X165460Y103778D01*
X165437Y103844D01*
X165386Y103918D01*
X165344Y103997D01*
X165297Y104049D01*
X165258Y104107D01*
X165191Y104166D01*
X165130Y104233D01*
X165072Y104271D01*
X165020Y104317D01*
X164940Y104358D01*
X164865Y104408D01*
X164799Y104430D01*
X164736Y104462D01*
X164649Y104482D01*
X164564Y104511D01*
X164494Y104516D01*
X164426Y104532D01*
X164336Y104529D01*
X164247Y104536D01*
X164178Y104524D01*
X164108Y104522D01*
X164022Y104497D01*
X163933Y104482D01*
X163870Y104453D01*
X163803Y104434D01*
X163725Y104388D01*
X163643Y104351D01*
X163589Y104307D01*
X163529Y104272D01*
X163408Y104166D01*
X162132Y102889D01*
X159937Y101980D01*
X157563Y101980D01*
X155368Y102889D01*
X153689Y104568D01*
X152780Y106763D01*
X152780Y109137D01*
X153689Y111332D01*
X155076Y112718D01*
X155136Y112796D01*
X155204Y112868D01*
X155233Y112921D01*
X155270Y112969D01*
X155310Y113060D01*
X155358Y113147D01*
X155373Y113205D01*
X155397Y113261D01*
X155412Y113359D01*
X155437Y113455D01*
X155443Y113555D01*
X155447Y113575D01*
X155445Y113587D01*
X155447Y113615D01*
X155447Y185209D01*
X164432Y194194D01*
X164493Y194272D01*
X164561Y194344D01*
X164590Y194397D01*
X164627Y194445D01*
X164666Y194536D01*
X164714Y194622D01*
X164729Y194681D01*
X164753Y194737D01*
X164769Y194835D01*
X164794Y194930D01*
X164800Y195030D01*
X164803Y195051D01*
X164802Y195063D01*
X164804Y195091D01*
X164804Y197052D01*
X165713Y199246D01*
X167392Y200925D01*
X169586Y201834D01*
X171961Y201834D01*
X174155Y200925D01*
X175835Y199246D01*
X176085Y198641D01*
X176154Y198520D01*
X176219Y198397D01*
X176233Y198382D01*
X176243Y198365D01*
X176339Y198265D01*
X176433Y198162D01*
X176450Y198151D01*
X176464Y198136D01*
X176583Y198063D01*
X176699Y197987D01*
X176718Y197981D01*
X176735Y197970D01*
X176868Y197929D01*
X176999Y197884D01*
X177020Y197882D01*
X177039Y197877D01*
X177178Y197870D01*
X177316Y197859D01*
X177336Y197862D01*
X177357Y197861D01*
X177493Y197889D01*
X177630Y197913D01*
X177648Y197922D01*
X177668Y197926D01*
X177793Y197987D01*
X177920Y198044D01*
X177936Y198056D01*
X177954Y198065D01*
X178059Y198155D01*
X178168Y198242D01*
X178180Y198259D01*
X178196Y198272D01*
X178276Y198385D01*
X178359Y198497D01*
X178372Y198522D01*
X178379Y198532D01*
X178386Y198551D01*
X178430Y198641D01*
X179089Y200232D01*
X180768Y201911D01*
X182633Y202683D01*
X182676Y202708D01*
X182722Y202724D01*
X182813Y202786D01*
X182909Y202841D01*
X182945Y202875D01*
X182986Y202903D01*
X183058Y202985D01*
X183137Y203062D01*
X183163Y203104D01*
X183196Y203141D01*
X183246Y203239D01*
X183303Y203333D01*
X183318Y203380D01*
X183341Y203425D01*
X183365Y203532D01*
X183397Y203637D01*
X183399Y203687D01*
X183410Y203735D01*
X183407Y203845D01*
X183412Y203955D01*
X183402Y204003D01*
X183401Y204053D01*
X183370Y204158D01*
X183348Y204266D01*
X183326Y204311D01*
X183312Y204358D01*
X183257Y204453D01*
X183208Y204552D01*
X183176Y204590D01*
X183151Y204632D01*
X183044Y204753D01*
X182899Y204898D01*
X181990Y207093D01*
X181990Y209467D01*
X182899Y211662D01*
X184578Y213341D01*
X186773Y214250D01*
X189147Y214250D01*
X191342Y213341D01*
X193021Y211662D01*
X193930Y209467D01*
X193930Y207507D01*
X193942Y207409D01*
X193945Y207310D01*
X193962Y207251D01*
X193970Y207191D01*
X194006Y207099D01*
X194034Y207004D01*
X194064Y206952D01*
X194087Y206896D01*
X194145Y206816D01*
X194195Y206730D01*
X194261Y206655D01*
X194273Y206638D01*
X194283Y206630D01*
X194301Y206609D01*
X202379Y198532D01*
X202434Y198489D01*
X202483Y198439D01*
X202559Y198392D01*
X202630Y198337D01*
X202694Y198309D01*
X202754Y198273D01*
X202839Y198246D01*
X202922Y198211D01*
X202991Y198200D01*
X203058Y198179D01*
X203147Y198175D01*
X203236Y198161D01*
X203306Y198167D01*
X203375Y198164D01*
X203463Y198182D01*
X203553Y198190D01*
X203619Y198214D01*
X203687Y198228D01*
X203767Y198268D01*
X203852Y198298D01*
X203910Y198337D01*
X203973Y198368D01*
X204041Y198426D01*
X204115Y198477D01*
X204161Y198529D01*
X204215Y198574D01*
X204266Y198648D01*
X204326Y198715D01*
X204357Y198777D01*
X204398Y198834D01*
X204429Y198918D01*
X204470Y198998D01*
X204486Y199066D01*
X204510Y199132D01*
X204520Y199221D01*
X204540Y199309D01*
X204538Y199378D01*
X204546Y199448D01*
X204533Y199537D01*
X204530Y199627D01*
X204511Y199694D01*
X204501Y199763D01*
X204449Y199915D01*
X203580Y202013D01*
X203580Y204387D01*
X204489Y206582D01*
X206168Y208261D01*
X208363Y209170D01*
X210737Y209170D01*
X212932Y208261D01*
X214611Y206582D01*
X215520Y204387D01*
X215520Y202427D01*
X215532Y202329D01*
X215535Y202230D01*
X215552Y202171D01*
X215560Y202111D01*
X215596Y202019D01*
X215624Y201924D01*
X215654Y201872D01*
X215677Y201816D01*
X215735Y201736D01*
X215785Y201650D01*
X215851Y201575D01*
X215863Y201558D01*
X215873Y201550D01*
X215891Y201529D01*
X219435Y197986D01*
X219493Y197894D01*
X219523Y197866D01*
X219546Y197833D01*
X219638Y197757D01*
X219725Y197676D01*
X219760Y197656D01*
X219791Y197631D01*
X219899Y197580D01*
X220003Y197522D01*
X220043Y197512D01*
X220079Y197495D01*
X220196Y197473D01*
X220311Y197443D01*
X220371Y197439D01*
X220391Y197435D01*
X220412Y197437D01*
X220472Y197433D01*
X224791Y197433D01*
X224823Y197408D01*
X224887Y197380D01*
X224946Y197344D01*
X225032Y197318D01*
X225115Y197282D01*
X225184Y197271D01*
X225250Y197250D01*
X225340Y197246D01*
X225429Y197232D01*
X225498Y197239D01*
X225568Y197235D01*
X225656Y197253D01*
X225745Y197262D01*
X225811Y197285D01*
X225879Y197300D01*
X225960Y197339D01*
X226045Y197369D01*
X226102Y197409D01*
X226165Y197439D01*
X226233Y197498D01*
X226308Y197548D01*
X226354Y197600D01*
X226407Y197646D01*
X226459Y197719D01*
X226518Y197786D01*
X226550Y197849D01*
X226590Y197906D01*
X226622Y197990D01*
X226663Y198070D01*
X226678Y198138D01*
X226703Y198203D01*
X226713Y198292D01*
X226733Y198380D01*
X226730Y198450D01*
X226738Y198519D01*
X226726Y198608D01*
X226723Y198698D01*
X226703Y198765D01*
X226694Y198834D01*
X226642Y198986D01*
X226440Y199473D01*
X226440Y201847D01*
X227349Y204042D01*
X229028Y205721D01*
X231223Y206630D01*
X233597Y206630D01*
X235792Y205721D01*
X237471Y204042D01*
X238380Y201847D01*
X238380Y199473D01*
X237471Y197278D01*
X235792Y195599D01*
X233597Y194690D01*
X231223Y194690D01*
X229028Y195599D01*
X228099Y196528D01*
X227990Y196613D01*
X227883Y196702D01*
X227864Y196711D01*
X227848Y196723D01*
X227721Y196778D01*
X227595Y196837D01*
X227575Y196841D01*
X227556Y196849D01*
X227418Y196871D01*
X227282Y196897D01*
X227262Y196896D01*
X227242Y196899D01*
X227103Y196886D01*
X226965Y196878D01*
X226946Y196871D01*
X226926Y196869D01*
X226794Y196822D01*
X226663Y196779D01*
X226645Y196769D01*
X226626Y196762D01*
X226511Y196684D01*
X226394Y196609D01*
X226380Y196595D01*
X226363Y196583D01*
X226271Y196479D01*
X226176Y196378D01*
X226166Y196360D01*
X226153Y196345D01*
X226090Y196221D01*
X226022Y196099D01*
X226017Y196080D01*
X226008Y196062D01*
X225978Y195926D01*
X225943Y195791D01*
X225941Y195763D01*
X225938Y195751D01*
X225939Y195731D01*
X225933Y195631D01*
X225933Y171558D01*
X224742Y170367D01*
X207772Y170367D01*
X207654Y170352D01*
X207535Y170345D01*
X207497Y170332D01*
X207456Y170327D01*
X207346Y170284D01*
X207233Y170247D01*
X207198Y170225D01*
X207161Y170210D01*
X207065Y170141D01*
X206964Y170077D01*
X206936Y170047D01*
X206903Y170024D01*
X206827Y169932D01*
X206746Y169845D01*
X206726Y169810D01*
X206701Y169779D01*
X206650Y169671D01*
X206592Y169567D01*
X206582Y169527D01*
X206565Y169491D01*
X206543Y169374D01*
X206513Y169259D01*
X206509Y169199D01*
X206505Y169179D01*
X206507Y169158D01*
X206506Y169151D01*
X206505Y169147D01*
X206506Y169143D01*
X206503Y169098D01*
X206503Y136210D01*
X206518Y136092D01*
X206525Y135973D01*
X206538Y135935D01*
X206543Y135894D01*
X206586Y135784D01*
X206623Y135671D01*
X206645Y135636D01*
X206660Y135599D01*
X206729Y135503D01*
X206793Y135402D01*
X206823Y135374D01*
X206846Y135341D01*
X206938Y135265D01*
X207025Y135184D01*
X207060Y135164D01*
X207091Y135139D01*
X207199Y135088D01*
X207303Y135030D01*
X207343Y135020D01*
X207379Y135003D01*
X207496Y134981D01*
X207611Y134951D01*
X207671Y134947D01*
X207691Y134943D01*
X207712Y134945D01*
X207772Y134941D01*
X213361Y134941D01*
X213361Y122170D01*
X213376Y122052D01*
X213383Y121933D01*
X213396Y121895D01*
X213401Y121855D01*
X213444Y121744D01*
X213481Y121631D01*
X213503Y121596D01*
X213518Y121559D01*
X213588Y121463D01*
X213651Y121362D01*
X213681Y121334D01*
X213705Y121302D01*
X213796Y121226D01*
X213883Y121144D01*
X213918Y121125D01*
X213949Y121099D01*
X214057Y121048D01*
X214161Y120991D01*
X214201Y120980D01*
X214237Y120963D01*
X214354Y120941D01*
X214469Y120911D01*
X214530Y120907D01*
X214550Y120903D01*
X214570Y120905D01*
X214630Y120901D01*
X215901Y120901D01*
X215901Y120899D01*
X214630Y120899D01*
X214512Y120884D01*
X214393Y120877D01*
X214355Y120864D01*
X214315Y120859D01*
X214204Y120815D01*
X214091Y120779D01*
X214056Y120757D01*
X214019Y120742D01*
X213923Y120672D01*
X213822Y120609D01*
X213794Y120579D01*
X213761Y120555D01*
X213686Y120464D01*
X213604Y120377D01*
X213584Y120342D01*
X213559Y120310D01*
X213508Y120203D01*
X213450Y120099D01*
X213440Y120059D01*
X213423Y120023D01*
X213401Y119906D01*
X213371Y119791D01*
X213367Y119730D01*
X213363Y119710D01*
X213365Y119690D01*
X213361Y119630D01*
X213361Y106859D01*
X207772Y106859D01*
X207654Y106844D01*
X207535Y106837D01*
X207497Y106824D01*
X207456Y106819D01*
X207346Y106776D01*
X207233Y106739D01*
X207198Y106717D01*
X207161Y106702D01*
X207065Y106633D01*
X206964Y106569D01*
X206936Y106539D01*
X206903Y106516D01*
X206827Y106424D01*
X206746Y106337D01*
X206726Y106302D01*
X206701Y106271D01*
X206650Y106163D01*
X206592Y106059D01*
X206582Y106019D01*
X206565Y105983D01*
X206543Y105866D01*
X206513Y105751D01*
X206509Y105691D01*
X206505Y105671D01*
X206507Y105650D01*
X206503Y105590D01*
X206503Y104617D01*
X206504Y104607D01*
X206503Y104598D01*
X206524Y104449D01*
X206543Y104301D01*
X206546Y104292D01*
X206547Y104283D01*
X206599Y104131D01*
X206630Y104057D01*
X206630Y101683D01*
X205721Y99488D01*
X204042Y97809D01*
X201847Y96900D01*
X199473Y96900D01*
X197278Y97809D01*
X195599Y99488D01*
X194690Y101683D01*
X194690Y104057D01*
X195599Y106252D01*
X197278Y107931D01*
X199114Y108691D01*
X199139Y108706D01*
X199167Y108715D01*
X199277Y108784D01*
X199390Y108849D01*
X199411Y108869D01*
X199436Y108885D01*
X199525Y108980D01*
X199618Y109070D01*
X199634Y109095D01*
X199654Y109117D01*
X199717Y109230D01*
X199785Y109341D01*
X199793Y109369D01*
X199808Y109395D01*
X199840Y109521D01*
X199878Y109645D01*
X199880Y109674D01*
X199887Y109703D01*
X199897Y109864D01*
X199897Y191146D01*
X199885Y191244D01*
X199882Y191343D01*
X199865Y191402D01*
X199857Y191462D01*
X199821Y191554D01*
X199793Y191649D01*
X199763Y191701D01*
X199740Y191757D01*
X199682Y191837D01*
X199632Y191923D01*
X199566Y191998D01*
X199554Y192015D01*
X199544Y192023D01*
X199526Y192044D01*
X192219Y199350D01*
X192164Y199393D01*
X192115Y199443D01*
X192039Y199490D01*
X191968Y199545D01*
X191904Y199573D01*
X191844Y199609D01*
X191758Y199636D01*
X191676Y199671D01*
X191607Y199682D01*
X191540Y199703D01*
X191451Y199707D01*
X191362Y199721D01*
X191292Y199715D01*
X191223Y199718D01*
X191135Y199700D01*
X191045Y199692D01*
X190979Y199668D01*
X190911Y199654D01*
X190830Y199614D01*
X190746Y199584D01*
X190688Y199545D01*
X190625Y199514D01*
X190557Y199456D01*
X190483Y199405D01*
X190437Y199353D01*
X190383Y199308D01*
X190332Y199234D01*
X190272Y199167D01*
X190240Y199105D01*
X190200Y199048D01*
X190169Y198964D01*
X190128Y198884D01*
X190112Y198815D01*
X190088Y198750D01*
X190078Y198661D01*
X190058Y198573D01*
X190060Y198504D01*
X190052Y198434D01*
X190065Y198345D01*
X190068Y198255D01*
X190087Y198188D01*
X190097Y198119D01*
X190120Y198052D01*
X190120Y195663D01*
X189211Y193468D01*
X188092Y192350D01*
X188019Y192256D01*
X187941Y192167D01*
X187922Y192131D01*
X187898Y192099D01*
X187850Y191990D01*
X187796Y191883D01*
X187787Y191844D01*
X187771Y191807D01*
X187752Y191689D01*
X187726Y191573D01*
X187728Y191533D01*
X187721Y191493D01*
X187732Y191374D01*
X187736Y191255D01*
X187747Y191216D01*
X187751Y191176D01*
X187791Y191064D01*
X187825Y190950D01*
X187845Y190915D01*
X187859Y190877D01*
X187926Y190778D01*
X187986Y190676D01*
X188026Y190631D01*
X188037Y190614D01*
X188053Y190600D01*
X188092Y190555D01*
X189211Y189437D01*
X190120Y187242D01*
X190120Y184868D01*
X189211Y182673D01*
X187824Y181287D01*
X187764Y181209D01*
X187696Y181137D01*
X187667Y181084D01*
X187630Y181036D01*
X187590Y180945D01*
X187542Y180858D01*
X187527Y180800D01*
X187503Y180744D01*
X187488Y180646D01*
X187463Y180550D01*
X187457Y180450D01*
X187453Y180430D01*
X187455Y180418D01*
X187453Y180390D01*
X187453Y162678D01*
X187456Y162648D01*
X187454Y162619D01*
X187474Y162507D01*
X187475Y162483D01*
X187479Y162472D01*
X187493Y162362D01*
X187503Y162335D01*
X187508Y162306D01*
X187562Y162187D01*
X187610Y162066D01*
X187627Y162043D01*
X187639Y162016D01*
X187720Y161914D01*
X187796Y161809D01*
X187819Y161790D01*
X187838Y161767D01*
X187941Y161689D01*
X188041Y161606D01*
X188068Y161594D01*
X188092Y161576D01*
X188236Y161505D01*
X188802Y161271D01*
X190481Y159592D01*
X191390Y157397D01*
X191390Y155023D01*
X190481Y152828D01*
X188802Y151149D01*
X186607Y150240D01*
X184233Y150240D01*
X182038Y151149D01*
X180359Y152828D01*
X179450Y155023D01*
X179450Y157397D01*
X180359Y159592D01*
X180476Y159708D01*
X180536Y159786D01*
X180604Y159858D01*
X180633Y159911D01*
X180670Y159959D01*
X180710Y160050D01*
X180758Y160137D01*
X180773Y160195D01*
X180797Y160251D01*
X180812Y160349D01*
X180837Y160445D01*
X180843Y160545D01*
X180847Y160565D01*
X180845Y160577D01*
X180847Y160605D01*
X180847Y180390D01*
X180835Y180488D01*
X180832Y180587D01*
X180815Y180645D01*
X180807Y180705D01*
X180771Y180797D01*
X180743Y180892D01*
X180713Y180944D01*
X180690Y181001D01*
X180632Y181081D01*
X180582Y181166D01*
X180516Y181242D01*
X180504Y181258D01*
X180494Y181266D01*
X180476Y181287D01*
X179089Y182673D01*
X178522Y184042D01*
X178498Y184085D01*
X178481Y184132D01*
X178419Y184223D01*
X178365Y184318D01*
X178330Y184354D01*
X178302Y184395D01*
X178220Y184468D01*
X178143Y184547D01*
X178101Y184573D01*
X178064Y184605D01*
X177966Y184655D01*
X177872Y184713D01*
X177825Y184727D01*
X177781Y184750D01*
X177673Y184774D01*
X177568Y184806D01*
X177519Y184809D01*
X177470Y184820D01*
X177361Y184816D01*
X177251Y184822D01*
X177202Y184812D01*
X177152Y184810D01*
X177047Y184780D01*
X176939Y184757D01*
X176895Y184735D01*
X176847Y184722D01*
X176752Y184666D01*
X176654Y184618D01*
X176616Y184585D01*
X176573Y184560D01*
X176452Y184454D01*
X168774Y176776D01*
X168714Y176698D01*
X168646Y176626D01*
X168617Y176573D01*
X168580Y176525D01*
X168540Y176434D01*
X168492Y176347D01*
X168477Y176289D01*
X168453Y176233D01*
X168438Y176135D01*
X168413Y176039D01*
X168407Y175939D01*
X168403Y175919D01*
X168405Y175907D01*
X168403Y175879D01*
X168403Y122544D01*
X168415Y122446D01*
X168418Y122347D01*
X168435Y122288D01*
X168443Y122228D01*
X168479Y122136D01*
X168507Y122041D01*
X168537Y121989D01*
X168560Y121933D01*
X168618Y121853D01*
X168668Y121767D01*
X168734Y121692D01*
X168746Y121675D01*
X168756Y121667D01*
X168774Y121646D01*
X174753Y115668D01*
X174753Y107265D01*
X174765Y107167D01*
X174768Y107068D01*
X174785Y107010D01*
X174793Y106950D01*
X174829Y106858D01*
X174857Y106763D01*
X174887Y106711D01*
X174910Y106654D01*
X174968Y106574D01*
X175018Y106489D01*
X175084Y106413D01*
X175096Y106397D01*
X175106Y106389D01*
X175124Y106368D01*
X176511Y104982D01*
X177420Y102787D01*
X177420Y100413D01*
X176511Y98218D01*
X174832Y96539D01*
X172637Y95630D01*
X170263Y95630D01*
G37*
%LPD*%
%LPC*%
G36*
X19049Y120649D02*
X19049Y120649D01*
X19049Y121920D01*
X19034Y122038D01*
X19027Y122157D01*
X19014Y122195D01*
X19009Y122235D01*
X18965Y122346D01*
X18929Y122459D01*
X18907Y122494D01*
X18892Y122531D01*
X18822Y122627D01*
X18759Y122728D01*
X18729Y122756D01*
X18705Y122789D01*
X18614Y122864D01*
X18527Y122946D01*
X18492Y122966D01*
X18460Y122991D01*
X18353Y123042D01*
X18248Y123100D01*
X18209Y123110D01*
X18173Y123127D01*
X18056Y123149D01*
X17941Y123179D01*
X17880Y123183D01*
X17860Y123187D01*
X17840Y123185D01*
X17780Y123189D01*
X7365Y123189D01*
X7405Y123446D01*
X7986Y125233D01*
X8839Y126907D01*
X9944Y128428D01*
X11272Y129756D01*
X12793Y130861D01*
X14467Y131714D01*
X16284Y132304D01*
X16370Y132330D01*
X16496Y132360D01*
X16523Y132374D01*
X16552Y132382D01*
X16663Y132448D01*
X16777Y132508D01*
X16800Y132529D01*
X16826Y132544D01*
X16917Y132635D01*
X17013Y132722D01*
X17029Y132747D01*
X17051Y132769D01*
X17116Y132880D01*
X17187Y132988D01*
X17197Y133017D01*
X17213Y133042D01*
X17249Y133166D01*
X17291Y133289D01*
X17293Y133319D01*
X17301Y133348D01*
X17306Y133477D01*
X17316Y133606D01*
X17311Y133636D01*
X17312Y133666D01*
X17284Y133792D01*
X17261Y133919D01*
X17249Y133947D01*
X17242Y133976D01*
X17184Y134091D01*
X17131Y134209D01*
X17112Y134233D01*
X17098Y134260D01*
X17013Y134357D01*
X16932Y134458D01*
X16908Y134476D01*
X16888Y134498D01*
X16781Y134571D01*
X16678Y134649D01*
X16639Y134668D01*
X16625Y134677D01*
X16605Y134685D01*
X16534Y134720D01*
X12575Y136359D01*
X9359Y139575D01*
X7619Y143776D01*
X7619Y148324D01*
X9359Y152525D01*
X12575Y155741D01*
X16776Y157481D01*
X21324Y157481D01*
X22950Y156807D01*
X22979Y156799D01*
X23005Y156786D01*
X23132Y156757D01*
X23257Y156723D01*
X23287Y156723D01*
X23316Y156716D01*
X23445Y156720D01*
X23575Y156718D01*
X23604Y156725D01*
X23633Y156726D01*
X23758Y156762D01*
X23884Y156792D01*
X23911Y156806D01*
X23939Y156814D01*
X24051Y156880D01*
X24166Y156941D01*
X24187Y156961D01*
X24213Y156976D01*
X24334Y157082D01*
X26964Y159713D01*
X27007Y159768D01*
X27057Y159816D01*
X27104Y159893D01*
X27159Y159964D01*
X27187Y160028D01*
X27223Y160087D01*
X27250Y160173D01*
X27285Y160256D01*
X27296Y160325D01*
X27317Y160391D01*
X27321Y160481D01*
X27335Y160570D01*
X27329Y160639D01*
X27332Y160709D01*
X27314Y160797D01*
X27305Y160886D01*
X27282Y160952D01*
X27268Y161020D01*
X27228Y161101D01*
X27198Y161186D01*
X27159Y161243D01*
X27128Y161306D01*
X27070Y161374D01*
X27019Y161449D01*
X26967Y161495D01*
X26922Y161548D01*
X26848Y161600D01*
X26781Y161659D01*
X26719Y161691D01*
X26662Y161731D01*
X26578Y161763D01*
X26498Y161804D01*
X26430Y161819D01*
X26364Y161844D01*
X26275Y161854D01*
X26187Y161874D01*
X26118Y161871D01*
X26048Y161879D01*
X25959Y161867D01*
X25869Y161864D01*
X25802Y161844D01*
X25733Y161835D01*
X25581Y161783D01*
X21324Y160019D01*
X16776Y160019D01*
X12575Y161759D01*
X9359Y164975D01*
X7619Y169176D01*
X7619Y173724D01*
X9359Y177925D01*
X12575Y181141D01*
X16776Y182881D01*
X21324Y182881D01*
X25525Y181141D01*
X28741Y177925D01*
X30323Y174104D01*
X30358Y174043D01*
X30384Y173978D01*
X30436Y173905D01*
X30481Y173827D01*
X30529Y173777D01*
X30570Y173721D01*
X30640Y173663D01*
X30702Y173599D01*
X30762Y173562D01*
X30815Y173518D01*
X30897Y173480D01*
X30973Y173433D01*
X31040Y173412D01*
X31103Y173382D01*
X31191Y173365D01*
X31277Y173339D01*
X31347Y173336D01*
X31416Y173323D01*
X31505Y173328D01*
X31595Y173324D01*
X31663Y173338D01*
X31733Y173342D01*
X31818Y173370D01*
X31906Y173388D01*
X31969Y173419D01*
X32035Y173440D01*
X32111Y173488D01*
X32192Y173528D01*
X32245Y173573D01*
X32304Y173611D01*
X32366Y173676D01*
X32434Y173734D01*
X32474Y173791D01*
X32522Y173842D01*
X32565Y173921D01*
X32617Y173994D01*
X32642Y174060D01*
X32676Y174121D01*
X32698Y174207D01*
X32730Y174292D01*
X32738Y174361D01*
X32755Y174429D01*
X32765Y174589D01*
X32765Y193711D01*
X32757Y193780D01*
X32758Y193850D01*
X32737Y193937D01*
X32725Y194026D01*
X32700Y194091D01*
X32683Y194159D01*
X32641Y194238D01*
X32608Y194322D01*
X32567Y194378D01*
X32535Y194440D01*
X32474Y194507D01*
X32422Y194579D01*
X32368Y194624D01*
X32321Y194675D01*
X32246Y194725D01*
X32177Y194782D01*
X32113Y194812D01*
X32055Y194850D01*
X31970Y194879D01*
X31889Y194918D01*
X31820Y194931D01*
X31754Y194953D01*
X31665Y194961D01*
X31577Y194977D01*
X31507Y194973D01*
X31437Y194979D01*
X31349Y194963D01*
X31259Y194958D01*
X31193Y194936D01*
X31124Y194924D01*
X31042Y194887D01*
X30957Y194860D01*
X30898Y194822D01*
X30834Y194794D01*
X30764Y194738D01*
X30688Y194689D01*
X30640Y194639D01*
X30586Y194595D01*
X30531Y194523D01*
X30470Y194458D01*
X30436Y194397D01*
X30394Y194341D01*
X30323Y194196D01*
X28741Y190375D01*
X25525Y187159D01*
X21324Y185419D01*
X16776Y185419D01*
X12575Y187159D01*
X9359Y190375D01*
X7619Y194576D01*
X7619Y199124D01*
X9359Y203325D01*
X12575Y206541D01*
X16776Y208281D01*
X21324Y208281D01*
X25525Y206541D01*
X28741Y203325D01*
X30323Y199504D01*
X30358Y199443D01*
X30384Y199378D01*
X30436Y199305D01*
X30481Y199227D01*
X30529Y199177D01*
X30570Y199121D01*
X30640Y199063D01*
X30702Y198999D01*
X30762Y198962D01*
X30815Y198918D01*
X30897Y198880D01*
X30973Y198833D01*
X31040Y198812D01*
X31103Y198782D01*
X31191Y198765D01*
X31277Y198739D01*
X31347Y198736D01*
X31416Y198723D01*
X31505Y198728D01*
X31595Y198724D01*
X31663Y198738D01*
X31733Y198742D01*
X31818Y198770D01*
X31906Y198788D01*
X31969Y198819D01*
X32035Y198840D01*
X32111Y198888D01*
X32192Y198928D01*
X32245Y198973D01*
X32304Y199011D01*
X32366Y199076D01*
X32434Y199134D01*
X32474Y199191D01*
X32522Y199242D01*
X32565Y199321D01*
X32617Y199394D01*
X32642Y199460D01*
X32676Y199521D01*
X32698Y199607D01*
X32730Y199692D01*
X32738Y199761D01*
X32755Y199829D01*
X32765Y199989D01*
X32765Y243213D01*
X32750Y243331D01*
X32743Y243451D01*
X32730Y243489D01*
X32725Y243529D01*
X32682Y243639D01*
X32645Y243753D01*
X32623Y243787D01*
X32608Y243824D01*
X32538Y243921D01*
X32474Y244022D01*
X32445Y244049D01*
X32422Y244082D01*
X32329Y244158D01*
X32243Y244239D01*
X32207Y244259D01*
X32177Y244284D01*
X32069Y244335D01*
X31964Y244393D01*
X31925Y244403D01*
X31889Y244420D01*
X31772Y244442D01*
X31656Y244472D01*
X31616Y244472D01*
X31577Y244480D01*
X31457Y244472D01*
X31338Y244472D01*
X31299Y244462D01*
X31259Y244460D01*
X31146Y244423D01*
X31030Y244394D01*
X30995Y244374D01*
X30957Y244362D01*
X30856Y244298D01*
X30751Y244241D01*
X30722Y244213D01*
X30688Y244192D01*
X30606Y244105D01*
X30519Y244023D01*
X30497Y243989D01*
X30470Y243960D01*
X30412Y243856D01*
X30348Y243755D01*
X30326Y243699D01*
X30316Y243682D01*
X30311Y243662D01*
X30289Y243605D01*
X30117Y243076D01*
X30114Y243067D01*
X29261Y241393D01*
X28156Y239872D01*
X26828Y238544D01*
X25307Y237439D01*
X23633Y236586D01*
X21846Y236005D01*
X21589Y235965D01*
X21589Y246380D01*
X21574Y246498D01*
X21567Y246617D01*
X21554Y246655D01*
X21549Y246695D01*
X21506Y246806D01*
X21469Y246919D01*
X21447Y246953D01*
X21432Y246991D01*
X21362Y247087D01*
X21299Y247188D01*
X21269Y247216D01*
X21245Y247248D01*
X21154Y247324D01*
X21067Y247406D01*
X21032Y247425D01*
X21001Y247451D01*
X20893Y247502D01*
X20789Y247559D01*
X20749Y247570D01*
X20713Y247587D01*
X20596Y247609D01*
X20481Y247639D01*
X20420Y247643D01*
X20400Y247647D01*
X20380Y247645D01*
X20320Y247649D01*
X19049Y247649D01*
X19049Y248920D01*
X19034Y249038D01*
X19027Y249157D01*
X19014Y249195D01*
X19009Y249235D01*
X18965Y249346D01*
X18929Y249459D01*
X18907Y249494D01*
X18892Y249531D01*
X18822Y249627D01*
X18759Y249728D01*
X18729Y249756D01*
X18705Y249789D01*
X18614Y249864D01*
X18527Y249946D01*
X18492Y249966D01*
X18460Y249991D01*
X18353Y250042D01*
X18248Y250100D01*
X18209Y250110D01*
X18173Y250127D01*
X18056Y250149D01*
X17941Y250179D01*
X17880Y250183D01*
X17860Y250187D01*
X17840Y250185D01*
X17780Y250189D01*
X7365Y250189D01*
X7405Y250446D01*
X7986Y252233D01*
X8839Y253907D01*
X9944Y255428D01*
X11272Y256756D01*
X12793Y257861D01*
X14467Y258714D01*
X16284Y259304D01*
X16370Y259330D01*
X16496Y259360D01*
X16523Y259374D01*
X16552Y259382D01*
X16663Y259448D01*
X16777Y259508D01*
X16800Y259529D01*
X16826Y259544D01*
X16917Y259635D01*
X17013Y259722D01*
X17029Y259747D01*
X17051Y259769D01*
X17116Y259880D01*
X17187Y259988D01*
X17197Y260017D01*
X17213Y260042D01*
X17249Y260166D01*
X17291Y260289D01*
X17293Y260319D01*
X17301Y260348D01*
X17306Y260477D01*
X17316Y260606D01*
X17311Y260636D01*
X17312Y260666D01*
X17284Y260792D01*
X17261Y260919D01*
X17249Y260947D01*
X17242Y260976D01*
X17184Y261091D01*
X17131Y261209D01*
X17112Y261233D01*
X17098Y261260D01*
X17013Y261357D01*
X16932Y261458D01*
X16908Y261476D01*
X16888Y261498D01*
X16781Y261571D01*
X16678Y261649D01*
X16639Y261668D01*
X16625Y261677D01*
X16605Y261685D01*
X16534Y261720D01*
X12575Y263359D01*
X9359Y266575D01*
X7619Y270776D01*
X7619Y275324D01*
X9359Y279525D01*
X12575Y282741D01*
X16776Y284481D01*
X21324Y284481D01*
X25525Y282741D01*
X28741Y279525D01*
X30481Y275324D01*
X30481Y270776D01*
X29807Y269150D01*
X29799Y269121D01*
X29786Y269095D01*
X29757Y268968D01*
X29723Y268843D01*
X29723Y268813D01*
X29716Y268784D01*
X29720Y268655D01*
X29718Y268525D01*
X29725Y268496D01*
X29726Y268467D01*
X29762Y268342D01*
X29792Y268216D01*
X29806Y268189D01*
X29814Y268161D01*
X29880Y268049D01*
X29941Y267934D01*
X29961Y267913D01*
X29976Y267887D01*
X30082Y267766D01*
X38142Y259706D01*
X40895Y256954D01*
X40895Y162146D01*
X30082Y151334D01*
X30064Y151310D01*
X30041Y151291D01*
X29967Y151185D01*
X29887Y151082D01*
X29875Y151055D01*
X29858Y151031D01*
X29812Y150910D01*
X29761Y150791D01*
X29756Y150761D01*
X29746Y150734D01*
X29731Y150605D01*
X29711Y150476D01*
X29714Y150447D01*
X29710Y150418D01*
X29729Y150289D01*
X29741Y150160D01*
X29751Y150132D01*
X29755Y150103D01*
X29807Y149950D01*
X30481Y148324D01*
X30481Y143776D01*
X28741Y139575D01*
X25525Y136359D01*
X21566Y134720D01*
X21454Y134656D01*
X21339Y134597D01*
X21316Y134577D01*
X21290Y134562D01*
X21197Y134472D01*
X21100Y134387D01*
X21083Y134362D01*
X21062Y134341D01*
X20994Y134231D01*
X20921Y134124D01*
X20911Y134096D01*
X20895Y134070D01*
X20857Y133946D01*
X20814Y133825D01*
X20811Y133795D01*
X20802Y133766D01*
X20796Y133637D01*
X20783Y133508D01*
X20788Y133478D01*
X20787Y133448D01*
X20813Y133322D01*
X20833Y133194D01*
X20845Y133166D01*
X20851Y133137D01*
X20908Y133021D01*
X20959Y132902D01*
X20977Y132878D01*
X20991Y132851D01*
X21075Y132753D01*
X21154Y132651D01*
X21177Y132632D01*
X21197Y132609D01*
X21303Y132535D01*
X21405Y132455D01*
X21432Y132443D01*
X21457Y132426D01*
X21578Y132380D01*
X21697Y132329D01*
X21739Y132319D01*
X21754Y132313D01*
X21776Y132311D01*
X21841Y132296D01*
X23633Y131714D01*
X25307Y130861D01*
X26828Y129756D01*
X28156Y128428D01*
X29261Y126907D01*
X30114Y125233D01*
X30695Y123446D01*
X30735Y123189D01*
X20320Y123189D01*
X20202Y123174D01*
X20083Y123167D01*
X20045Y123154D01*
X20005Y123149D01*
X19894Y123106D01*
X19781Y123069D01*
X19747Y123047D01*
X19709Y123032D01*
X19613Y122962D01*
X19512Y122899D01*
X19484Y122869D01*
X19452Y122845D01*
X19376Y122754D01*
X19294Y122667D01*
X19275Y122632D01*
X19249Y122601D01*
X19198Y122493D01*
X19141Y122389D01*
X19130Y122349D01*
X19113Y122313D01*
X19091Y122196D01*
X19061Y122081D01*
X19057Y122020D01*
X19053Y122000D01*
X19055Y121980D01*
X19051Y121920D01*
X19051Y120649D01*
X19049Y120649D01*
G37*
%LPD*%
%LPC*%
G36*
X138513Y235330D02*
X138513Y235330D01*
X136318Y236239D01*
X134639Y237918D01*
X133730Y240113D01*
X133730Y242487D01*
X134639Y244682D01*
X136026Y246068D01*
X136086Y246146D01*
X136154Y246218D01*
X136183Y246271D01*
X136220Y246319D01*
X136260Y246410D01*
X136308Y246497D01*
X136323Y246555D01*
X136347Y246611D01*
X136362Y246709D01*
X136387Y246805D01*
X136393Y246905D01*
X136397Y246925D01*
X136395Y246937D01*
X136397Y246965D01*
X136397Y249018D01*
X179784Y292404D01*
X179802Y292428D01*
X179824Y292447D01*
X179899Y292553D01*
X179979Y292656D01*
X179990Y292683D01*
X180007Y292707D01*
X180053Y292828D01*
X180105Y292947D01*
X180109Y292977D01*
X180120Y293004D01*
X180134Y293133D01*
X180155Y293262D01*
X180152Y293291D01*
X180155Y293320D01*
X180137Y293449D01*
X180125Y293578D01*
X180115Y293606D01*
X180111Y293635D01*
X180059Y293788D01*
X179170Y295934D01*
X179106Y296046D01*
X179047Y296161D01*
X179027Y296184D01*
X179012Y296210D01*
X178922Y296303D01*
X178837Y296400D01*
X178812Y296417D01*
X178791Y296438D01*
X178680Y296506D01*
X178574Y296579D01*
X178545Y296589D01*
X178520Y296605D01*
X178396Y296643D01*
X178275Y296686D01*
X178245Y296689D01*
X178216Y296698D01*
X178087Y296704D01*
X177958Y296717D01*
X177928Y296712D01*
X177898Y296713D01*
X177772Y296687D01*
X177644Y296667D01*
X177616Y296655D01*
X177587Y296649D01*
X177470Y296592D01*
X177352Y296541D01*
X177328Y296523D01*
X177301Y296509D01*
X177203Y296425D01*
X177100Y296346D01*
X177082Y296323D01*
X177059Y296303D01*
X176985Y296197D01*
X176905Y296095D01*
X176893Y296068D01*
X176876Y296043D01*
X176830Y295922D01*
X176779Y295803D01*
X176769Y295761D01*
X176763Y295746D01*
X176761Y295724D01*
X176746Y295659D01*
X176164Y293867D01*
X175311Y292193D01*
X174206Y290672D01*
X172878Y289344D01*
X171357Y288239D01*
X169683Y287386D01*
X167896Y286805D01*
X167639Y286765D01*
X167639Y297180D01*
X167624Y297298D01*
X167617Y297417D01*
X167604Y297455D01*
X167599Y297495D01*
X167556Y297606D01*
X167519Y297719D01*
X167497Y297753D01*
X167482Y297791D01*
X167412Y297887D01*
X167349Y297988D01*
X167319Y298016D01*
X167295Y298048D01*
X167204Y298124D01*
X167117Y298206D01*
X167082Y298225D01*
X167051Y298251D01*
X166943Y298302D01*
X166839Y298359D01*
X166799Y298370D01*
X166763Y298387D01*
X166646Y298409D01*
X166531Y298439D01*
X166470Y298443D01*
X166450Y298447D01*
X166430Y298445D01*
X166370Y298449D01*
X163830Y298449D01*
X163712Y298434D01*
X163593Y298427D01*
X163555Y298414D01*
X163514Y298409D01*
X163404Y298365D01*
X163291Y298329D01*
X163256Y298307D01*
X163219Y298292D01*
X163123Y298222D01*
X163022Y298159D01*
X162994Y298129D01*
X162961Y298105D01*
X162886Y298014D01*
X162804Y297927D01*
X162784Y297892D01*
X162759Y297860D01*
X162708Y297753D01*
X162650Y297648D01*
X162640Y297609D01*
X162623Y297573D01*
X162601Y297456D01*
X162571Y297341D01*
X162567Y297280D01*
X162563Y297260D01*
X162565Y297240D01*
X162561Y297180D01*
X162561Y286765D01*
X162304Y286805D01*
X160517Y287386D01*
X158843Y288239D01*
X157322Y289344D01*
X155994Y290672D01*
X154889Y292193D01*
X154036Y293867D01*
X153446Y295684D01*
X153421Y295770D01*
X153390Y295896D01*
X153376Y295923D01*
X153368Y295952D01*
X153302Y296063D01*
X153242Y296177D01*
X153221Y296200D01*
X153206Y296226D01*
X153115Y296317D01*
X153028Y296413D01*
X153003Y296429D01*
X152981Y296450D01*
X152870Y296516D01*
X152762Y296587D01*
X152733Y296597D01*
X152708Y296613D01*
X152584Y296649D01*
X152461Y296691D01*
X152431Y296693D01*
X152402Y296701D01*
X152273Y296706D01*
X152144Y296716D01*
X152114Y296711D01*
X152084Y296712D01*
X151958Y296684D01*
X151831Y296661D01*
X151803Y296649D01*
X151774Y296643D01*
X151659Y296584D01*
X151541Y296531D01*
X151517Y296512D01*
X151490Y296498D01*
X151394Y296413D01*
X151292Y296332D01*
X151274Y296308D01*
X151252Y296288D01*
X151179Y296182D01*
X151101Y296078D01*
X151082Y296040D01*
X151073Y296026D01*
X151065Y296005D01*
X151030Y295934D01*
X149391Y291975D01*
X146175Y288759D01*
X141974Y287019D01*
X137426Y287019D01*
X133225Y288759D01*
X130009Y291975D01*
X128269Y296176D01*
X128269Y300724D01*
X130009Y304925D01*
X133225Y308141D01*
X137426Y309881D01*
X141974Y309881D01*
X146175Y308141D01*
X149391Y304925D01*
X151030Y300966D01*
X151094Y300854D01*
X151153Y300739D01*
X151173Y300716D01*
X151188Y300690D01*
X151278Y300597D01*
X151363Y300500D01*
X151388Y300483D01*
X151409Y300462D01*
X151520Y300394D01*
X151626Y300321D01*
X151655Y300311D01*
X151680Y300295D01*
X151804Y300257D01*
X151925Y300214D01*
X151955Y300211D01*
X151984Y300202D01*
X152113Y300196D01*
X152242Y300183D01*
X152272Y300188D01*
X152302Y300187D01*
X152428Y300213D01*
X152556Y300233D01*
X152584Y300245D01*
X152613Y300251D01*
X152730Y300308D01*
X152848Y300359D01*
X152872Y300377D01*
X152899Y300391D01*
X152997Y300475D01*
X153100Y300554D01*
X153118Y300577D01*
X153141Y300597D01*
X153215Y300703D01*
X153295Y300805D01*
X153307Y300832D01*
X153324Y300857D01*
X153370Y300978D01*
X153421Y301097D01*
X153431Y301138D01*
X153437Y301154D01*
X153439Y301176D01*
X153454Y301241D01*
X154036Y303033D01*
X154889Y304707D01*
X155994Y306228D01*
X157322Y307556D01*
X158843Y308661D01*
X160517Y309514D01*
X161837Y309943D01*
X161909Y309977D01*
X161985Y310001D01*
X162052Y310044D01*
X162125Y310078D01*
X162186Y310129D01*
X162253Y310172D01*
X162308Y310230D01*
X162370Y310281D01*
X162417Y310345D01*
X162471Y310403D01*
X162510Y310473D01*
X162557Y310538D01*
X162561Y310548D01*
X162561Y299720D01*
X162576Y299602D01*
X162583Y299483D01*
X162596Y299445D01*
X162601Y299405D01*
X162644Y299294D01*
X162681Y299181D01*
X162703Y299147D01*
X162718Y299109D01*
X162788Y299013D01*
X162851Y298912D01*
X162881Y298884D01*
X162904Y298852D01*
X162996Y298776D01*
X163083Y298694D01*
X163118Y298675D01*
X163149Y298649D01*
X163257Y298598D01*
X163361Y298541D01*
X163401Y298530D01*
X163437Y298513D01*
X163554Y298491D01*
X163669Y298461D01*
X163730Y298457D01*
X163750Y298453D01*
X163770Y298455D01*
X163830Y298451D01*
X166370Y298451D01*
X166488Y298466D01*
X166607Y298473D01*
X166645Y298486D01*
X166685Y298491D01*
X166796Y298535D01*
X166909Y298571D01*
X166944Y298593D01*
X166981Y298608D01*
X167077Y298678D01*
X167178Y298741D01*
X167206Y298771D01*
X167239Y298795D01*
X167314Y298886D01*
X167396Y298973D01*
X167416Y299008D01*
X167441Y299040D01*
X167492Y299147D01*
X167550Y299252D01*
X167560Y299291D01*
X167577Y299327D01*
X167599Y299444D01*
X167629Y299559D01*
X167633Y299620D01*
X167637Y299640D01*
X167635Y299660D01*
X167639Y299720D01*
X167639Y310548D01*
X167643Y310539D01*
X167689Y310475D01*
X167728Y310405D01*
X167782Y310347D01*
X167829Y310282D01*
X167891Y310231D01*
X167945Y310173D01*
X168013Y310130D01*
X168074Y310079D01*
X168146Y310045D01*
X168213Y310002D01*
X168360Y309944D01*
X168362Y309943D01*
X168363Y309943D01*
X169683Y309514D01*
X171357Y308661D01*
X172878Y307556D01*
X174206Y306228D01*
X175311Y304707D01*
X176164Y303033D01*
X176754Y301216D01*
X176779Y301130D01*
X176810Y301004D01*
X176824Y300977D01*
X176832Y300948D01*
X176898Y300837D01*
X176958Y300723D01*
X176979Y300700D01*
X176994Y300674D01*
X177085Y300583D01*
X177172Y300487D01*
X177197Y300471D01*
X177219Y300450D01*
X177330Y300384D01*
X177438Y300313D01*
X177467Y300303D01*
X177492Y300287D01*
X177616Y300251D01*
X177739Y300209D01*
X177769Y300207D01*
X177798Y300199D01*
X177927Y300194D01*
X178056Y300184D01*
X178086Y300189D01*
X178116Y300188D01*
X178242Y300216D01*
X178369Y300239D01*
X178397Y300251D01*
X178426Y300257D01*
X178541Y300316D01*
X178659Y300369D01*
X178683Y300388D01*
X178710Y300402D01*
X178806Y300487D01*
X178908Y300568D01*
X178926Y300592D01*
X178948Y300612D01*
X179021Y300718D01*
X179099Y300822D01*
X179118Y300860D01*
X179127Y300874D01*
X179135Y300895D01*
X179170Y300966D01*
X180809Y304925D01*
X184025Y308141D01*
X188226Y309881D01*
X192774Y309881D01*
X196975Y308141D01*
X200191Y304925D01*
X201931Y300724D01*
X201931Y296176D01*
X200191Y291975D01*
X196975Y288759D01*
X192774Y287019D01*
X188226Y287019D01*
X185838Y288009D01*
X185809Y288016D01*
X185783Y288030D01*
X185656Y288058D01*
X185531Y288093D01*
X185501Y288093D01*
X185473Y288100D01*
X185343Y288096D01*
X185213Y288098D01*
X185184Y288091D01*
X185155Y288090D01*
X185030Y288054D01*
X184904Y288024D01*
X184877Y288010D01*
X184849Y288002D01*
X184737Y287936D01*
X184622Y287875D01*
X184601Y287855D01*
X184575Y287840D01*
X184454Y287734D01*
X143979Y247258D01*
X143906Y247164D01*
X143827Y247075D01*
X143809Y247039D01*
X143784Y247007D01*
X143737Y246898D01*
X143683Y246792D01*
X143674Y246752D01*
X143658Y246715D01*
X143639Y246598D01*
X143613Y246482D01*
X143614Y246441D01*
X143608Y246401D01*
X143619Y246283D01*
X143623Y246164D01*
X143634Y246125D01*
X143638Y246085D01*
X143678Y245972D01*
X143711Y245858D01*
X143732Y245823D01*
X143745Y245785D01*
X143812Y245687D01*
X143873Y245584D01*
X143913Y245539D01*
X143924Y245522D01*
X143939Y245509D01*
X143979Y245463D01*
X144761Y244682D01*
X145670Y242487D01*
X145670Y240113D01*
X144761Y237918D01*
X143082Y236239D01*
X140887Y235330D01*
X138513Y235330D01*
G37*
%LPD*%
%LPC*%
G36*
X75013Y209930D02*
X75013Y209930D01*
X72818Y210839D01*
X71139Y212518D01*
X70230Y214713D01*
X70230Y217087D01*
X71139Y219282D01*
X72526Y220668D01*
X72586Y220746D01*
X72654Y220818D01*
X72683Y220871D01*
X72720Y220919D01*
X72760Y221010D01*
X72808Y221097D01*
X72823Y221155D01*
X72847Y221211D01*
X72862Y221309D01*
X72887Y221405D01*
X72893Y221505D01*
X72897Y221525D01*
X72895Y221537D01*
X72897Y221565D01*
X72897Y235048D01*
X75204Y237354D01*
X81327Y243477D01*
X81412Y243587D01*
X81500Y243694D01*
X81509Y243713D01*
X81521Y243729D01*
X81577Y243857D01*
X81636Y243982D01*
X81640Y244002D01*
X81648Y244020D01*
X81670Y244158D01*
X81696Y244294D01*
X81694Y244314D01*
X81698Y244334D01*
X81685Y244474D01*
X81676Y244612D01*
X81670Y244631D01*
X81668Y244651D01*
X81621Y244782D01*
X81578Y244914D01*
X81567Y244931D01*
X81560Y244950D01*
X81482Y245065D01*
X81408Y245183D01*
X81393Y245197D01*
X81382Y245214D01*
X81277Y245306D01*
X81176Y245401D01*
X81158Y245411D01*
X81143Y245424D01*
X81019Y245487D01*
X80898Y245554D01*
X80878Y245559D01*
X80860Y245569D01*
X80724Y245599D01*
X80590Y245634D01*
X80562Y245636D01*
X80550Y245638D01*
X80529Y245638D01*
X80429Y245644D01*
X78976Y245644D01*
X76782Y246553D01*
X75103Y248232D01*
X74194Y250426D01*
X74194Y252801D01*
X75103Y254995D01*
X76782Y256675D01*
X78976Y257583D01*
X79859Y257583D01*
X79958Y257596D01*
X80057Y257599D01*
X80115Y257616D01*
X80175Y257623D01*
X80267Y257660D01*
X80362Y257687D01*
X80414Y257718D01*
X80471Y257740D01*
X80551Y257798D01*
X80636Y257849D01*
X80711Y257915D01*
X80728Y257927D01*
X80736Y257937D01*
X80757Y257955D01*
X90814Y268012D01*
X90874Y268090D01*
X90942Y268162D01*
X90971Y268215D01*
X91008Y268263D01*
X91048Y268354D01*
X91096Y268441D01*
X91111Y268499D01*
X91135Y268555D01*
X91150Y268653D01*
X91175Y268749D01*
X91181Y268849D01*
X91185Y268869D01*
X91183Y268881D01*
X91185Y268909D01*
X91185Y286913D01*
X91182Y286942D01*
X91184Y286972D01*
X91162Y287100D01*
X91145Y287229D01*
X91135Y287256D01*
X91130Y287285D01*
X91076Y287404D01*
X91028Y287524D01*
X91011Y287548D01*
X90999Y287575D01*
X90918Y287676D01*
X90842Y287782D01*
X90819Y287800D01*
X90800Y287823D01*
X90697Y287901D01*
X90597Y287984D01*
X90570Y287997D01*
X90546Y288015D01*
X90402Y288086D01*
X88775Y288759D01*
X85559Y291975D01*
X83819Y296176D01*
X83819Y300724D01*
X85559Y304925D01*
X88775Y308141D01*
X92734Y309780D01*
X92846Y309844D01*
X92961Y309903D01*
X92984Y309923D01*
X93010Y309938D01*
X93103Y310028D01*
X93200Y310113D01*
X93217Y310138D01*
X93238Y310159D01*
X93306Y310270D01*
X93379Y310376D01*
X93389Y310405D01*
X93405Y310430D01*
X93443Y310554D01*
X93486Y310675D01*
X93489Y310705D01*
X93498Y310734D01*
X93504Y310863D01*
X93517Y310992D01*
X93512Y311022D01*
X93513Y311052D01*
X93487Y311178D01*
X93467Y311306D01*
X93455Y311334D01*
X93449Y311363D01*
X93392Y311480D01*
X93341Y311598D01*
X93323Y311622D01*
X93309Y311649D01*
X93225Y311747D01*
X93146Y311850D01*
X93123Y311868D01*
X93103Y311891D01*
X92997Y311965D01*
X92895Y312045D01*
X92868Y312057D01*
X92843Y312074D01*
X92722Y312120D01*
X92603Y312171D01*
X92562Y312181D01*
X92546Y312187D01*
X92524Y312189D01*
X92459Y312204D01*
X90667Y312786D01*
X88993Y313639D01*
X87472Y314744D01*
X86144Y316072D01*
X85039Y317593D01*
X84186Y319267D01*
X83605Y321054D01*
X83565Y321311D01*
X93980Y321311D01*
X94098Y321326D01*
X94217Y321333D01*
X94255Y321346D01*
X94295Y321351D01*
X94406Y321394D01*
X94519Y321431D01*
X94553Y321453D01*
X94591Y321468D01*
X94687Y321538D01*
X94788Y321601D01*
X94816Y321631D01*
X94848Y321654D01*
X94924Y321746D01*
X95006Y321833D01*
X95025Y321868D01*
X95051Y321899D01*
X95102Y322007D01*
X95159Y322111D01*
X95170Y322151D01*
X95187Y322187D01*
X95209Y322304D01*
X95239Y322419D01*
X95243Y322480D01*
X95247Y322500D01*
X95245Y322520D01*
X95249Y322580D01*
X95249Y323851D01*
X95251Y323851D01*
X95251Y322580D01*
X95266Y322462D01*
X95273Y322343D01*
X95286Y322305D01*
X95291Y322264D01*
X95335Y322154D01*
X95371Y322041D01*
X95393Y322006D01*
X95408Y321969D01*
X95478Y321873D01*
X95541Y321772D01*
X95571Y321744D01*
X95595Y321711D01*
X95686Y321636D01*
X95773Y321554D01*
X95808Y321534D01*
X95840Y321509D01*
X95947Y321458D01*
X96052Y321400D01*
X96091Y321390D01*
X96127Y321373D01*
X96244Y321351D01*
X96359Y321321D01*
X96420Y321317D01*
X96440Y321313D01*
X96460Y321315D01*
X96520Y321311D01*
X106935Y321311D01*
X106895Y321054D01*
X106314Y319267D01*
X105461Y317593D01*
X104356Y316072D01*
X103028Y314744D01*
X101507Y313639D01*
X99833Y312786D01*
X98016Y312196D01*
X97930Y312171D01*
X97804Y312140D01*
X97777Y312126D01*
X97748Y312118D01*
X97637Y312052D01*
X97523Y311992D01*
X97500Y311971D01*
X97474Y311956D01*
X97383Y311865D01*
X97287Y311778D01*
X97271Y311753D01*
X97250Y311731D01*
X97184Y311620D01*
X97113Y311512D01*
X97103Y311483D01*
X97087Y311458D01*
X97051Y311334D01*
X97009Y311211D01*
X97007Y311181D01*
X96999Y311152D01*
X96994Y311023D01*
X96984Y310894D01*
X96989Y310864D01*
X96988Y310834D01*
X97016Y310708D01*
X97039Y310581D01*
X97051Y310553D01*
X97057Y310524D01*
X97116Y310409D01*
X97169Y310291D01*
X97188Y310267D01*
X97202Y310240D01*
X97287Y310144D01*
X97368Y310042D01*
X97392Y310024D01*
X97412Y310002D01*
X97518Y309929D01*
X97622Y309851D01*
X97660Y309832D01*
X97674Y309823D01*
X97695Y309815D01*
X97766Y309780D01*
X101725Y308141D01*
X104941Y304925D01*
X106681Y300724D01*
X106681Y296176D01*
X104941Y291975D01*
X101725Y288759D01*
X100098Y288086D01*
X100073Y288071D01*
X100045Y288062D01*
X99935Y287992D01*
X99822Y287928D01*
X99801Y287908D01*
X99776Y287892D01*
X99687Y287797D01*
X99594Y287707D01*
X99578Y287682D01*
X99558Y287660D01*
X99495Y287547D01*
X99427Y287436D01*
X99419Y287408D01*
X99404Y287382D01*
X99372Y287256D01*
X99334Y287132D01*
X99332Y287102D01*
X99325Y287074D01*
X99315Y286913D01*
X99315Y265049D01*
X99330Y264931D01*
X99337Y264812D01*
X99350Y264774D01*
X99355Y264733D01*
X99398Y264623D01*
X99435Y264510D01*
X99457Y264475D01*
X99472Y264438D01*
X99541Y264342D01*
X99605Y264241D01*
X99635Y264213D01*
X99658Y264180D01*
X99750Y264104D01*
X99837Y264023D01*
X99872Y264003D01*
X99903Y263978D01*
X100011Y263927D01*
X100115Y263869D01*
X100155Y263859D01*
X100191Y263842D01*
X100308Y263820D01*
X100423Y263790D01*
X100483Y263786D01*
X100503Y263782D01*
X100524Y263784D01*
X100584Y263780D01*
X101517Y263780D01*
X103712Y262871D01*
X105391Y261192D01*
X106300Y258997D01*
X106300Y256623D01*
X105391Y254428D01*
X103712Y252749D01*
X101517Y251840D01*
X99557Y251840D01*
X99459Y251828D01*
X99360Y251825D01*
X99301Y251808D01*
X99241Y251800D01*
X99149Y251764D01*
X99054Y251736D01*
X99002Y251706D01*
X98946Y251683D01*
X98866Y251625D01*
X98780Y251575D01*
X98705Y251509D01*
X98688Y251497D01*
X98680Y251487D01*
X98659Y251469D01*
X79874Y232684D01*
X79814Y232605D01*
X79746Y232533D01*
X79717Y232480D01*
X79680Y232432D01*
X79640Y232341D01*
X79592Y232255D01*
X79577Y232196D01*
X79553Y232141D01*
X79538Y232043D01*
X79513Y231947D01*
X79507Y231847D01*
X79503Y231826D01*
X79505Y231814D01*
X79503Y231786D01*
X79503Y221565D01*
X79515Y221467D01*
X79518Y221368D01*
X79535Y221310D01*
X79543Y221250D01*
X79579Y221158D01*
X79607Y221063D01*
X79637Y221011D01*
X79660Y220954D01*
X79718Y220874D01*
X79768Y220789D01*
X79834Y220713D01*
X79846Y220697D01*
X79856Y220689D01*
X79874Y220668D01*
X81261Y219282D01*
X82170Y217087D01*
X82170Y214713D01*
X81261Y212518D01*
X79582Y210839D01*
X77387Y209930D01*
X75013Y209930D01*
G37*
%LPD*%
%LPC*%
G36*
X200743Y223900D02*
X200743Y223900D01*
X198548Y224809D01*
X196869Y226488D01*
X195960Y228683D01*
X195960Y231057D01*
X196869Y233252D01*
X198548Y234931D01*
X200743Y235840D01*
X202703Y235840D01*
X202801Y235852D01*
X202900Y235855D01*
X202959Y235872D01*
X203019Y235880D01*
X203111Y235916D01*
X203206Y235944D01*
X203258Y235974D01*
X203314Y235997D01*
X203394Y236055D01*
X203480Y236105D01*
X203555Y236171D01*
X203572Y236183D01*
X203580Y236193D01*
X203601Y236211D01*
X208416Y241026D01*
X208476Y241105D01*
X208544Y241177D01*
X208573Y241230D01*
X208610Y241278D01*
X208650Y241369D01*
X208698Y241455D01*
X208713Y241514D01*
X208737Y241569D01*
X208752Y241667D01*
X208777Y241763D01*
X208783Y241863D01*
X208787Y241884D01*
X208785Y241896D01*
X208787Y241924D01*
X208787Y250875D01*
X208775Y250973D01*
X208772Y251072D01*
X208755Y251130D01*
X208747Y251190D01*
X208711Y251282D01*
X208683Y251377D01*
X208653Y251429D01*
X208630Y251486D01*
X208572Y251566D01*
X208522Y251651D01*
X208456Y251727D01*
X208444Y251743D01*
X208434Y251751D01*
X208416Y251772D01*
X207029Y253158D01*
X206120Y255353D01*
X206120Y257727D01*
X207029Y259922D01*
X208708Y261601D01*
X210903Y262510D01*
X213277Y262510D01*
X215472Y261601D01*
X216858Y260214D01*
X216936Y260154D01*
X217008Y260086D01*
X217061Y260057D01*
X217109Y260020D01*
X217200Y259980D01*
X217287Y259932D01*
X217345Y259917D01*
X217401Y259893D01*
X217499Y259878D01*
X217595Y259853D01*
X217695Y259847D01*
X217715Y259843D01*
X217727Y259845D01*
X217755Y259843D01*
X244486Y259843D01*
X244584Y259855D01*
X244683Y259858D01*
X244742Y259875D01*
X244802Y259883D01*
X244894Y259919D01*
X244989Y259947D01*
X245041Y259977D01*
X245097Y260000D01*
X245177Y260058D01*
X245263Y260108D01*
X245338Y260174D01*
X245355Y260186D01*
X245363Y260196D01*
X245384Y260214D01*
X257819Y272649D01*
X257879Y272728D01*
X257947Y272800D01*
X257976Y272853D01*
X258013Y272901D01*
X258053Y272992D01*
X258101Y273078D01*
X258116Y273137D01*
X258140Y273192D01*
X258155Y273290D01*
X258180Y273386D01*
X258186Y273486D01*
X258190Y273507D01*
X258188Y273519D01*
X258190Y273547D01*
X258190Y275507D01*
X259099Y277702D01*
X260778Y279381D01*
X262973Y280290D01*
X265347Y280290D01*
X267542Y279381D01*
X268928Y277994D01*
X269006Y277934D01*
X269078Y277866D01*
X269131Y277837D01*
X269179Y277800D01*
X269270Y277760D01*
X269357Y277712D01*
X269415Y277697D01*
X269471Y277673D01*
X269569Y277658D01*
X269665Y277633D01*
X269765Y277627D01*
X269785Y277623D01*
X269797Y277625D01*
X269825Y277623D01*
X309256Y277623D01*
X309354Y277635D01*
X309453Y277638D01*
X309512Y277655D01*
X309572Y277663D01*
X309664Y277699D01*
X309759Y277727D01*
X309811Y277757D01*
X309867Y277780D01*
X309947Y277838D01*
X310033Y277888D01*
X310108Y277954D01*
X310125Y277966D01*
X310133Y277976D01*
X310154Y277994D01*
X311018Y278858D01*
X311078Y278937D01*
X311146Y279009D01*
X311175Y279062D01*
X311213Y279110D01*
X311252Y279201D01*
X311300Y279287D01*
X311315Y279346D01*
X311339Y279402D01*
X311354Y279500D01*
X311379Y279595D01*
X311386Y279695D01*
X311389Y279716D01*
X311388Y279728D01*
X311389Y279756D01*
X311389Y281717D01*
X312298Y283911D01*
X313826Y285438D01*
X313886Y285516D01*
X313954Y285588D01*
X313983Y285641D01*
X314020Y285689D01*
X314060Y285780D01*
X314108Y285867D01*
X314123Y285925D01*
X314147Y285981D01*
X314162Y286079D01*
X314187Y286175D01*
X314193Y286275D01*
X314197Y286295D01*
X314195Y286307D01*
X314197Y286335D01*
X314197Y305485D01*
X314185Y305583D01*
X314182Y305682D01*
X314165Y305740D01*
X314157Y305800D01*
X314121Y305892D01*
X314093Y305987D01*
X314063Y306039D01*
X314040Y306096D01*
X313982Y306176D01*
X313932Y306261D01*
X313866Y306337D01*
X313854Y306353D01*
X313844Y306361D01*
X313826Y306382D01*
X312439Y307768D01*
X311530Y309963D01*
X311530Y312337D01*
X312439Y314532D01*
X314118Y316211D01*
X316313Y317120D01*
X318687Y317120D01*
X320882Y316211D01*
X322561Y314532D01*
X323470Y312337D01*
X323470Y309963D01*
X322561Y307768D01*
X321174Y306382D01*
X321114Y306304D01*
X321046Y306232D01*
X321017Y306179D01*
X320980Y306131D01*
X320940Y306040D01*
X320892Y305953D01*
X320877Y305895D01*
X320853Y305839D01*
X320838Y305741D01*
X320813Y305645D01*
X320807Y305545D01*
X320803Y305525D01*
X320805Y305513D01*
X320803Y305485D01*
X320803Y286054D01*
X320815Y285956D01*
X320818Y285857D01*
X320835Y285798D01*
X320843Y285738D01*
X320879Y285646D01*
X320907Y285551D01*
X320937Y285499D01*
X320960Y285443D01*
X321018Y285363D01*
X321068Y285277D01*
X321134Y285202D01*
X321146Y285185D01*
X321156Y285177D01*
X321174Y285156D01*
X322420Y283911D01*
X323329Y281717D01*
X323329Y279342D01*
X322420Y277148D01*
X320741Y275468D01*
X318547Y274559D01*
X316586Y274559D01*
X316488Y274547D01*
X316389Y274544D01*
X316331Y274527D01*
X316270Y274520D01*
X316178Y274483D01*
X316083Y274456D01*
X316031Y274425D01*
X315975Y274403D01*
X315895Y274344D01*
X315809Y274294D01*
X315734Y274228D01*
X315717Y274216D01*
X315710Y274206D01*
X315688Y274188D01*
X312518Y271017D01*
X269825Y271017D01*
X269727Y271005D01*
X269628Y271002D01*
X269570Y270985D01*
X269510Y270977D01*
X269418Y270941D01*
X269323Y270913D01*
X269271Y270883D01*
X269214Y270860D01*
X269134Y270802D01*
X269049Y270752D01*
X268973Y270686D01*
X268957Y270674D01*
X268949Y270664D01*
X268928Y270646D01*
X267542Y269259D01*
X265347Y268350D01*
X263387Y268350D01*
X263289Y268338D01*
X263190Y268335D01*
X263131Y268318D01*
X263071Y268310D01*
X262979Y268274D01*
X262884Y268246D01*
X262832Y268216D01*
X262776Y268193D01*
X262696Y268135D01*
X262610Y268085D01*
X262535Y268019D01*
X262518Y268007D01*
X262510Y267997D01*
X262489Y267979D01*
X247748Y253237D01*
X217755Y253237D01*
X217657Y253225D01*
X217558Y253222D01*
X217500Y253205D01*
X217440Y253197D01*
X217348Y253161D01*
X217253Y253133D01*
X217201Y253103D01*
X217144Y253080D01*
X217064Y253022D01*
X216979Y252972D01*
X216903Y252906D01*
X216887Y252894D01*
X216879Y252884D01*
X216858Y252866D01*
X215764Y251772D01*
X215704Y251694D01*
X215636Y251622D01*
X215607Y251569D01*
X215570Y251521D01*
X215530Y251430D01*
X215482Y251343D01*
X215467Y251285D01*
X215443Y251229D01*
X215428Y251131D01*
X215403Y251035D01*
X215397Y250935D01*
X215393Y250915D01*
X215395Y250903D01*
X215393Y250875D01*
X215393Y238662D01*
X208271Y231541D01*
X208211Y231462D01*
X208143Y231390D01*
X208114Y231337D01*
X208077Y231289D01*
X208037Y231198D01*
X207989Y231112D01*
X207974Y231053D01*
X207950Y230998D01*
X207935Y230900D01*
X207910Y230804D01*
X207904Y230704D01*
X207900Y230683D01*
X207902Y230671D01*
X207900Y230643D01*
X207900Y228683D01*
X206991Y226488D01*
X205312Y224809D01*
X203117Y223900D01*
X200743Y223900D01*
G37*
%LPD*%
%LPC*%
G36*
X167639Y322580D02*
X167639Y322580D01*
X167624Y322698D01*
X167617Y322817D01*
X167604Y322855D01*
X167599Y322895D01*
X167556Y323006D01*
X167519Y323119D01*
X167497Y323153D01*
X167482Y323191D01*
X167412Y323287D01*
X167349Y323388D01*
X167319Y323416D01*
X167295Y323448D01*
X167204Y323524D01*
X167117Y323606D01*
X167082Y323625D01*
X167051Y323651D01*
X166943Y323702D01*
X166839Y323759D01*
X166799Y323770D01*
X166763Y323787D01*
X166646Y323809D01*
X166531Y323839D01*
X166470Y323843D01*
X166450Y323847D01*
X166430Y323845D01*
X166370Y323849D01*
X163830Y323849D01*
X163712Y323834D01*
X163593Y323827D01*
X163555Y323814D01*
X163514Y323809D01*
X163404Y323765D01*
X163291Y323729D01*
X163256Y323707D01*
X163219Y323692D01*
X163123Y323622D01*
X163022Y323559D01*
X162994Y323529D01*
X162961Y323505D01*
X162886Y323414D01*
X162804Y323327D01*
X162784Y323292D01*
X162759Y323260D01*
X162708Y323153D01*
X162650Y323048D01*
X162640Y323009D01*
X162623Y322973D01*
X162601Y322856D01*
X162571Y322741D01*
X162567Y322680D01*
X162563Y322660D01*
X162565Y322640D01*
X162561Y322580D01*
X162561Y311752D01*
X162557Y311761D01*
X162511Y311825D01*
X162472Y311895D01*
X162418Y311953D01*
X162371Y312018D01*
X162309Y312069D01*
X162255Y312127D01*
X162187Y312170D01*
X162126Y312221D01*
X162054Y312255D01*
X161987Y312298D01*
X161840Y312356D01*
X161838Y312357D01*
X161837Y312357D01*
X160517Y312786D01*
X158843Y313639D01*
X157322Y314744D01*
X155994Y316072D01*
X154889Y317593D01*
X154036Y319267D01*
X153446Y321084D01*
X153421Y321170D01*
X153390Y321296D01*
X153376Y321323D01*
X153368Y321352D01*
X153302Y321463D01*
X153242Y321577D01*
X153221Y321600D01*
X153206Y321626D01*
X153115Y321717D01*
X153028Y321813D01*
X153003Y321829D01*
X152981Y321850D01*
X152870Y321916D01*
X152762Y321987D01*
X152733Y321997D01*
X152708Y322013D01*
X152584Y322049D01*
X152461Y322091D01*
X152431Y322093D01*
X152402Y322101D01*
X152273Y322106D01*
X152144Y322116D01*
X152114Y322111D01*
X152084Y322112D01*
X151958Y322084D01*
X151831Y322061D01*
X151803Y322049D01*
X151774Y322043D01*
X151659Y321984D01*
X151541Y321931D01*
X151517Y321912D01*
X151490Y321898D01*
X151394Y321813D01*
X151292Y321732D01*
X151274Y321708D01*
X151252Y321688D01*
X151179Y321582D01*
X151101Y321478D01*
X151082Y321440D01*
X151073Y321426D01*
X151065Y321405D01*
X151030Y321334D01*
X149391Y317375D01*
X146175Y314159D01*
X141974Y312419D01*
X137426Y312419D01*
X133225Y314159D01*
X130009Y317375D01*
X128269Y321576D01*
X128269Y326124D01*
X130009Y330325D01*
X133225Y333541D01*
X137426Y335281D01*
X141974Y335281D01*
X146175Y333541D01*
X149391Y330325D01*
X151030Y326366D01*
X151094Y326254D01*
X151153Y326139D01*
X151173Y326116D01*
X151188Y326090D01*
X151278Y325997D01*
X151363Y325900D01*
X151388Y325883D01*
X151409Y325862D01*
X151520Y325794D01*
X151626Y325721D01*
X151655Y325711D01*
X151680Y325695D01*
X151804Y325657D01*
X151925Y325614D01*
X151955Y325611D01*
X151984Y325602D01*
X152113Y325596D01*
X152242Y325583D01*
X152272Y325588D01*
X152302Y325587D01*
X152428Y325613D01*
X152556Y325633D01*
X152584Y325645D01*
X152613Y325651D01*
X152730Y325708D01*
X152848Y325759D01*
X152872Y325777D01*
X152899Y325791D01*
X152997Y325875D01*
X153100Y325954D01*
X153118Y325977D01*
X153141Y325997D01*
X153215Y326103D01*
X153295Y326205D01*
X153307Y326232D01*
X153324Y326257D01*
X153370Y326378D01*
X153421Y326497D01*
X153431Y326538D01*
X153437Y326554D01*
X153439Y326576D01*
X153454Y326641D01*
X154036Y328433D01*
X154889Y330107D01*
X155994Y331628D01*
X157322Y332956D01*
X158843Y334061D01*
X160517Y334914D01*
X162304Y335495D01*
X162561Y335535D01*
X162561Y325120D01*
X162576Y325002D01*
X162583Y324883D01*
X162596Y324845D01*
X162601Y324805D01*
X162644Y324694D01*
X162681Y324581D01*
X162703Y324547D01*
X162718Y324509D01*
X162788Y324413D01*
X162851Y324312D01*
X162881Y324284D01*
X162904Y324252D01*
X162996Y324176D01*
X163083Y324094D01*
X163118Y324075D01*
X163149Y324049D01*
X163257Y323998D01*
X163361Y323941D01*
X163401Y323930D01*
X163437Y323913D01*
X163554Y323891D01*
X163669Y323861D01*
X163730Y323857D01*
X163750Y323853D01*
X163770Y323855D01*
X163830Y323851D01*
X166370Y323851D01*
X166488Y323866D01*
X166607Y323873D01*
X166645Y323886D01*
X166685Y323891D01*
X166796Y323935D01*
X166909Y323971D01*
X166944Y323993D01*
X166981Y324008D01*
X167077Y324078D01*
X167178Y324141D01*
X167206Y324171D01*
X167239Y324195D01*
X167314Y324286D01*
X167396Y324373D01*
X167416Y324408D01*
X167441Y324440D01*
X167492Y324547D01*
X167550Y324652D01*
X167560Y324691D01*
X167577Y324727D01*
X167599Y324844D01*
X167629Y324959D01*
X167633Y325020D01*
X167637Y325040D01*
X167635Y325060D01*
X167639Y325120D01*
X167639Y335535D01*
X167896Y335495D01*
X169683Y334914D01*
X171357Y334061D01*
X172878Y332956D01*
X174206Y331628D01*
X175311Y330107D01*
X176164Y328433D01*
X176754Y326616D01*
X176779Y326530D01*
X176810Y326404D01*
X176824Y326377D01*
X176832Y326348D01*
X176898Y326237D01*
X176958Y326123D01*
X176979Y326100D01*
X176994Y326074D01*
X177085Y325983D01*
X177172Y325887D01*
X177197Y325871D01*
X177219Y325850D01*
X177330Y325784D01*
X177438Y325713D01*
X177467Y325703D01*
X177492Y325687D01*
X177616Y325651D01*
X177739Y325609D01*
X177769Y325607D01*
X177798Y325599D01*
X177927Y325594D01*
X178056Y325584D01*
X178086Y325589D01*
X178116Y325588D01*
X178242Y325616D01*
X178369Y325639D01*
X178397Y325651D01*
X178426Y325657D01*
X178541Y325716D01*
X178659Y325769D01*
X178683Y325788D01*
X178710Y325802D01*
X178806Y325887D01*
X178908Y325968D01*
X178926Y325992D01*
X178948Y326012D01*
X179021Y326118D01*
X179099Y326222D01*
X179118Y326260D01*
X179127Y326274D01*
X179135Y326295D01*
X179170Y326366D01*
X180809Y330325D01*
X184025Y333541D01*
X188226Y335281D01*
X192774Y335281D01*
X196975Y333541D01*
X200191Y330325D01*
X201931Y326124D01*
X201931Y321576D01*
X200191Y317375D01*
X196975Y314159D01*
X192774Y312419D01*
X188226Y312419D01*
X184025Y314159D01*
X180809Y317375D01*
X179170Y321334D01*
X179106Y321446D01*
X179047Y321561D01*
X179027Y321584D01*
X179012Y321610D01*
X178922Y321703D01*
X178837Y321800D01*
X178812Y321817D01*
X178791Y321838D01*
X178680Y321906D01*
X178574Y321979D01*
X178545Y321989D01*
X178520Y322005D01*
X178396Y322043D01*
X178275Y322086D01*
X178245Y322089D01*
X178216Y322098D01*
X178087Y322104D01*
X177958Y322117D01*
X177928Y322112D01*
X177898Y322113D01*
X177772Y322087D01*
X177644Y322067D01*
X177616Y322055D01*
X177587Y322049D01*
X177470Y321992D01*
X177352Y321941D01*
X177328Y321923D01*
X177301Y321909D01*
X177203Y321825D01*
X177100Y321746D01*
X177082Y321723D01*
X177059Y321703D01*
X176985Y321597D01*
X176905Y321495D01*
X176893Y321468D01*
X176876Y321443D01*
X176830Y321322D01*
X176779Y321203D01*
X176769Y321162D01*
X176763Y321146D01*
X176761Y321124D01*
X176746Y321059D01*
X176164Y319267D01*
X175311Y317593D01*
X174206Y316072D01*
X172878Y314744D01*
X171357Y313639D01*
X169683Y312786D01*
X168363Y312357D01*
X168291Y312323D01*
X168215Y312299D01*
X168148Y312256D01*
X168075Y312222D01*
X168014Y312171D01*
X167947Y312128D01*
X167892Y312070D01*
X167830Y312019D01*
X167783Y311955D01*
X167729Y311897D01*
X167690Y311826D01*
X167643Y311762D01*
X167639Y311752D01*
X167639Y322580D01*
G37*
%LPD*%
%LPC*%
G36*
X199389Y68580D02*
X199389Y68580D01*
X199374Y68698D01*
X199367Y68817D01*
X199354Y68855D01*
X199349Y68895D01*
X199306Y69006D01*
X199269Y69119D01*
X199247Y69153D01*
X199232Y69191D01*
X199162Y69287D01*
X199099Y69388D01*
X199069Y69416D01*
X199045Y69448D01*
X198954Y69524D01*
X198867Y69606D01*
X198832Y69625D01*
X198801Y69651D01*
X198693Y69702D01*
X198589Y69759D01*
X198549Y69770D01*
X198513Y69787D01*
X198396Y69809D01*
X198281Y69839D01*
X198220Y69843D01*
X198200Y69847D01*
X198180Y69845D01*
X198120Y69849D01*
X195580Y69849D01*
X195462Y69834D01*
X195343Y69827D01*
X195305Y69814D01*
X195264Y69809D01*
X195154Y69765D01*
X195041Y69729D01*
X195006Y69707D01*
X194969Y69692D01*
X194873Y69622D01*
X194772Y69559D01*
X194744Y69529D01*
X194711Y69505D01*
X194636Y69414D01*
X194554Y69327D01*
X194534Y69292D01*
X194509Y69260D01*
X194458Y69153D01*
X194400Y69048D01*
X194390Y69009D01*
X194373Y68973D01*
X194351Y68856D01*
X194321Y68741D01*
X194317Y68680D01*
X194313Y68660D01*
X194315Y68640D01*
X194311Y68580D01*
X194311Y58165D01*
X194054Y58205D01*
X192267Y58786D01*
X190593Y59639D01*
X189072Y60744D01*
X187744Y62072D01*
X186639Y63593D01*
X185786Y65267D01*
X185196Y67084D01*
X185170Y67170D01*
X185140Y67296D01*
X185126Y67323D01*
X185118Y67352D01*
X185052Y67463D01*
X184992Y67577D01*
X184971Y67600D01*
X184956Y67626D01*
X184865Y67717D01*
X184778Y67813D01*
X184753Y67829D01*
X184731Y67851D01*
X184620Y67916D01*
X184512Y67987D01*
X184483Y67997D01*
X184458Y68013D01*
X184334Y68049D01*
X184211Y68091D01*
X184181Y68093D01*
X184152Y68101D01*
X184023Y68106D01*
X183894Y68116D01*
X183864Y68111D01*
X183834Y68112D01*
X183708Y68084D01*
X183581Y68061D01*
X183553Y68049D01*
X183524Y68042D01*
X183409Y67984D01*
X183291Y67931D01*
X183267Y67912D01*
X183240Y67898D01*
X183143Y67813D01*
X183042Y67732D01*
X183024Y67708D01*
X183002Y67688D01*
X182929Y67581D01*
X182851Y67478D01*
X182832Y67439D01*
X182823Y67425D01*
X182815Y67405D01*
X182780Y67334D01*
X181141Y63375D01*
X177925Y60159D01*
X173724Y58419D01*
X169176Y58419D01*
X164975Y60159D01*
X161759Y63375D01*
X160019Y67576D01*
X160019Y72124D01*
X161759Y76325D01*
X164975Y79541D01*
X169176Y81281D01*
X173724Y81281D01*
X177925Y79541D01*
X181141Y76325D01*
X182780Y72366D01*
X182844Y72254D01*
X182903Y72139D01*
X182923Y72116D01*
X182938Y72090D01*
X183028Y71997D01*
X183113Y71900D01*
X183138Y71883D01*
X183159Y71862D01*
X183269Y71794D01*
X183376Y71721D01*
X183404Y71711D01*
X183430Y71695D01*
X183554Y71657D01*
X183675Y71614D01*
X183705Y71611D01*
X183734Y71602D01*
X183863Y71596D01*
X183992Y71583D01*
X184022Y71588D01*
X184052Y71587D01*
X184178Y71613D01*
X184306Y71633D01*
X184334Y71645D01*
X184363Y71651D01*
X184479Y71708D01*
X184598Y71759D01*
X184622Y71777D01*
X184649Y71791D01*
X184747Y71875D01*
X184849Y71954D01*
X184868Y71977D01*
X184891Y71997D01*
X184965Y72103D01*
X185045Y72205D01*
X185057Y72232D01*
X185074Y72257D01*
X185120Y72378D01*
X185171Y72497D01*
X185181Y72539D01*
X185187Y72554D01*
X185189Y72576D01*
X185204Y72641D01*
X185786Y74433D01*
X186639Y76107D01*
X187744Y77628D01*
X189072Y78956D01*
X190593Y80061D01*
X192267Y80914D01*
X194054Y81495D01*
X194311Y81535D01*
X194311Y71120D01*
X194326Y71002D01*
X194333Y70883D01*
X194346Y70845D01*
X194351Y70805D01*
X194394Y70694D01*
X194431Y70581D01*
X194453Y70547D01*
X194468Y70509D01*
X194538Y70413D01*
X194601Y70312D01*
X194631Y70284D01*
X194654Y70252D01*
X194746Y70176D01*
X194833Y70094D01*
X194868Y70075D01*
X194899Y70049D01*
X195007Y69998D01*
X195111Y69941D01*
X195151Y69930D01*
X195187Y69913D01*
X195304Y69891D01*
X195419Y69861D01*
X195480Y69857D01*
X195500Y69853D01*
X195520Y69855D01*
X195580Y69851D01*
X198120Y69851D01*
X198238Y69866D01*
X198357Y69873D01*
X198395Y69886D01*
X198435Y69891D01*
X198546Y69935D01*
X198659Y69971D01*
X198694Y69993D01*
X198731Y70008D01*
X198827Y70078D01*
X198928Y70141D01*
X198956Y70171D01*
X198989Y70195D01*
X199064Y70286D01*
X199146Y70373D01*
X199166Y70408D01*
X199191Y70440D01*
X199242Y70547D01*
X199300Y70652D01*
X199310Y70691D01*
X199327Y70727D01*
X199349Y70844D01*
X199379Y70959D01*
X199383Y71020D01*
X199387Y71040D01*
X199385Y71060D01*
X199389Y71120D01*
X199389Y81535D01*
X199646Y81495D01*
X201433Y80914D01*
X203107Y80061D01*
X204628Y78956D01*
X205956Y77628D01*
X207061Y76107D01*
X207914Y74433D01*
X208504Y72616D01*
X208529Y72530D01*
X208560Y72404D01*
X208574Y72377D01*
X208582Y72348D01*
X208648Y72237D01*
X208708Y72123D01*
X208729Y72100D01*
X208744Y72074D01*
X208835Y71983D01*
X208922Y71887D01*
X208947Y71871D01*
X208969Y71850D01*
X209080Y71784D01*
X209188Y71713D01*
X209217Y71703D01*
X209242Y71687D01*
X209366Y71651D01*
X209489Y71609D01*
X209519Y71607D01*
X209548Y71599D01*
X209677Y71594D01*
X209806Y71584D01*
X209836Y71589D01*
X209866Y71588D01*
X209992Y71616D01*
X210119Y71639D01*
X210147Y71651D01*
X210176Y71657D01*
X210291Y71716D01*
X210409Y71769D01*
X210433Y71788D01*
X210460Y71802D01*
X210556Y71887D01*
X210658Y71968D01*
X210676Y71992D01*
X210698Y72012D01*
X210771Y72118D01*
X210849Y72222D01*
X210868Y72260D01*
X210877Y72274D01*
X210885Y72295D01*
X210920Y72366D01*
X212559Y76325D01*
X215775Y79541D01*
X219976Y81281D01*
X224524Y81281D01*
X228725Y79541D01*
X231941Y76325D01*
X233681Y72124D01*
X233681Y67576D01*
X231941Y63375D01*
X228725Y60159D01*
X224524Y58419D01*
X219976Y58419D01*
X215775Y60159D01*
X212559Y63375D01*
X210920Y67334D01*
X210856Y67446D01*
X210797Y67561D01*
X210777Y67584D01*
X210762Y67610D01*
X210672Y67703D01*
X210587Y67800D01*
X210562Y67817D01*
X210541Y67838D01*
X210430Y67906D01*
X210324Y67979D01*
X210295Y67989D01*
X210270Y68005D01*
X210146Y68043D01*
X210025Y68086D01*
X209995Y68089D01*
X209966Y68098D01*
X209837Y68104D01*
X209708Y68117D01*
X209678Y68112D01*
X209648Y68113D01*
X209522Y68087D01*
X209394Y68067D01*
X209366Y68055D01*
X209337Y68049D01*
X209220Y67992D01*
X209102Y67941D01*
X209078Y67923D01*
X209051Y67909D01*
X208953Y67825D01*
X208850Y67746D01*
X208832Y67723D01*
X208809Y67703D01*
X208735Y67597D01*
X208655Y67495D01*
X208643Y67468D01*
X208626Y67443D01*
X208580Y67322D01*
X208529Y67203D01*
X208519Y67162D01*
X208513Y67146D01*
X208511Y67124D01*
X208496Y67059D01*
X207914Y65267D01*
X207061Y63593D01*
X205956Y62072D01*
X204628Y60744D01*
X203107Y59639D01*
X201433Y58786D01*
X199646Y58205D01*
X199389Y58165D01*
X199389Y68580D01*
G37*
%LPD*%
%LPC*%
G36*
X316655Y17271D02*
X316655Y17271D01*
X310400Y19862D01*
X305612Y24650D01*
X303021Y30905D01*
X303021Y37675D01*
X305612Y43930D01*
X310400Y48718D01*
X316655Y51309D01*
X323425Y51309D01*
X329680Y48718D01*
X334468Y43930D01*
X337059Y37675D01*
X337059Y30905D01*
X334468Y24650D01*
X329680Y19862D01*
X323425Y17271D01*
X316655Y17271D01*
G37*
%LPD*%
%LPC*%
G36*
X30905Y17271D02*
X30905Y17271D01*
X24650Y19862D01*
X19862Y24650D01*
X17271Y30905D01*
X17271Y37675D01*
X19862Y43930D01*
X24650Y48718D01*
X30905Y51309D01*
X37675Y51309D01*
X43930Y48718D01*
X48718Y43930D01*
X51309Y37675D01*
X51309Y30905D01*
X48718Y24650D01*
X43930Y19862D01*
X37675Y17271D01*
X30905Y17271D01*
G37*
%LPD*%
%LPC*%
G36*
X75013Y273430D02*
X75013Y273430D01*
X72818Y274339D01*
X71139Y276018D01*
X70230Y278213D01*
X70230Y280173D01*
X70218Y280271D01*
X70215Y280370D01*
X70198Y280429D01*
X70190Y280489D01*
X70154Y280581D01*
X70126Y280676D01*
X70096Y280728D01*
X70073Y280784D01*
X70015Y280864D01*
X69965Y280950D01*
X69899Y281025D01*
X69887Y281042D01*
X69877Y281050D01*
X69859Y281071D01*
X31494Y319436D01*
X31454Y319466D01*
X31421Y319503D01*
X31329Y319563D01*
X31242Y319631D01*
X31197Y319650D01*
X31155Y319678D01*
X31051Y319713D01*
X30950Y319757D01*
X30901Y319765D01*
X30854Y319781D01*
X30745Y319790D01*
X30636Y319807D01*
X30587Y319802D01*
X30537Y319806D01*
X30429Y319787D01*
X30320Y319777D01*
X30273Y319760D01*
X30224Y319752D01*
X30124Y319707D01*
X30020Y319669D01*
X29979Y319641D01*
X29934Y319621D01*
X29848Y319553D01*
X29757Y319491D01*
X29724Y319454D01*
X29686Y319422D01*
X29619Y319335D01*
X29547Y319252D01*
X29524Y319208D01*
X29494Y319168D01*
X29423Y319024D01*
X28741Y317375D01*
X25525Y314159D01*
X21324Y312419D01*
X16776Y312419D01*
X12575Y314159D01*
X9359Y317375D01*
X7619Y321576D01*
X7619Y326124D01*
X9359Y330325D01*
X12575Y333541D01*
X16776Y335281D01*
X21324Y335281D01*
X25525Y333541D01*
X28741Y330325D01*
X29730Y327936D01*
X29745Y327911D01*
X29754Y327883D01*
X29823Y327773D01*
X29887Y327660D01*
X29908Y327639D01*
X29924Y327614D01*
X30018Y327525D01*
X30109Y327432D01*
X30134Y327416D01*
X30155Y327396D01*
X30269Y327333D01*
X30380Y327265D01*
X30408Y327257D01*
X30434Y327242D01*
X30560Y327210D01*
X30684Y327172D01*
X30713Y327170D01*
X30742Y327163D01*
X30903Y327153D01*
X33118Y327153D01*
X74529Y285741D01*
X74608Y285681D01*
X74680Y285613D01*
X74733Y285584D01*
X74781Y285547D01*
X74872Y285507D01*
X74958Y285459D01*
X75017Y285444D01*
X75072Y285420D01*
X75170Y285405D01*
X75266Y285380D01*
X75366Y285374D01*
X75387Y285370D01*
X75399Y285372D01*
X75427Y285370D01*
X77387Y285370D01*
X79582Y284461D01*
X81261Y282782D01*
X82170Y280587D01*
X82170Y278213D01*
X81261Y276018D01*
X79582Y274339D01*
X77387Y273430D01*
X75013Y273430D01*
G37*
%LPD*%
%LPC*%
G36*
X236303Y269620D02*
X236303Y269620D01*
X234108Y270529D01*
X232429Y272208D01*
X231520Y274403D01*
X231520Y276777D01*
X231600Y276971D01*
X231608Y276999D01*
X231622Y277026D01*
X231650Y277152D01*
X231684Y277277D01*
X231685Y277307D01*
X231691Y277336D01*
X231687Y277466D01*
X231689Y277595D01*
X231682Y277624D01*
X231682Y277654D01*
X231645Y277778D01*
X231615Y277905D01*
X231601Y277931D01*
X231593Y277959D01*
X231527Y278071D01*
X231467Y278186D01*
X231447Y278208D01*
X231432Y278233D01*
X231325Y278354D01*
X221946Y287734D01*
X221922Y287752D01*
X221903Y287774D01*
X221797Y287849D01*
X221694Y287929D01*
X221667Y287940D01*
X221643Y287957D01*
X221522Y288003D01*
X221403Y288055D01*
X221373Y288059D01*
X221346Y288070D01*
X221217Y288084D01*
X221088Y288105D01*
X221059Y288102D01*
X221030Y288105D01*
X220901Y288087D01*
X220772Y288075D01*
X220744Y288065D01*
X220715Y288061D01*
X220562Y288009D01*
X218174Y287019D01*
X213626Y287019D01*
X209425Y288759D01*
X206209Y291975D01*
X204469Y296176D01*
X204469Y300724D01*
X206209Y304925D01*
X209425Y308141D01*
X213626Y309881D01*
X218174Y309881D01*
X222375Y308141D01*
X225591Y304925D01*
X227331Y300724D01*
X227331Y296176D01*
X226341Y293788D01*
X226334Y293759D01*
X226320Y293733D01*
X226292Y293606D01*
X226257Y293481D01*
X226257Y293451D01*
X226250Y293423D01*
X226254Y293293D01*
X226252Y293163D01*
X226259Y293134D01*
X226260Y293105D01*
X226296Y292980D01*
X226326Y292854D01*
X226340Y292827D01*
X226348Y292799D01*
X226414Y292687D01*
X226475Y292572D01*
X226495Y292551D01*
X226510Y292525D01*
X226616Y292404D01*
X237089Y281931D01*
X237168Y281871D01*
X237240Y281803D01*
X237293Y281774D01*
X237341Y281737D01*
X237432Y281697D01*
X237518Y281649D01*
X237577Y281634D01*
X237632Y281610D01*
X237730Y281595D01*
X237826Y281570D01*
X237926Y281564D01*
X237947Y281560D01*
X237959Y281562D01*
X237987Y281560D01*
X238677Y281560D01*
X240872Y280651D01*
X242551Y278972D01*
X243460Y276777D01*
X243460Y274403D01*
X242551Y272208D01*
X240872Y270529D01*
X238677Y269620D01*
X236303Y269620D01*
G37*
%LPD*%
%LPC*%
G36*
X213626Y312419D02*
X213626Y312419D01*
X209425Y314159D01*
X206209Y317375D01*
X204469Y321576D01*
X204469Y326124D01*
X206209Y330325D01*
X209425Y333541D01*
X213626Y335281D01*
X218174Y335281D01*
X222375Y333541D01*
X225591Y330325D01*
X227331Y326124D01*
X227331Y321576D01*
X225591Y317375D01*
X222375Y314159D01*
X218174Y312419D01*
X213626Y312419D01*
G37*
%LPD*%
%LPC*%
G36*
X16776Y287019D02*
X16776Y287019D01*
X12575Y288759D01*
X9359Y291975D01*
X7619Y296176D01*
X7619Y300724D01*
X9359Y304925D01*
X12575Y308141D01*
X16776Y309881D01*
X21324Y309881D01*
X25525Y308141D01*
X28741Y304925D01*
X30481Y300724D01*
X30481Y296176D01*
X28741Y291975D01*
X25525Y288759D01*
X21324Y287019D01*
X16776Y287019D01*
G37*
%LPD*%
%LPC*%
G36*
X143776Y58419D02*
X143776Y58419D01*
X139575Y60159D01*
X136359Y63375D01*
X134619Y67576D01*
X134619Y72124D01*
X136359Y76325D01*
X139575Y79541D01*
X143776Y81281D01*
X148324Y81281D01*
X152525Y79541D01*
X155741Y76325D01*
X157481Y72124D01*
X157481Y67576D01*
X155741Y63375D01*
X152525Y60159D01*
X148324Y58419D01*
X143776Y58419D01*
G37*
%LPD*%
%LPC*%
G36*
X245376Y58419D02*
X245376Y58419D01*
X241175Y60159D01*
X237959Y63375D01*
X236219Y67576D01*
X236219Y72124D01*
X237959Y76325D01*
X241175Y79541D01*
X245376Y81281D01*
X249924Y81281D01*
X254125Y79541D01*
X257341Y76325D01*
X259081Y72124D01*
X259081Y67576D01*
X257341Y63375D01*
X254125Y60159D01*
X249924Y58419D01*
X245376Y58419D01*
G37*
%LPD*%
%LPC*%
G36*
X298699Y119149D02*
X298699Y119149D01*
X298699Y126691D01*
X311990Y126691D01*
X313551Y126443D01*
X315054Y125955D01*
X315740Y125606D01*
X315870Y125559D01*
X315999Y125508D01*
X316019Y125505D01*
X316039Y125498D01*
X316177Y125485D01*
X316314Y125468D01*
X316335Y125470D01*
X316355Y125468D01*
X316492Y125490D01*
X316630Y125507D01*
X316649Y125515D01*
X316669Y125518D01*
X316797Y125573D01*
X316926Y125624D01*
X316950Y125639D01*
X316961Y125644D01*
X316978Y125657D01*
X317062Y125710D01*
X317294Y125879D01*
X318808Y126650D01*
X320423Y127175D01*
X322101Y127441D01*
X328661Y127441D01*
X328661Y119189D01*
X322450Y119189D01*
X322390Y119182D01*
X322331Y119184D01*
X322233Y119162D01*
X322134Y119149D01*
X298699Y119149D01*
G37*
%LPD*%
%LPC*%
G36*
X298699Y190649D02*
X298699Y190649D01*
X298699Y198191D01*
X311990Y198191D01*
X313551Y197943D01*
X315054Y197455D01*
X315740Y197106D01*
X315786Y197089D01*
X315803Y197080D01*
X315836Y197071D01*
X315870Y197059D01*
X315999Y197008D01*
X316019Y197005D01*
X316039Y196998D01*
X316177Y196985D01*
X316314Y196968D01*
X316335Y196970D01*
X316355Y196968D01*
X316492Y196990D01*
X316630Y197007D01*
X316649Y197015D01*
X316669Y197018D01*
X316797Y197073D01*
X316926Y197124D01*
X316950Y197139D01*
X316961Y197144D01*
X316978Y197157D01*
X317062Y197210D01*
X317294Y197379D01*
X318808Y198150D01*
X320423Y198675D01*
X322101Y198941D01*
X328661Y198941D01*
X328661Y190689D01*
X322450Y190689D01*
X322390Y190682D01*
X322331Y190684D01*
X322233Y190662D01*
X322134Y190649D01*
X298699Y190649D01*
G37*
%LPD*%
%LPC*%
G36*
X322101Y105859D02*
X322101Y105859D01*
X320423Y106125D01*
X318808Y106650D01*
X317294Y107421D01*
X317062Y107590D01*
X316940Y107657D01*
X316821Y107727D01*
X316801Y107733D01*
X316783Y107743D01*
X316649Y107778D01*
X316516Y107817D01*
X316495Y107817D01*
X316475Y107822D01*
X316336Y107822D01*
X316198Y107827D01*
X316178Y107822D01*
X316157Y107822D01*
X316022Y107788D01*
X315887Y107758D01*
X315861Y107747D01*
X315849Y107743D01*
X315831Y107734D01*
X315740Y107694D01*
X315054Y107345D01*
X313551Y106857D01*
X311990Y106609D01*
X298699Y106609D01*
X298699Y114151D01*
X322146Y114151D01*
X322172Y114142D01*
X322231Y114136D01*
X322289Y114121D01*
X322450Y114111D01*
X328661Y114111D01*
X328661Y105859D01*
X322101Y105859D01*
G37*
%LPD*%
%LPC*%
G36*
X322101Y177359D02*
X322101Y177359D01*
X320423Y177625D01*
X318808Y178150D01*
X317294Y178921D01*
X317062Y179090D01*
X316940Y179157D01*
X316821Y179227D01*
X316801Y179233D01*
X316783Y179243D01*
X316649Y179278D01*
X316516Y179317D01*
X316495Y179317D01*
X316475Y179322D01*
X316336Y179322D01*
X316198Y179327D01*
X316178Y179322D01*
X316157Y179322D01*
X316022Y179288D01*
X315887Y179258D01*
X315861Y179247D01*
X315849Y179243D01*
X315831Y179234D01*
X315740Y179194D01*
X315054Y178845D01*
X313551Y178357D01*
X311990Y178109D01*
X298699Y178109D01*
X298699Y185651D01*
X322146Y185651D01*
X322172Y185642D01*
X322231Y185636D01*
X322289Y185621D01*
X322450Y185611D01*
X328661Y185611D01*
X328661Y177359D01*
X322101Y177359D01*
G37*
%LPD*%
G36*
X83938Y69866D02*
X83938Y69866D01*
X84057Y69873D01*
X84095Y69886D01*
X84135Y69891D01*
X84246Y69935D01*
X84359Y69971D01*
X84394Y69993D01*
X84431Y70008D01*
X84527Y70078D01*
X84628Y70141D01*
X84656Y70171D01*
X84689Y70195D01*
X84764Y70286D01*
X84846Y70373D01*
X84866Y70408D01*
X84891Y70440D01*
X84942Y70547D01*
X85000Y70652D01*
X85010Y70691D01*
X85027Y70727D01*
X85049Y70844D01*
X85079Y70959D01*
X85083Y71020D01*
X85087Y71040D01*
X85085Y71060D01*
X85089Y71120D01*
X85089Y81688D01*
X85107Y81691D01*
X85177Y81728D01*
X85252Y81755D01*
X85319Y81800D01*
X85390Y81836D01*
X85450Y81888D01*
X85516Y81933D01*
X85568Y81993D01*
X85629Y82046D01*
X85673Y82112D01*
X85726Y82172D01*
X85762Y82243D01*
X85807Y82309D01*
X85834Y82384D01*
X85871Y82455D01*
X85888Y82533D01*
X85915Y82608D01*
X85923Y82687D01*
X85940Y82765D01*
X85938Y82845D01*
X85945Y82925D01*
X85933Y83003D01*
X85931Y83083D01*
X85908Y83160D01*
X85896Y83239D01*
X85864Y83312D01*
X85842Y83388D01*
X85802Y83457D01*
X85770Y83531D01*
X85721Y83594D01*
X85681Y83662D01*
X85576Y83782D01*
X85575Y83782D01*
X85575Y83783D01*
X85574Y83783D01*
X83839Y85518D01*
X82930Y87713D01*
X82930Y90087D01*
X83799Y92185D01*
X83817Y92252D01*
X83845Y92316D01*
X83859Y92405D01*
X83883Y92492D01*
X83884Y92561D01*
X83895Y92630D01*
X83887Y92720D01*
X83888Y92810D01*
X83872Y92878D01*
X83865Y92947D01*
X83835Y93032D01*
X83814Y93119D01*
X83781Y93181D01*
X83758Y93246D01*
X83707Y93321D01*
X83665Y93400D01*
X83618Y93452D01*
X83579Y93509D01*
X83512Y93569D01*
X83451Y93635D01*
X83393Y93674D01*
X83341Y93720D01*
X83261Y93761D01*
X83186Y93810D01*
X83119Y93833D01*
X83057Y93865D01*
X82970Y93884D01*
X82885Y93913D01*
X82815Y93919D01*
X82747Y93934D01*
X82657Y93931D01*
X82568Y93939D01*
X82499Y93927D01*
X82429Y93925D01*
X82343Y93900D01*
X82254Y93884D01*
X82191Y93856D01*
X82124Y93836D01*
X82046Y93791D01*
X81964Y93754D01*
X81910Y93710D01*
X81850Y93675D01*
X81729Y93568D01*
X69714Y81554D01*
X69654Y81475D01*
X69586Y81403D01*
X69557Y81350D01*
X69520Y81302D01*
X69480Y81211D01*
X69432Y81125D01*
X69417Y81066D01*
X69393Y81011D01*
X69378Y80913D01*
X69353Y80817D01*
X69347Y80717D01*
X69343Y80696D01*
X69345Y80684D01*
X69343Y80656D01*
X69343Y75513D01*
X69345Y75494D01*
X69343Y75474D01*
X69365Y75336D01*
X69383Y75198D01*
X69390Y75179D01*
X69393Y75160D01*
X69448Y75032D01*
X69500Y74902D01*
X69511Y74886D01*
X69519Y74868D01*
X69605Y74758D01*
X69686Y74645D01*
X69702Y74632D01*
X69714Y74616D01*
X69824Y74531D01*
X69931Y74442D01*
X69949Y74434D01*
X69965Y74421D01*
X70093Y74366D01*
X70219Y74306D01*
X70239Y74303D01*
X70257Y74295D01*
X70395Y74273D01*
X70531Y74247D01*
X70551Y74248D01*
X70571Y74245D01*
X70710Y74258D01*
X70849Y74266D01*
X70868Y74273D01*
X70888Y74274D01*
X71019Y74322D01*
X71151Y74364D01*
X71168Y74375D01*
X71187Y74382D01*
X71302Y74460D01*
X71420Y74535D01*
X71434Y74549D01*
X71450Y74560D01*
X71542Y74665D01*
X71638Y74766D01*
X71648Y74784D01*
X71661Y74799D01*
X71743Y74937D01*
X72339Y76107D01*
X73444Y77628D01*
X74772Y78956D01*
X76293Y80061D01*
X77967Y80914D01*
X79754Y81495D01*
X80011Y81535D01*
X80011Y71120D01*
X80026Y71002D01*
X80033Y70883D01*
X80046Y70845D01*
X80051Y70805D01*
X80094Y70694D01*
X80131Y70581D01*
X80153Y70547D01*
X80168Y70509D01*
X80238Y70413D01*
X80301Y70312D01*
X80331Y70284D01*
X80354Y70252D01*
X80446Y70176D01*
X80533Y70094D01*
X80568Y70075D01*
X80599Y70049D01*
X80707Y69998D01*
X80811Y69941D01*
X80851Y69930D01*
X80887Y69913D01*
X81004Y69891D01*
X81119Y69861D01*
X81180Y69857D01*
X81200Y69853D01*
X81220Y69855D01*
X81280Y69851D01*
X83820Y69851D01*
X83938Y69866D01*
G37*
%LPC*%
G36*
X333739Y190689D02*
X333739Y190689D01*
X333739Y198941D01*
X340299Y198941D01*
X341977Y198675D01*
X343592Y198150D01*
X345106Y197379D01*
X346480Y196381D01*
X347681Y195180D01*
X348679Y193806D01*
X349450Y192292D01*
X349971Y190689D01*
X333739Y190689D01*
G37*
%LPD*%
%LPC*%
G36*
X333739Y119189D02*
X333739Y119189D01*
X333739Y127441D01*
X340299Y127441D01*
X341977Y127175D01*
X343592Y126650D01*
X345106Y125879D01*
X346480Y124881D01*
X347681Y123680D01*
X348679Y122306D01*
X349450Y120792D01*
X349971Y119189D01*
X333739Y119189D01*
G37*
%LPD*%
%LPC*%
G36*
X333739Y105859D02*
X333739Y105859D01*
X333739Y114111D01*
X349971Y114111D01*
X349450Y112508D01*
X348679Y110994D01*
X347681Y109620D01*
X346480Y108419D01*
X345106Y107421D01*
X343592Y106650D01*
X341977Y106125D01*
X340299Y105859D01*
X333739Y105859D01*
G37*
%LPD*%
%LPC*%
G36*
X333739Y177359D02*
X333739Y177359D01*
X333739Y185611D01*
X349971Y185611D01*
X349450Y184008D01*
X348679Y182494D01*
X347681Y181120D01*
X346480Y179919D01*
X345106Y178921D01*
X343592Y178150D01*
X341977Y177625D01*
X340299Y177359D01*
X333739Y177359D01*
G37*
%LPD*%
%LPC*%
G36*
X218439Y123439D02*
X218439Y123439D01*
X218439Y134941D01*
X224234Y134941D01*
X224881Y134768D01*
X225460Y134433D01*
X225933Y133960D01*
X226268Y133381D01*
X226441Y132734D01*
X226441Y123439D01*
X218439Y123439D01*
G37*
%LPD*%
%LPC*%
G36*
X218439Y106859D02*
X218439Y106859D01*
X218439Y118361D01*
X226441Y118361D01*
X226441Y109066D01*
X226268Y108419D01*
X225933Y107840D01*
X225460Y107367D01*
X224881Y107032D01*
X224234Y106859D01*
X218439Y106859D01*
G37*
%LPD*%
%LPC*%
G36*
X97789Y326389D02*
X97789Y326389D01*
X97789Y335535D01*
X98046Y335495D01*
X99833Y334914D01*
X101507Y334061D01*
X103028Y332956D01*
X104356Y331628D01*
X105461Y330107D01*
X106314Y328433D01*
X106895Y326646D01*
X106935Y326389D01*
X97789Y326389D01*
G37*
%LPD*%
%LPC*%
G36*
X83565Y326389D02*
X83565Y326389D01*
X83605Y326646D01*
X84186Y328433D01*
X85039Y330107D01*
X86144Y331628D01*
X87472Y332956D01*
X88993Y334061D01*
X90667Y334914D01*
X92454Y335495D01*
X92711Y335535D01*
X92711Y326389D01*
X83565Y326389D01*
G37*
%LPD*%
%LPC*%
G36*
X21589Y118111D02*
X21589Y118111D01*
X30735Y118111D01*
X30695Y117854D01*
X30114Y116067D01*
X29261Y114393D01*
X28156Y112872D01*
X26828Y111544D01*
X25307Y110439D01*
X23633Y109586D01*
X21846Y109005D01*
X21589Y108965D01*
X21589Y118111D01*
G37*
%LPD*%
%LPC*%
G36*
X7365Y72389D02*
X7365Y72389D01*
X7405Y72646D01*
X7986Y74433D01*
X8839Y76107D01*
X9944Y77628D01*
X11272Y78956D01*
X12793Y80061D01*
X14467Y80914D01*
X16254Y81495D01*
X16511Y81535D01*
X16511Y72389D01*
X7365Y72389D01*
G37*
%LPD*%
%LPC*%
G36*
X16254Y236005D02*
X16254Y236005D01*
X14467Y236586D01*
X12793Y237439D01*
X11272Y238544D01*
X9944Y239872D01*
X8839Y241393D01*
X7986Y243067D01*
X7405Y244854D01*
X7365Y245111D01*
X16511Y245111D01*
X16511Y235965D01*
X16254Y236005D01*
G37*
%LPD*%
%LPC*%
G36*
X16254Y109005D02*
X16254Y109005D01*
X14467Y109586D01*
X12793Y110439D01*
X11272Y111544D01*
X9944Y112872D01*
X8839Y114393D01*
X7986Y116067D01*
X7405Y117854D01*
X7365Y118111D01*
X16511Y118111D01*
X16511Y108965D01*
X16254Y109005D01*
G37*
%LPD*%
%LPC*%
G36*
X16254Y58205D02*
X16254Y58205D01*
X14467Y58786D01*
X12793Y59639D01*
X11272Y60744D01*
X9944Y62072D01*
X8839Y63593D01*
X7986Y65267D01*
X7405Y67054D01*
X7365Y67311D01*
X16511Y67311D01*
X16511Y58165D01*
X16254Y58205D01*
G37*
%LPD*%
%LPC*%
G36*
X286455Y190649D02*
X286455Y190649D01*
X286895Y192004D01*
X287612Y193412D01*
X288541Y194691D01*
X289659Y195809D01*
X290938Y196738D01*
X292346Y197455D01*
X293701Y197895D01*
X293701Y190649D01*
X286455Y190649D01*
G37*
%LPD*%
%LPC*%
G36*
X286455Y119149D02*
X286455Y119149D01*
X286895Y120504D01*
X287612Y121912D01*
X288541Y123191D01*
X289659Y124309D01*
X290938Y125238D01*
X292346Y125955D01*
X293701Y126395D01*
X293701Y119149D01*
X286455Y119149D01*
G37*
%LPD*%
%LPC*%
G36*
X292346Y107345D02*
X292346Y107345D01*
X290938Y108062D01*
X289659Y108991D01*
X288541Y110109D01*
X287612Y111388D01*
X286895Y112796D01*
X286455Y114151D01*
X293701Y114151D01*
X293701Y106905D01*
X292346Y107345D01*
G37*
%LPD*%
%LPC*%
G36*
X292346Y178845D02*
X292346Y178845D01*
X290938Y179562D01*
X289659Y180491D01*
X288541Y181609D01*
X287612Y182888D01*
X286895Y184296D01*
X286455Y185651D01*
X293701Y185651D01*
X293701Y178405D01*
X292346Y178845D01*
G37*
%LPD*%
%LPC*%
G36*
X331199Y188149D02*
X331199Y188149D01*
X331199Y188151D01*
X331201Y188151D01*
X331201Y188149D01*
X331199Y188149D01*
G37*
%LPD*%
%LPC*%
G36*
X331199Y116649D02*
X331199Y116649D01*
X331199Y116651D01*
X331201Y116651D01*
X331201Y116649D01*
X331199Y116649D01*
G37*
%LPD*%
D10*
X339450Y116650D02*
X322950Y116650D01*
X322950Y188150D02*
X339450Y188150D01*
D11*
X311200Y116650D02*
X296200Y116650D01*
X296200Y188150D02*
X311200Y188150D01*
D12*
X82550Y69850D03*
X107950Y69850D03*
X19050Y69850D03*
X44450Y69850D03*
D13*
X215900Y120900D03*
X215900Y183900D03*
D12*
X95250Y323850D03*
X95250Y298450D03*
X247650Y69850D03*
X222250Y69850D03*
X196850Y69850D03*
X171450Y69850D03*
X146050Y69850D03*
X19050Y247650D03*
X19050Y273050D03*
X19050Y298450D03*
X19050Y323850D03*
X19050Y120650D03*
X19050Y146050D03*
X19050Y171450D03*
X19050Y196850D03*
X139700Y298450D03*
X165100Y298450D03*
X190500Y298450D03*
X215900Y298450D03*
X139700Y323850D03*
X165100Y323850D03*
X190500Y323850D03*
X215900Y323850D03*
D14*
X147000Y201891D03*
X147320Y232410D03*
X114300Y234950D03*
X133350Y171450D03*
X177800Y133350D03*
X228600Y152400D03*
X80010Y204470D03*
X120650Y127000D03*
X250190Y281940D03*
X209550Y203200D03*
D15*
X215900Y196850D01*
X215900Y183900D01*
D14*
X201930Y229870D03*
D15*
X212090Y240030D02*
X212090Y256540D01*
X212090Y240030D02*
X201930Y229870D01*
D14*
X212090Y256540D03*
D15*
X246380Y256540D01*
X264160Y274320D01*
D14*
X264160Y274320D03*
X317500Y311150D03*
X317359Y280529D03*
D15*
X311150Y274320D02*
X264160Y274320D01*
X311150Y274320D02*
X317359Y280529D01*
X317500Y280670D02*
X317500Y311150D01*
X317500Y280670D02*
X317359Y280529D01*
D14*
X184150Y186055D03*
X185420Y156210D03*
D15*
X184150Y157480D01*
X184150Y186055D01*
D14*
X123190Y219710D03*
D15*
X125730Y217170D01*
X125730Y200660D01*
X107950Y96520D02*
X107950Y88900D01*
D14*
X107950Y88900D03*
D15*
X96266Y171196D02*
X125730Y200660D01*
X96266Y171196D02*
X96266Y108204D01*
X107950Y96520D01*
D14*
X76200Y279400D03*
D15*
X31750Y323850D01*
X19050Y323850D01*
D14*
X100330Y257810D03*
D15*
X76200Y233680D01*
X76200Y215900D01*
D14*
X76200Y215900D03*
X200660Y102870D03*
D15*
X203200Y105410D02*
X203200Y193040D01*
X203200Y105410D02*
X200660Y102870D01*
X203200Y193040D02*
X187960Y208280D01*
D14*
X187960Y208280D03*
X139700Y241300D03*
D15*
X139700Y247650D02*
X190500Y298450D01*
X139700Y247650D02*
X139700Y241300D01*
D14*
X237490Y275590D03*
D15*
X237490Y276860D01*
X215900Y298450D01*
D14*
X116840Y209550D03*
D15*
X116840Y199390D01*
D14*
X88900Y88900D03*
D15*
X90678Y173228D02*
X116840Y199390D01*
X90678Y173228D02*
X90678Y99811D01*
X88900Y98033D01*
X88900Y88900D01*
D14*
X171450Y101600D03*
X184150Y196850D03*
D15*
X184150Y196822D01*
X165100Y177772D01*
X165100Y120650D01*
X171450Y114300D02*
X171450Y101600D01*
X171450Y114300D02*
X165100Y120650D01*
D14*
X88900Y195580D03*
D15*
X78740Y185420D01*
D14*
X63500Y31750D03*
D15*
X78740Y104140D02*
X78740Y185420D01*
X60452Y85852D02*
X60452Y34798D01*
X60452Y85852D02*
X78740Y104140D01*
X60452Y34798D02*
X63500Y31750D01*
D14*
X90170Y184150D03*
D15*
X85090Y179070D01*
X85090Y101600D01*
X66040Y82550D01*
X66040Y59690D01*
X78740Y46990D01*
D14*
X187960Y46990D03*
D15*
X78740Y46990D01*
D14*
X170774Y195864D03*
D15*
X158750Y183841D01*
D14*
X158750Y107950D03*
D15*
X158750Y183841D01*
D16*
X95250Y266700D02*
X95250Y298450D01*
X95250Y266700D02*
X80164Y251614D01*
D14*
X80164Y251614D03*
D16*
X36830Y255270D02*
X19050Y273050D01*
X36830Y255270D02*
X36830Y163830D01*
X19050Y146050D01*
D14*
X232410Y200660D03*
M02*
