M48
;GenerationSoftware,Autodesk,EAGLE,9.2.2*%
;CreationDate,2018-12-28T12:03:35Z*%
FMAT,2
ICI,OFF
METRIC,TZ,000.000
T5C0.350
T4C0.381
T3C1.016
T2C1.143
T1C3.048
%
G90
M71
T1
X3429Y3429
X32004Y3429
T2
X29620Y18815
X29620Y11665
X33120Y11665
X33120Y18815
T3
X1905Y19685
X8255Y6985
X10795Y6985
X1905Y6985
X4445Y6985
X9525Y32385
X9525Y29845
X24765Y6985
X22225Y6985
X19685Y6985
X17145Y6985
X14605Y6985
X1905Y24765
X1905Y27305
X1905Y29845
X1905Y32385
X1905Y12065
X1905Y14605
X1905Y17145
X13970Y29845
X16510Y29845
X19050Y29845
X21590Y29845
X13970Y32385
X16510Y32385
X19050Y32385
X21590Y32385
T4
X9017Y18415
X18796Y4699
X25019Y28194
X8016Y25161
X23241Y20066
X14700Y20189
X14732Y23241
X11430Y23495
X13335Y17145
X17077Y19586
X17780Y13335
X22860Y15240
X8001Y20447
X12065Y12700
X13335Y27305
X18669Y9779
X20955Y20320
X20193Y22987
X21209Y25654
X26416Y27432
X31750Y31115
X31736Y28053
X18415Y18606
X18542Y15621
X12319Y21971
X10795Y8890
X7620Y27940
X10033Y25781
X23749Y27559
X7620Y21590
X18796Y20828
X13970Y24130
X11684Y20955
X8890Y8890
X18415Y19685
X8890Y19558
X6350Y3175
T5
X13970Y24765
M30