G04 EAGLE Gerber RS-274X export*
G75*
%MOMM*%
%FSLAX34Y34*%
%LPD*%
%INSilkscreen Bottom*%
%IPPOS*%
%AMOC8*
5,1,8,0,0,1.08239X$1,22.5*%
G01*
%ADD10C,0.330200*%
%ADD11C,0.152400*%
%ADD12C,0.203200*%
%ADD13C,0.508000*%
%ADD14C,0.127000*%

G36*
X320470Y61106D02*
X320470Y61106D01*
X320578Y61116D01*
X320591Y61122D01*
X320605Y61124D01*
X320702Y61172D01*
X320801Y61217D01*
X320814Y61228D01*
X320823Y61232D01*
X320838Y61248D01*
X320915Y61310D01*
X323500Y63895D01*
X323563Y63984D01*
X323629Y64069D01*
X323634Y64082D01*
X323642Y64094D01*
X323673Y64197D01*
X323709Y64300D01*
X323709Y64314D01*
X323713Y64327D01*
X323709Y64435D01*
X323710Y64544D01*
X323705Y64557D01*
X323705Y64571D01*
X323667Y64673D01*
X323632Y64775D01*
X323623Y64790D01*
X323619Y64799D01*
X323605Y64816D01*
X323551Y64898D01*
X320787Y68288D01*
X321344Y69370D01*
X321350Y69390D01*
X321392Y69485D01*
X321763Y70644D01*
X326114Y71087D01*
X326218Y71115D01*
X326324Y71140D01*
X326336Y71147D01*
X326349Y71150D01*
X326439Y71211D01*
X326532Y71268D01*
X326540Y71279D01*
X326552Y71287D01*
X326618Y71373D01*
X326687Y71457D01*
X326691Y71470D01*
X326700Y71481D01*
X326734Y71584D01*
X326773Y71685D01*
X326774Y71703D01*
X326778Y71712D01*
X326778Y71734D01*
X326787Y71832D01*
X326787Y75488D01*
X326770Y75595D01*
X326756Y75703D01*
X326750Y75715D01*
X326748Y75729D01*
X326696Y75825D01*
X326649Y75922D01*
X326639Y75932D01*
X326633Y75944D01*
X326553Y76018D01*
X326477Y76095D01*
X326465Y76101D01*
X326455Y76111D01*
X326356Y76156D01*
X326259Y76204D01*
X326241Y76208D01*
X326232Y76212D01*
X326211Y76214D01*
X326114Y76233D01*
X321763Y76676D01*
X321392Y77835D01*
X321383Y77852D01*
X321381Y77860D01*
X321377Y77867D01*
X321344Y77950D01*
X320787Y79032D01*
X323551Y82422D01*
X323605Y82516D01*
X323662Y82608D01*
X323665Y82621D01*
X323672Y82633D01*
X323693Y82740D01*
X323718Y82845D01*
X323716Y82859D01*
X323719Y82873D01*
X323704Y82980D01*
X323694Y83088D01*
X323688Y83101D01*
X323686Y83115D01*
X323638Y83212D01*
X323593Y83311D01*
X323582Y83324D01*
X323578Y83333D01*
X323562Y83348D01*
X323500Y83425D01*
X320915Y86010D01*
X320826Y86073D01*
X320741Y86139D01*
X320728Y86144D01*
X320716Y86152D01*
X320613Y86183D01*
X320510Y86219D01*
X320496Y86219D01*
X320483Y86223D01*
X320375Y86219D01*
X320266Y86220D01*
X320253Y86215D01*
X320239Y86215D01*
X320137Y86177D01*
X320035Y86142D01*
X320020Y86133D01*
X320011Y86129D01*
X319994Y86115D01*
X319912Y86061D01*
X316522Y83297D01*
X315440Y83854D01*
X315420Y83860D01*
X315325Y83902D01*
X314166Y84273D01*
X313723Y88624D01*
X313695Y88728D01*
X313670Y88834D01*
X313663Y88846D01*
X313660Y88859D01*
X313599Y88949D01*
X313542Y89042D01*
X313531Y89050D01*
X313523Y89062D01*
X313437Y89128D01*
X313353Y89197D01*
X313340Y89201D01*
X313329Y89210D01*
X313226Y89244D01*
X313125Y89283D01*
X313107Y89284D01*
X313098Y89288D01*
X313076Y89288D01*
X312978Y89297D01*
X309322Y89297D01*
X309215Y89280D01*
X309107Y89266D01*
X309095Y89260D01*
X309081Y89258D01*
X308985Y89206D01*
X308888Y89159D01*
X308878Y89149D01*
X308866Y89143D01*
X308792Y89063D01*
X308715Y88987D01*
X308709Y88975D01*
X308699Y88965D01*
X308654Y88866D01*
X308606Y88769D01*
X308602Y88751D01*
X308598Y88742D01*
X308596Y88721D01*
X308577Y88624D01*
X308134Y84273D01*
X306975Y83902D01*
X306957Y83892D01*
X306860Y83854D01*
X305778Y83297D01*
X302388Y86061D01*
X302294Y86115D01*
X302202Y86172D01*
X302189Y86175D01*
X302177Y86182D01*
X302070Y86203D01*
X301965Y86228D01*
X301951Y86226D01*
X301937Y86229D01*
X301830Y86214D01*
X301722Y86204D01*
X301709Y86198D01*
X301696Y86196D01*
X301598Y86148D01*
X301499Y86103D01*
X301486Y86092D01*
X301477Y86088D01*
X301462Y86072D01*
X301385Y86010D01*
X298800Y83425D01*
X298737Y83336D01*
X298671Y83251D01*
X298666Y83238D01*
X298658Y83226D01*
X298627Y83123D01*
X298591Y83020D01*
X298591Y83006D01*
X298587Y82993D01*
X298591Y82885D01*
X298590Y82776D01*
X298595Y82763D01*
X298595Y82749D01*
X298633Y82647D01*
X298668Y82545D01*
X298677Y82530D01*
X298681Y82521D01*
X298695Y82504D01*
X298749Y82422D01*
X301513Y79032D01*
X300956Y77950D01*
X300950Y77930D01*
X300908Y77835D01*
X300537Y76676D01*
X296186Y76233D01*
X296082Y76205D01*
X295976Y76180D01*
X295964Y76173D01*
X295951Y76170D01*
X295861Y76109D01*
X295768Y76052D01*
X295760Y76041D01*
X295748Y76033D01*
X295682Y75947D01*
X295614Y75863D01*
X295609Y75850D01*
X295600Y75839D01*
X295566Y75736D01*
X295527Y75635D01*
X295526Y75617D01*
X295522Y75608D01*
X295523Y75586D01*
X295513Y75488D01*
X295513Y71832D01*
X295530Y71725D01*
X295544Y71617D01*
X295550Y71605D01*
X295552Y71591D01*
X295604Y71495D01*
X295651Y71398D01*
X295661Y71388D01*
X295667Y71376D01*
X295747Y71302D01*
X295823Y71225D01*
X295835Y71219D01*
X295846Y71209D01*
X295944Y71164D01*
X296041Y71116D01*
X296059Y71112D01*
X296068Y71108D01*
X296089Y71106D01*
X296186Y71087D01*
X300537Y70644D01*
X300908Y69485D01*
X300918Y69467D01*
X300956Y69370D01*
X301513Y68288D01*
X298749Y64898D01*
X298695Y64804D01*
X298638Y64712D01*
X298635Y64699D01*
X298628Y64687D01*
X298607Y64580D01*
X298582Y64475D01*
X298584Y64461D01*
X298581Y64447D01*
X298596Y64340D01*
X298606Y64232D01*
X298612Y64219D01*
X298614Y64206D01*
X298662Y64108D01*
X298707Y64009D01*
X298718Y63996D01*
X298722Y63987D01*
X298738Y63972D01*
X298800Y63895D01*
X301385Y61310D01*
X301474Y61247D01*
X301559Y61181D01*
X301572Y61176D01*
X301584Y61168D01*
X301687Y61137D01*
X301790Y61101D01*
X301804Y61101D01*
X301817Y61097D01*
X301925Y61101D01*
X302034Y61100D01*
X302047Y61105D01*
X302061Y61105D01*
X302163Y61143D01*
X302265Y61178D01*
X302280Y61187D01*
X302289Y61191D01*
X302306Y61205D01*
X302388Y61259D01*
X305778Y64023D01*
X306860Y63466D01*
X306913Y63449D01*
X306962Y63423D01*
X307028Y63412D01*
X307092Y63391D01*
X307148Y63392D01*
X307202Y63383D01*
X307269Y63394D01*
X307336Y63395D01*
X307388Y63413D01*
X307443Y63422D01*
X307503Y63454D01*
X307566Y63477D01*
X307609Y63511D01*
X307659Y63537D01*
X307705Y63586D01*
X307757Y63628D01*
X307788Y63675D01*
X307826Y63715D01*
X307882Y63820D01*
X307890Y63833D01*
X307891Y63838D01*
X307895Y63845D01*
X310048Y69042D01*
X310068Y69125D01*
X310073Y69138D01*
X310075Y69154D01*
X310100Y69239D01*
X310099Y69260D01*
X310104Y69280D01*
X310096Y69362D01*
X310098Y69381D01*
X310093Y69401D01*
X310089Y69482D01*
X310082Y69502D01*
X310080Y69523D01*
X310049Y69592D01*
X310042Y69619D01*
X310027Y69643D01*
X310001Y69710D01*
X309988Y69726D01*
X309979Y69745D01*
X309934Y69794D01*
X309914Y69826D01*
X309883Y69851D01*
X309845Y69897D01*
X309822Y69913D01*
X309812Y69923D01*
X309791Y69935D01*
X309726Y69980D01*
X309725Y69981D01*
X309724Y69982D01*
X308825Y70488D01*
X308138Y71132D01*
X307623Y71920D01*
X307311Y72808D01*
X307219Y73745D01*
X307352Y74677D01*
X307703Y75551D01*
X308252Y76316D01*
X308966Y76929D01*
X309806Y77354D01*
X310723Y77568D01*
X311664Y77558D01*
X312576Y77324D01*
X313406Y76881D01*
X314107Y76252D01*
X314639Y75475D01*
X314970Y74594D01*
X315083Y73659D01*
X314975Y72742D01*
X314655Y71874D01*
X314141Y71105D01*
X313462Y70478D01*
X312578Y69983D01*
X312536Y69950D01*
X312494Y69927D01*
X312463Y69894D01*
X312415Y69859D01*
X312403Y69843D01*
X312387Y69830D01*
X312352Y69775D01*
X312327Y69749D01*
X312313Y69718D01*
X312272Y69661D01*
X312266Y69642D01*
X312256Y69625D01*
X312237Y69550D01*
X312227Y69527D01*
X312224Y69503D01*
X312201Y69428D01*
X312202Y69408D01*
X312197Y69388D01*
X312204Y69303D01*
X312203Y69284D01*
X312206Y69267D01*
X312209Y69184D01*
X312217Y69159D01*
X312218Y69145D01*
X312228Y69123D01*
X312252Y69042D01*
X312561Y68297D01*
X313492Y66049D01*
X313802Y65300D01*
X314405Y63845D01*
X314434Y63798D01*
X314455Y63746D01*
X314498Y63695D01*
X314534Y63638D01*
X314577Y63603D01*
X314613Y63560D01*
X314670Y63526D01*
X314722Y63483D01*
X314774Y63464D01*
X314822Y63435D01*
X314888Y63421D01*
X314951Y63397D01*
X315006Y63395D01*
X315060Y63384D01*
X315127Y63391D01*
X315194Y63389D01*
X315248Y63405D01*
X315303Y63412D01*
X315414Y63456D01*
X315428Y63460D01*
X315432Y63463D01*
X315440Y63466D01*
X316522Y64023D01*
X319912Y61259D01*
X320006Y61205D01*
X320098Y61148D01*
X320111Y61145D01*
X320123Y61138D01*
X320230Y61117D01*
X320335Y61092D01*
X320349Y61094D01*
X320363Y61091D01*
X320470Y61106D01*
G37*
D10*
X60579Y186309D02*
X47106Y186309D01*
X47106Y177327D01*
X53842Y181818D02*
X53842Y186309D01*
X51597Y170873D02*
X60579Y170873D01*
X51597Y170873D02*
X47106Y166382D01*
X51597Y161891D01*
X60579Y161891D01*
X53842Y161891D02*
X53842Y170873D01*
X47106Y155437D02*
X60579Y155437D01*
X60579Y146455D02*
X47106Y155437D01*
X47106Y146455D02*
X60579Y146455D01*
X51597Y140001D02*
X47106Y135510D01*
X60579Y135510D01*
X60579Y140001D02*
X60579Y131018D01*
X60579Y312039D02*
X47106Y312039D01*
X47106Y303057D01*
X53842Y307548D02*
X53842Y312039D01*
X51597Y296603D02*
X60579Y296603D01*
X51597Y296603D02*
X47106Y292112D01*
X51597Y287621D01*
X60579Y287621D01*
X53842Y287621D02*
X53842Y296603D01*
X47106Y281167D02*
X60579Y281167D01*
X60579Y272185D02*
X47106Y281167D01*
X47106Y272185D02*
X60579Y272185D01*
X60579Y265731D02*
X60579Y256748D01*
X51597Y256748D02*
X60579Y265731D01*
X51597Y256748D02*
X49351Y256748D01*
X47106Y258994D01*
X47106Y263485D01*
X49351Y265731D01*
D11*
X213608Y279143D02*
X214710Y278042D01*
X213608Y279143D02*
X213608Y281346D01*
X214710Y282448D01*
X215812Y282448D01*
X216913Y281346D01*
X216913Y279143D01*
X218015Y278042D01*
X219116Y278042D01*
X220218Y279143D01*
X220218Y281346D01*
X219116Y282448D01*
X220218Y274964D02*
X213608Y274964D01*
X220218Y274964D02*
X220218Y271659D01*
X219116Y270557D01*
X214710Y270557D01*
X213608Y271659D01*
X213608Y274964D01*
X215812Y267480D02*
X220218Y267480D01*
X215812Y267480D02*
X213608Y265277D01*
X215812Y263073D01*
X220218Y263073D01*
X216913Y263073D02*
X216913Y267480D01*
D10*
X104348Y101485D02*
X104348Y88011D01*
X108839Y101485D02*
X99857Y101485D01*
X93403Y96993D02*
X88912Y101485D01*
X88912Y88011D01*
X93403Y88011D02*
X84421Y88011D01*
X40848Y88011D02*
X40848Y101485D01*
X45339Y101485D02*
X36357Y101485D01*
X29903Y88011D02*
X20921Y88011D01*
X29903Y88011D02*
X20921Y96993D01*
X20921Y99239D01*
X23166Y101485D01*
X27657Y101485D01*
X29903Y99239D01*
X115189Y278603D02*
X110698Y283095D01*
X110698Y269621D01*
X115189Y269621D02*
X106207Y269621D01*
X99753Y269621D02*
X90771Y269621D01*
X99753Y269621D02*
X90771Y278603D01*
X90771Y280849D01*
X93016Y283095D01*
X97507Y283095D01*
X99753Y280849D01*
X84317Y283095D02*
X84317Y274112D01*
X79826Y269621D01*
X75335Y274112D01*
X75335Y283095D01*
D12*
X34201Y236474D02*
X31489Y233762D01*
X39624Y233762D01*
X39624Y231051D02*
X39624Y236474D01*
X34201Y109474D02*
X31489Y106762D01*
X39624Y106762D01*
X39624Y104051D02*
X39624Y109474D01*
D13*
X271780Y45308D02*
X271780Y31750D01*
X271780Y45308D02*
X261611Y45308D01*
X258222Y41919D01*
X258222Y31750D01*
X245002Y45308D02*
X238223Y45308D01*
X234834Y41919D01*
X234834Y31750D01*
X245002Y31750D01*
X248392Y35140D01*
X245002Y38529D01*
X234834Y38529D01*
X225004Y31750D02*
X225004Y45308D01*
X214835Y45308D01*
X211446Y41919D01*
X211446Y31750D01*
X198227Y31750D02*
X191447Y31750D01*
X188058Y35140D01*
X188058Y41919D01*
X191447Y45308D01*
X198227Y45308D01*
X201616Y41919D01*
X201616Y35140D01*
X198227Y31750D01*
X178228Y31750D02*
X178228Y52087D01*
X168059Y52087D01*
X164670Y48698D01*
X164670Y41919D01*
X168059Y38529D01*
X178228Y38529D01*
X154840Y31750D02*
X154840Y52087D01*
X151451Y45308D02*
X154840Y41919D01*
X151451Y45308D02*
X144671Y45308D01*
X141282Y41919D01*
X141282Y31750D01*
X128063Y45308D02*
X121284Y45308D01*
X117894Y41919D01*
X117894Y31750D01*
X128063Y31750D01*
X131452Y35140D01*
X128063Y38529D01*
X117894Y38529D01*
X108064Y31750D02*
X108064Y45308D01*
X97896Y45308D01*
X94506Y41919D01*
X94506Y31750D01*
X81287Y35140D02*
X81287Y48698D01*
X81287Y35140D02*
X77897Y31750D01*
X77897Y45308D02*
X84676Y45308D01*
D12*
X307594Y19139D02*
X307594Y11004D01*
X307594Y19139D02*
X303527Y19139D01*
X302171Y17783D01*
X302171Y15072D01*
X303527Y13716D01*
X307594Y13716D01*
X298239Y13716D02*
X294171Y13716D01*
X292816Y15072D01*
X294171Y16428D01*
X296883Y16428D01*
X298239Y17783D01*
X296883Y19139D01*
X292816Y19139D01*
X288884Y19139D02*
X288884Y15072D01*
X287528Y13716D01*
X283460Y13716D01*
X283460Y12360D02*
X283460Y19139D01*
X283460Y12360D02*
X284816Y11004D01*
X286172Y11004D01*
X278173Y15072D02*
X278173Y20495D01*
X278173Y15072D02*
X276817Y13716D01*
X276817Y19139D02*
X279528Y19139D01*
X271936Y13716D02*
X269224Y13716D01*
X271936Y13716D02*
X273292Y15072D01*
X273292Y17783D01*
X271936Y19139D01*
X269224Y19139D01*
X267868Y17783D01*
X267868Y16428D01*
X273292Y16428D01*
X254581Y13716D02*
X249158Y21851D01*
X235871Y21851D02*
X235871Y13716D01*
X235871Y21851D02*
X231803Y21851D01*
X230448Y20495D01*
X230448Y17783D01*
X231803Y16428D01*
X235871Y16428D01*
X225160Y19139D02*
X222448Y19139D01*
X221092Y17783D01*
X221092Y13716D01*
X225160Y13716D01*
X226516Y15072D01*
X225160Y16428D01*
X221092Y16428D01*
X215805Y15072D02*
X215805Y20495D01*
X215805Y15072D02*
X214449Y13716D01*
X214449Y19139D02*
X217161Y19139D01*
X210924Y19139D02*
X210924Y13716D01*
X210924Y16428D02*
X208212Y19139D01*
X206856Y19139D01*
X203128Y19139D02*
X201772Y19139D01*
X201772Y13716D01*
X203128Y13716D02*
X200416Y13716D01*
X201772Y21851D02*
X201772Y23207D01*
X196891Y21851D02*
X196891Y13716D01*
X196891Y16428D02*
X192824Y13716D01*
X196891Y16428D02*
X192824Y19139D01*
X179740Y21851D02*
X179740Y13716D01*
X177028Y19139D02*
X179740Y21851D01*
X177028Y19139D02*
X174317Y21851D01*
X174317Y13716D01*
X169029Y19139D02*
X166317Y19139D01*
X164961Y17783D01*
X164961Y13716D01*
X169029Y13716D01*
X170385Y15072D01*
X169029Y16428D01*
X164961Y16428D01*
X161029Y19139D02*
X161029Y13716D01*
X161029Y16428D02*
X158318Y19139D01*
X156962Y19139D01*
X151878Y19139D02*
X147810Y19139D01*
X151878Y19139D02*
X153234Y17783D01*
X153234Y15072D01*
X151878Y13716D01*
X147810Y13716D01*
X142523Y19139D02*
X139811Y19139D01*
X138455Y17783D01*
X138455Y13716D01*
X142523Y13716D01*
X143878Y15072D01*
X142523Y16428D01*
X138455Y16428D01*
X133167Y19139D02*
X129100Y19139D01*
X133167Y19139D02*
X134523Y17783D01*
X134523Y15072D01*
X133167Y13716D01*
X129100Y13716D01*
X123812Y19139D02*
X119745Y19139D01*
X123812Y19139D02*
X125168Y17783D01*
X125168Y15072D01*
X123812Y13716D01*
X119745Y13716D01*
X115813Y19139D02*
X114457Y19139D01*
X114457Y13716D01*
X115813Y13716D02*
X113101Y13716D01*
X114457Y21851D02*
X114457Y23207D01*
X100221Y17783D02*
X94798Y17783D01*
X81510Y13716D02*
X76087Y13716D01*
X81510Y13716D02*
X76087Y19139D01*
X76087Y20495D01*
X77443Y21851D01*
X80155Y21851D01*
X81510Y20495D01*
X72155Y20495D02*
X72155Y15072D01*
X72155Y20495D02*
X70799Y21851D01*
X68088Y21851D01*
X66732Y20495D01*
X66732Y15072D01*
X68088Y13716D01*
X70799Y13716D01*
X72155Y15072D01*
X66732Y20495D01*
X62800Y19139D02*
X60088Y21851D01*
X60088Y13716D01*
X57377Y13716D02*
X62800Y13716D01*
X53445Y20495D02*
X52089Y21851D01*
X49377Y21851D01*
X48022Y20495D01*
X48022Y19139D01*
X49377Y17783D01*
X48022Y16428D01*
X48022Y15072D01*
X49377Y13716D01*
X52089Y13716D01*
X53445Y15072D01*
X53445Y16428D01*
X52089Y17783D01*
X53445Y19139D01*
X53445Y20495D01*
X52089Y17783D02*
X49377Y17783D01*
D10*
X188849Y147701D02*
X188849Y161175D01*
X182112Y161175D01*
X179867Y158929D01*
X179867Y154438D01*
X182112Y152192D01*
X188849Y152192D01*
X184358Y152192D02*
X179867Y147701D01*
X173413Y161175D02*
X164431Y161175D01*
X173413Y161175D02*
X173413Y147701D01*
X164431Y147701D01*
X168922Y154438D02*
X173413Y154438D01*
X151240Y161175D02*
X148995Y158929D01*
X151240Y161175D02*
X155731Y161175D01*
X157977Y158929D01*
X157977Y156683D01*
X155731Y154438D01*
X151240Y154438D01*
X148995Y152192D01*
X148995Y149947D01*
X151240Y147701D01*
X155731Y147701D01*
X157977Y149947D01*
X142541Y161175D02*
X133558Y161175D01*
X142541Y161175D02*
X142541Y147701D01*
X133558Y147701D01*
X138050Y154438D02*
X142541Y154438D01*
X122614Y147701D02*
X122614Y161175D01*
X127105Y161175D02*
X118122Y161175D01*
D11*
X189310Y278042D02*
X188208Y279143D01*
X188208Y281346D01*
X189310Y282448D01*
X190412Y282448D01*
X191513Y281346D01*
X191513Y279143D01*
X192615Y278042D01*
X193716Y278042D01*
X194818Y279143D01*
X194818Y281346D01*
X193716Y282448D01*
X188208Y271659D02*
X189310Y270557D01*
X188208Y271659D02*
X188208Y273862D01*
X189310Y274964D01*
X193716Y274964D01*
X194818Y273862D01*
X194818Y271659D01*
X193716Y270557D01*
X194818Y267480D02*
X188208Y267480D01*
X194818Y267480D02*
X194818Y263073D01*
X162640Y278042D02*
X161538Y279143D01*
X161538Y281346D01*
X162640Y282448D01*
X167046Y282448D01*
X168148Y281346D01*
X168148Y279143D01*
X167046Y278042D01*
X164843Y278042D01*
X164843Y280245D01*
X168148Y274964D02*
X161538Y274964D01*
X168148Y270557D01*
X161538Y270557D01*
X161538Y267480D02*
X168148Y267480D01*
X168148Y264175D01*
X167046Y263073D01*
X162640Y263073D01*
X161538Y264175D01*
X161538Y267480D01*
X136138Y278042D02*
X136138Y282448D01*
X139443Y282448D01*
X138342Y280245D01*
X138342Y279143D01*
X139443Y278042D01*
X141646Y278042D01*
X142748Y279143D01*
X142748Y281346D01*
X141646Y282448D01*
X140545Y274964D02*
X136138Y274964D01*
X140545Y274964D02*
X142748Y272761D01*
X140545Y270557D01*
X136138Y270557D01*
X193796Y102206D02*
X194898Y101104D01*
X193796Y102206D02*
X193796Y104409D01*
X194898Y105510D01*
X199304Y105510D01*
X200406Y104409D01*
X200406Y102206D01*
X199304Y101104D01*
X197101Y101104D01*
X197101Y103307D01*
X200406Y98026D02*
X193796Y98026D01*
X200406Y93620D01*
X193796Y93620D01*
X193796Y90542D02*
X200406Y90542D01*
X200406Y87237D01*
X199304Y86136D01*
X194898Y86136D01*
X193796Y87237D01*
X193796Y90542D01*
X149606Y110500D02*
X142996Y110500D01*
X145200Y108297D01*
X142996Y106094D01*
X149606Y106094D01*
X149606Y103016D02*
X149606Y100813D01*
X149606Y101914D02*
X142996Y101914D01*
X142996Y100813D02*
X142996Y103016D01*
X142996Y94722D02*
X144098Y93620D01*
X142996Y94722D02*
X142996Y96925D01*
X144098Y98026D01*
X145200Y98026D01*
X146301Y96925D01*
X146301Y94722D01*
X147403Y93620D01*
X148504Y93620D01*
X149606Y94722D01*
X149606Y96925D01*
X148504Y98026D01*
X142996Y89441D02*
X142996Y87237D01*
X142996Y89441D02*
X144098Y90542D01*
X148504Y90542D01*
X149606Y89441D01*
X149606Y87237D01*
X148504Y86136D01*
X144098Y86136D01*
X142996Y87237D01*
X168396Y102206D02*
X169498Y101104D01*
X168396Y102206D02*
X168396Y104409D01*
X169498Y105510D01*
X170600Y105510D01*
X171701Y104409D01*
X171701Y102206D01*
X172803Y101104D01*
X173904Y101104D01*
X175006Y102206D01*
X175006Y104409D01*
X173904Y105510D01*
X168396Y94722D02*
X169498Y93620D01*
X168396Y94722D02*
X168396Y96925D01*
X169498Y98026D01*
X173904Y98026D01*
X175006Y96925D01*
X175006Y94722D01*
X173904Y93620D01*
X175006Y90542D02*
X168396Y90542D01*
X168396Y86136D02*
X172803Y90542D01*
X171701Y89441D02*
X175006Y86136D01*
X219196Y110500D02*
X225806Y110500D01*
X221400Y108297D02*
X219196Y110500D01*
X221400Y108297D02*
X219196Y106094D01*
X225806Y106094D01*
X219196Y101914D02*
X219196Y99711D01*
X219196Y101914D02*
X220298Y103016D01*
X224704Y103016D01*
X225806Y101914D01*
X225806Y99711D01*
X224704Y98609D01*
X220298Y98609D01*
X219196Y99711D01*
X219196Y92227D02*
X220298Y91125D01*
X219196Y92227D02*
X219196Y94430D01*
X220298Y95532D01*
X221400Y95532D01*
X222501Y94430D01*
X222501Y92227D01*
X223603Y91125D01*
X224704Y91125D01*
X225806Y92227D01*
X225806Y94430D01*
X224704Y95532D01*
X225806Y88047D02*
X225806Y85844D01*
X225806Y86946D02*
X219196Y86946D01*
X219196Y88047D02*
X219196Y85844D01*
X244596Y93620D02*
X244596Y98026D01*
X247901Y98026D01*
X246800Y95823D01*
X246800Y94722D01*
X247901Y93620D01*
X250104Y93620D01*
X251206Y94722D01*
X251206Y96925D01*
X250104Y98026D01*
X249003Y90542D02*
X244596Y90542D01*
X249003Y90542D02*
X251206Y88339D01*
X249003Y86136D01*
X244596Y86136D01*
D12*
X230900Y122400D02*
X230998Y122402D01*
X231096Y122408D01*
X231194Y122417D01*
X231291Y122431D01*
X231388Y122448D01*
X231484Y122469D01*
X231579Y122494D01*
X231673Y122522D01*
X231765Y122555D01*
X231857Y122590D01*
X231947Y122630D01*
X232035Y122672D01*
X232122Y122719D01*
X232206Y122768D01*
X232289Y122821D01*
X232369Y122877D01*
X232448Y122937D01*
X232524Y122999D01*
X232597Y123064D01*
X232668Y123132D01*
X232736Y123203D01*
X232801Y123276D01*
X232863Y123352D01*
X232923Y123431D01*
X232979Y123511D01*
X233032Y123594D01*
X233081Y123678D01*
X233128Y123765D01*
X233170Y123853D01*
X233210Y123943D01*
X233245Y124035D01*
X233278Y124127D01*
X233306Y124221D01*
X233331Y124316D01*
X233352Y124412D01*
X233369Y124509D01*
X233383Y124606D01*
X233392Y124704D01*
X233398Y124802D01*
X233400Y124900D01*
X233400Y179900D01*
X233398Y179998D01*
X233392Y180096D01*
X233383Y180194D01*
X233369Y180291D01*
X233352Y180388D01*
X233331Y180484D01*
X233306Y180579D01*
X233278Y180673D01*
X233245Y180765D01*
X233210Y180857D01*
X233170Y180947D01*
X233128Y181035D01*
X233081Y181122D01*
X233032Y181206D01*
X232979Y181289D01*
X232923Y181369D01*
X232863Y181448D01*
X232801Y181524D01*
X232736Y181597D01*
X232668Y181668D01*
X232597Y181736D01*
X232524Y181801D01*
X232448Y181863D01*
X232369Y181923D01*
X232289Y181979D01*
X232206Y182032D01*
X232122Y182081D01*
X232035Y182128D01*
X231947Y182170D01*
X231857Y182210D01*
X231765Y182245D01*
X231673Y182278D01*
X231579Y182306D01*
X231484Y182331D01*
X231388Y182352D01*
X231291Y182369D01*
X231194Y182383D01*
X231096Y182392D01*
X230998Y182398D01*
X230900Y182400D01*
X200900Y182400D02*
X200802Y182398D01*
X200704Y182392D01*
X200606Y182383D01*
X200509Y182369D01*
X200412Y182352D01*
X200316Y182331D01*
X200221Y182306D01*
X200127Y182278D01*
X200035Y182245D01*
X199943Y182210D01*
X199853Y182170D01*
X199765Y182128D01*
X199678Y182081D01*
X199594Y182032D01*
X199511Y181979D01*
X199431Y181923D01*
X199352Y181863D01*
X199276Y181801D01*
X199203Y181736D01*
X199132Y181668D01*
X199064Y181597D01*
X198999Y181524D01*
X198937Y181448D01*
X198877Y181369D01*
X198821Y181289D01*
X198768Y181206D01*
X198719Y181122D01*
X198672Y181035D01*
X198630Y180947D01*
X198590Y180857D01*
X198555Y180765D01*
X198522Y180673D01*
X198494Y180579D01*
X198469Y180484D01*
X198448Y180388D01*
X198431Y180291D01*
X198417Y180194D01*
X198408Y180096D01*
X198402Y179998D01*
X198400Y179900D01*
X198400Y124900D01*
X198402Y124802D01*
X198408Y124704D01*
X198417Y124606D01*
X198431Y124509D01*
X198448Y124412D01*
X198469Y124316D01*
X198494Y124221D01*
X198522Y124127D01*
X198555Y124035D01*
X198590Y123943D01*
X198630Y123853D01*
X198672Y123765D01*
X198719Y123678D01*
X198768Y123594D01*
X198821Y123511D01*
X198877Y123431D01*
X198937Y123352D01*
X198999Y123276D01*
X199064Y123203D01*
X199132Y123132D01*
X199203Y123064D01*
X199276Y122999D01*
X199352Y122937D01*
X199431Y122877D01*
X199511Y122821D01*
X199594Y122768D01*
X199678Y122719D01*
X199765Y122672D01*
X199853Y122630D01*
X199943Y122590D01*
X200035Y122555D01*
X200127Y122522D01*
X200221Y122494D01*
X200316Y122469D01*
X200412Y122448D01*
X200509Y122431D01*
X200606Y122417D01*
X200704Y122408D01*
X200802Y122402D01*
X200900Y122400D01*
X204900Y122400D01*
X226900Y122400D02*
X230900Y122400D01*
X230900Y182400D02*
X226900Y182400D01*
X204900Y182400D02*
X200900Y182400D01*
X223400Y167400D02*
X223400Y137400D01*
X208400Y137400D02*
X208400Y167400D01*
X208400Y137400D02*
X223400Y137400D01*
X223400Y167400D02*
X208400Y167400D01*
D14*
X239610Y150642D02*
X240415Y149837D01*
X240415Y148227D01*
X239610Y147422D01*
X238805Y147422D01*
X238000Y148227D01*
X238000Y149837D01*
X237195Y150642D01*
X236390Y150642D01*
X235585Y149837D01*
X235585Y148227D01*
X236390Y147422D01*
X239610Y153035D02*
X240415Y153840D01*
X240415Y155450D01*
X239610Y156255D01*
X238805Y156255D01*
X238000Y155450D01*
X238000Y154645D01*
X238000Y155450D02*
X237195Y156255D01*
X236390Y156255D01*
X235585Y155450D01*
X235585Y153840D01*
X236390Y153035D01*
M02*
