G04 EAGLE Gerber RS-274X export*
G75*
%MOMM*%
%FSLAX34Y34*%
%LPD*%
%INSilkscreen Top*%
%IPPOS*%
%AMOC8*
5,1,8,0,0,1.08239X$1,22.5*%
G01*
%ADD10C,0.152400*%
%ADD11C,0.203200*%
%ADD12C,0.127000*%
%ADD13R,0.457200X0.762000*%
%ADD14R,0.762000X0.457200*%

G36*
X320470Y61106D02*
X320470Y61106D01*
X320578Y61116D01*
X320591Y61122D01*
X320605Y61124D01*
X320702Y61172D01*
X320801Y61217D01*
X320814Y61228D01*
X320823Y61232D01*
X320838Y61248D01*
X320915Y61310D01*
X323500Y63895D01*
X323563Y63984D01*
X323629Y64069D01*
X323634Y64082D01*
X323642Y64094D01*
X323673Y64197D01*
X323709Y64300D01*
X323709Y64314D01*
X323713Y64327D01*
X323709Y64435D01*
X323710Y64544D01*
X323705Y64557D01*
X323705Y64571D01*
X323667Y64673D01*
X323632Y64775D01*
X323623Y64790D01*
X323619Y64799D01*
X323605Y64816D01*
X323551Y64898D01*
X320787Y68288D01*
X321344Y69370D01*
X321350Y69390D01*
X321392Y69485D01*
X321763Y70644D01*
X326114Y71087D01*
X326218Y71115D01*
X326324Y71140D01*
X326336Y71147D01*
X326349Y71150D01*
X326439Y71211D01*
X326532Y71268D01*
X326540Y71279D01*
X326552Y71287D01*
X326618Y71373D01*
X326687Y71457D01*
X326691Y71470D01*
X326700Y71481D01*
X326734Y71584D01*
X326773Y71685D01*
X326774Y71703D01*
X326778Y71712D01*
X326778Y71734D01*
X326787Y71832D01*
X326787Y75488D01*
X326770Y75595D01*
X326756Y75703D01*
X326750Y75715D01*
X326748Y75729D01*
X326696Y75825D01*
X326649Y75922D01*
X326639Y75932D01*
X326633Y75944D01*
X326553Y76018D01*
X326477Y76095D01*
X326465Y76101D01*
X326455Y76111D01*
X326356Y76156D01*
X326259Y76204D01*
X326241Y76208D01*
X326232Y76212D01*
X326211Y76214D01*
X326114Y76233D01*
X321763Y76676D01*
X321392Y77835D01*
X321383Y77852D01*
X321381Y77860D01*
X321377Y77867D01*
X321344Y77950D01*
X320787Y79032D01*
X323551Y82422D01*
X323605Y82516D01*
X323662Y82608D01*
X323665Y82621D01*
X323672Y82633D01*
X323693Y82740D01*
X323718Y82845D01*
X323716Y82859D01*
X323719Y82873D01*
X323704Y82980D01*
X323694Y83088D01*
X323688Y83101D01*
X323686Y83115D01*
X323638Y83212D01*
X323593Y83311D01*
X323582Y83324D01*
X323578Y83333D01*
X323562Y83348D01*
X323500Y83425D01*
X320915Y86010D01*
X320826Y86073D01*
X320741Y86139D01*
X320728Y86144D01*
X320716Y86152D01*
X320613Y86183D01*
X320510Y86219D01*
X320496Y86219D01*
X320483Y86223D01*
X320375Y86219D01*
X320266Y86220D01*
X320253Y86215D01*
X320239Y86215D01*
X320137Y86177D01*
X320035Y86142D01*
X320020Y86133D01*
X320011Y86129D01*
X319994Y86115D01*
X319912Y86061D01*
X316522Y83297D01*
X315440Y83854D01*
X315420Y83860D01*
X315325Y83902D01*
X314166Y84273D01*
X313723Y88624D01*
X313695Y88728D01*
X313670Y88834D01*
X313663Y88846D01*
X313660Y88859D01*
X313599Y88949D01*
X313542Y89042D01*
X313531Y89050D01*
X313523Y89062D01*
X313437Y89128D01*
X313353Y89197D01*
X313340Y89201D01*
X313329Y89210D01*
X313226Y89244D01*
X313125Y89283D01*
X313107Y89284D01*
X313098Y89288D01*
X313076Y89288D01*
X312978Y89297D01*
X309322Y89297D01*
X309215Y89280D01*
X309107Y89266D01*
X309095Y89260D01*
X309081Y89258D01*
X308985Y89206D01*
X308888Y89159D01*
X308878Y89149D01*
X308866Y89143D01*
X308792Y89063D01*
X308715Y88987D01*
X308709Y88975D01*
X308699Y88965D01*
X308654Y88866D01*
X308606Y88769D01*
X308602Y88751D01*
X308598Y88742D01*
X308596Y88721D01*
X308577Y88624D01*
X308134Y84273D01*
X306975Y83902D01*
X306957Y83892D01*
X306860Y83854D01*
X305778Y83297D01*
X302388Y86061D01*
X302294Y86115D01*
X302202Y86172D01*
X302189Y86175D01*
X302177Y86182D01*
X302070Y86203D01*
X301965Y86228D01*
X301951Y86226D01*
X301937Y86229D01*
X301830Y86214D01*
X301722Y86204D01*
X301709Y86198D01*
X301696Y86196D01*
X301598Y86148D01*
X301499Y86103D01*
X301486Y86092D01*
X301477Y86088D01*
X301462Y86072D01*
X301385Y86010D01*
X298800Y83425D01*
X298737Y83336D01*
X298671Y83251D01*
X298666Y83238D01*
X298658Y83226D01*
X298627Y83123D01*
X298591Y83020D01*
X298591Y83006D01*
X298587Y82993D01*
X298591Y82885D01*
X298590Y82776D01*
X298595Y82763D01*
X298595Y82749D01*
X298633Y82647D01*
X298668Y82545D01*
X298677Y82530D01*
X298681Y82521D01*
X298695Y82504D01*
X298749Y82422D01*
X301513Y79032D01*
X300956Y77950D01*
X300950Y77930D01*
X300908Y77835D01*
X300537Y76676D01*
X296186Y76233D01*
X296082Y76205D01*
X295976Y76180D01*
X295964Y76173D01*
X295951Y76170D01*
X295861Y76109D01*
X295768Y76052D01*
X295760Y76041D01*
X295748Y76033D01*
X295682Y75947D01*
X295614Y75863D01*
X295609Y75850D01*
X295600Y75839D01*
X295566Y75736D01*
X295527Y75635D01*
X295526Y75617D01*
X295522Y75608D01*
X295523Y75586D01*
X295513Y75488D01*
X295513Y71832D01*
X295530Y71725D01*
X295544Y71617D01*
X295550Y71605D01*
X295552Y71591D01*
X295604Y71495D01*
X295651Y71398D01*
X295661Y71388D01*
X295667Y71376D01*
X295747Y71302D01*
X295823Y71225D01*
X295835Y71219D01*
X295846Y71209D01*
X295944Y71164D01*
X296041Y71116D01*
X296059Y71112D01*
X296068Y71108D01*
X296089Y71106D01*
X296186Y71087D01*
X300537Y70644D01*
X300908Y69485D01*
X300918Y69467D01*
X300956Y69370D01*
X301513Y68288D01*
X298749Y64898D01*
X298695Y64804D01*
X298638Y64712D01*
X298635Y64699D01*
X298628Y64687D01*
X298607Y64580D01*
X298582Y64475D01*
X298584Y64461D01*
X298581Y64447D01*
X298596Y64340D01*
X298606Y64232D01*
X298612Y64219D01*
X298614Y64206D01*
X298662Y64108D01*
X298707Y64009D01*
X298718Y63996D01*
X298722Y63987D01*
X298738Y63972D01*
X298800Y63895D01*
X301385Y61310D01*
X301474Y61247D01*
X301559Y61181D01*
X301572Y61176D01*
X301584Y61168D01*
X301687Y61137D01*
X301790Y61101D01*
X301804Y61101D01*
X301817Y61097D01*
X301925Y61101D01*
X302034Y61100D01*
X302047Y61105D01*
X302061Y61105D01*
X302163Y61143D01*
X302265Y61178D01*
X302280Y61187D01*
X302289Y61191D01*
X302306Y61205D01*
X302388Y61259D01*
X305778Y64023D01*
X306860Y63466D01*
X306913Y63449D01*
X306962Y63423D01*
X307028Y63412D01*
X307092Y63391D01*
X307148Y63392D01*
X307202Y63383D01*
X307269Y63394D01*
X307336Y63395D01*
X307388Y63413D01*
X307443Y63422D01*
X307503Y63454D01*
X307566Y63477D01*
X307609Y63511D01*
X307659Y63537D01*
X307705Y63586D01*
X307757Y63628D01*
X307788Y63675D01*
X307826Y63715D01*
X307882Y63820D01*
X307890Y63833D01*
X307891Y63838D01*
X307895Y63845D01*
X310048Y69042D01*
X310068Y69125D01*
X310073Y69138D01*
X310075Y69154D01*
X310100Y69240D01*
X310099Y69260D01*
X310104Y69280D01*
X310096Y69362D01*
X310098Y69381D01*
X310093Y69402D01*
X310089Y69484D01*
X310082Y69503D01*
X310080Y69523D01*
X310049Y69592D01*
X310042Y69619D01*
X310027Y69644D01*
X310000Y69712D01*
X309987Y69727D01*
X309979Y69745D01*
X309934Y69794D01*
X309914Y69826D01*
X309882Y69852D01*
X309843Y69898D01*
X309822Y69913D01*
X309812Y69923D01*
X309791Y69935D01*
X309728Y69979D01*
X309725Y69981D01*
X309724Y69981D01*
X309722Y69983D01*
X308838Y70478D01*
X308159Y71105D01*
X307645Y71874D01*
X307325Y72742D01*
X307217Y73659D01*
X307330Y74594D01*
X307661Y75475D01*
X308193Y76252D01*
X308894Y76881D01*
X309724Y77324D01*
X310636Y77558D01*
X311578Y77568D01*
X312494Y77354D01*
X313334Y76929D01*
X314048Y76316D01*
X314597Y75551D01*
X314948Y74677D01*
X315081Y73745D01*
X314989Y72808D01*
X314677Y71920D01*
X314162Y71132D01*
X313475Y70488D01*
X312576Y69982D01*
X312535Y69949D01*
X312494Y69927D01*
X312463Y69894D01*
X312415Y69859D01*
X312402Y69842D01*
X312386Y69829D01*
X312351Y69775D01*
X312327Y69749D01*
X312313Y69718D01*
X312272Y69661D01*
X312266Y69641D01*
X312255Y69623D01*
X312237Y69550D01*
X312227Y69527D01*
X312224Y69503D01*
X312201Y69428D01*
X312202Y69407D01*
X312197Y69386D01*
X312204Y69302D01*
X312203Y69284D01*
X312206Y69267D01*
X312209Y69184D01*
X312217Y69158D01*
X312218Y69143D01*
X312228Y69121D01*
X312252Y69042D01*
X312560Y68297D01*
X312561Y68297D01*
X312871Y67548D01*
X313181Y66799D01*
X313181Y66798D01*
X313492Y66050D01*
X313492Y66049D01*
X313802Y65300D01*
X314112Y64551D01*
X314113Y64551D01*
X314405Y63845D01*
X314434Y63798D01*
X314455Y63746D01*
X314498Y63695D01*
X314534Y63638D01*
X314577Y63603D01*
X314613Y63560D01*
X314670Y63526D01*
X314722Y63483D01*
X314774Y63464D01*
X314822Y63435D01*
X314888Y63421D01*
X314951Y63397D01*
X315006Y63395D01*
X315060Y63384D01*
X315127Y63391D01*
X315194Y63389D01*
X315248Y63405D01*
X315303Y63412D01*
X315414Y63456D01*
X315428Y63460D01*
X315432Y63463D01*
X315440Y63466D01*
X316522Y64023D01*
X319912Y61259D01*
X320006Y61205D01*
X320098Y61148D01*
X320111Y61145D01*
X320123Y61138D01*
X320230Y61117D01*
X320335Y61092D01*
X320349Y61094D01*
X320363Y61091D01*
X320470Y61106D01*
G37*
D10*
X135459Y127088D02*
X134357Y125987D01*
X134357Y123784D01*
X135459Y122682D01*
X139865Y122682D01*
X140967Y123784D01*
X140967Y125987D01*
X139865Y127088D01*
X136561Y130166D02*
X134357Y132369D01*
X140967Y132369D01*
X140967Y130166D02*
X140967Y134573D01*
X139865Y137650D02*
X135459Y137650D01*
X134357Y138752D01*
X134357Y140955D01*
X135459Y142057D01*
X139865Y142057D01*
X140967Y140955D01*
X140967Y138752D01*
X139865Y137650D01*
X135459Y142057D01*
X136434Y149733D02*
X134230Y151936D01*
X140840Y151936D01*
X140840Y149733D02*
X140840Y154139D01*
X139738Y157217D02*
X136434Y157217D01*
X139738Y157217D02*
X140840Y158319D01*
X140840Y161624D01*
X136434Y161624D01*
X134230Y164701D02*
X140840Y164701D01*
X134230Y164701D02*
X134230Y169108D01*
X137535Y166905D02*
X137535Y164701D01*
D11*
X185180Y145220D02*
X200180Y145220D01*
X200180Y121220D01*
X185180Y121220D01*
X165180Y145220D02*
X154180Y145220D01*
X150180Y141220D01*
X150180Y125220D01*
X154180Y121220D01*
X165180Y121220D01*
D12*
X171370Y123060D02*
X171370Y143380D01*
D10*
X152729Y120366D02*
X153831Y119264D01*
X152729Y120366D02*
X150526Y120366D01*
X149424Y119264D01*
X149424Y114858D01*
X150526Y113756D01*
X152729Y113756D01*
X153831Y114858D01*
X156909Y118162D02*
X159112Y120366D01*
X159112Y113756D01*
X156909Y113756D02*
X161315Y113756D01*
X164393Y119264D02*
X165494Y120366D01*
X167698Y120366D01*
X168799Y119264D01*
X168799Y118162D01*
X167698Y117061D01*
X166596Y117061D01*
X167698Y117061D02*
X168799Y115959D01*
X168799Y114858D01*
X167698Y113756D01*
X165494Y113756D01*
X164393Y114858D01*
X178701Y117622D02*
X180904Y119825D01*
X180904Y113215D01*
X178701Y113215D02*
X183108Y113215D01*
X186185Y114317D02*
X186185Y118723D01*
X187287Y119825D01*
X189490Y119825D01*
X190592Y118723D01*
X190592Y114317D01*
X189490Y113215D01*
X187287Y113215D01*
X186185Y114317D01*
X190592Y118723D01*
X193670Y117622D02*
X193670Y114317D01*
X194771Y113215D01*
X198076Y113215D01*
X198076Y117622D01*
X201154Y119825D02*
X201154Y113215D01*
X201154Y119825D02*
X205560Y119825D01*
X203357Y116520D02*
X201154Y116520D01*
D13*
X273050Y292100D03*
D10*
X238252Y295027D02*
X238252Y288417D01*
X238252Y295027D02*
X241557Y295027D01*
X242658Y293925D01*
X242658Y291722D01*
X241557Y290620D01*
X238252Y290620D01*
X240455Y290620D02*
X242658Y288417D01*
X245736Y292823D02*
X247939Y295027D01*
X247939Y288417D01*
X245736Y288417D02*
X250143Y288417D01*
X253220Y292823D02*
X255424Y295027D01*
X255424Y288417D01*
X257627Y288417D02*
X253220Y288417D01*
X289687Y293290D02*
X290789Y294392D01*
X292992Y294392D01*
X294093Y293290D01*
X294093Y292188D01*
X292992Y291087D01*
X291890Y291087D01*
X292992Y291087D02*
X294093Y289985D01*
X294093Y288884D01*
X292992Y287782D01*
X290789Y287782D01*
X289687Y288884D01*
X297171Y293290D02*
X298273Y294392D01*
X300476Y294392D01*
X301578Y293290D01*
X301578Y292188D01*
X300476Y291087D01*
X299374Y291087D01*
X300476Y291087D02*
X301578Y289985D01*
X301578Y288884D01*
X300476Y287782D01*
X298273Y287782D01*
X297171Y288884D01*
X304655Y288884D02*
X304655Y293290D01*
X305757Y294392D01*
X307960Y294392D01*
X309062Y293290D01*
X309062Y288884D01*
X307960Y287782D01*
X305757Y287782D01*
X304655Y288884D01*
X309062Y293290D01*
D11*
X331950Y239600D02*
X336550Y239600D01*
X341150Y239600D01*
X336550Y239600D02*
X334212Y242700D01*
X336804Y239754D02*
X338734Y242700D01*
D10*
X328803Y229362D02*
X322193Y229362D01*
X328803Y229362D02*
X328803Y233768D01*
X322193Y236846D02*
X322193Y241253D01*
X322193Y236846D02*
X328803Y236846D01*
X328803Y241253D01*
X325498Y239049D02*
X325498Y236846D01*
X322193Y244330D02*
X328803Y244330D01*
X328803Y247635D01*
X327701Y248737D01*
X323295Y248737D01*
X322193Y247635D01*
X322193Y244330D01*
X324397Y251814D02*
X322193Y254018D01*
X328803Y254018D01*
X328803Y256221D02*
X328803Y251814D01*
X343783Y224282D02*
X350393Y224282D01*
X343783Y224282D02*
X343783Y227587D01*
X344885Y228688D01*
X345987Y228688D01*
X347088Y227587D01*
X348190Y228688D01*
X349291Y228688D01*
X350393Y227587D01*
X350393Y224282D01*
X347088Y224282D02*
X347088Y227587D01*
X343783Y231766D02*
X343783Y232868D01*
X350393Y232868D01*
X350393Y233969D02*
X350393Y231766D01*
X349291Y236756D02*
X345987Y236756D01*
X349291Y236756D02*
X350393Y237857D01*
X350393Y241162D01*
X345987Y241162D01*
X350393Y245341D02*
X350393Y247545D01*
X350393Y245341D02*
X349291Y244240D01*
X347088Y244240D01*
X345987Y245341D01*
X345987Y247545D01*
X347088Y248646D01*
X348190Y248646D01*
X348190Y244240D01*
D13*
X212090Y214630D03*
D10*
X206502Y222377D02*
X206502Y228987D01*
X209807Y228987D01*
X210908Y227885D01*
X210908Y225682D01*
X209807Y224580D01*
X206502Y224580D01*
X208705Y224580D02*
X210908Y222377D01*
X213986Y222377D02*
X218393Y222377D01*
X218393Y226783D02*
X213986Y222377D01*
X218393Y226783D02*
X218393Y227885D01*
X217291Y228987D01*
X215088Y228987D01*
X213986Y227885D01*
X205022Y207524D02*
X202819Y205320D01*
X205022Y207524D02*
X205022Y200914D01*
X202819Y200914D02*
X207225Y200914D01*
X210303Y202016D02*
X210303Y206422D01*
X211405Y207524D01*
X213608Y207524D01*
X214710Y206422D01*
X214710Y202016D01*
X213608Y200914D01*
X211405Y200914D01*
X210303Y202016D01*
X214710Y206422D01*
X217787Y207524D02*
X217787Y200914D01*
X217787Y203117D02*
X222194Y207524D01*
X218889Y204219D02*
X222194Y200914D01*
X106768Y128825D02*
X105667Y129927D01*
X103464Y129927D01*
X102362Y128825D01*
X102362Y124419D01*
X103464Y123317D01*
X105667Y123317D01*
X106768Y124419D01*
X109846Y128825D02*
X110948Y129927D01*
X113151Y129927D01*
X114253Y128825D01*
X114253Y127723D01*
X113151Y126622D01*
X112049Y126622D01*
X113151Y126622D02*
X114253Y125520D01*
X114253Y124419D01*
X113151Y123317D01*
X110948Y123317D01*
X109846Y124419D01*
X115396Y139573D02*
X119802Y139573D01*
X115396Y139573D02*
X114294Y140675D01*
X114294Y142878D01*
X115396Y143979D01*
X119802Y143979D01*
X120904Y142878D01*
X120904Y140675D01*
X119802Y139573D01*
X115396Y143979D01*
X119802Y147057D02*
X120904Y147057D01*
X119802Y147057D02*
X119802Y148159D01*
X120904Y148159D01*
X120904Y147057D01*
X116498Y150799D02*
X114294Y153002D01*
X120904Y153002D01*
X120904Y150799D02*
X120904Y155206D01*
X119802Y158283D02*
X116498Y158283D01*
X119802Y158283D02*
X120904Y159385D01*
X120904Y162690D01*
X116498Y162690D01*
X114294Y165768D02*
X120904Y165768D01*
X114294Y165768D02*
X114294Y170174D01*
X117599Y167971D02*
X117599Y165768D01*
X86617Y129927D02*
X87718Y128825D01*
X86617Y129927D02*
X84414Y129927D01*
X83312Y128825D01*
X83312Y124419D01*
X84414Y123317D01*
X86617Y123317D01*
X87718Y124419D01*
X90796Y127723D02*
X92999Y129927D01*
X92999Y123317D01*
X90796Y123317D02*
X95203Y123317D01*
X96346Y141605D02*
X100752Y141605D01*
X96346Y141605D02*
X95244Y142707D01*
X95244Y144910D01*
X96346Y146011D01*
X100752Y146011D01*
X101854Y144910D01*
X101854Y142707D01*
X100752Y141605D01*
X96346Y146011D01*
X100752Y149089D02*
X101854Y149089D01*
X100752Y149089D02*
X100752Y150191D01*
X101854Y150191D01*
X101854Y149089D01*
X97448Y152831D02*
X95244Y155034D01*
X101854Y155034D01*
X101854Y152831D02*
X101854Y157238D01*
X100752Y160315D02*
X97448Y160315D01*
X100752Y160315D02*
X101854Y161417D01*
X101854Y164722D01*
X97448Y164722D01*
X95244Y167800D02*
X101854Y167800D01*
X95244Y167800D02*
X95244Y172206D01*
X98549Y170003D02*
X98549Y167800D01*
D13*
X273050Y330200D03*
D10*
X244282Y327152D02*
X244282Y333762D01*
X247587Y333762D01*
X248688Y332660D01*
X248688Y330457D01*
X247587Y329355D01*
X244282Y329355D01*
X246485Y329355D02*
X248688Y327152D01*
X253969Y332660D02*
X256173Y333762D01*
X253969Y332660D02*
X251766Y330457D01*
X251766Y328254D01*
X252868Y327152D01*
X255071Y327152D01*
X256173Y328254D01*
X256173Y329355D01*
X255071Y330457D01*
X251766Y330457D01*
X289438Y331390D02*
X290540Y332492D01*
X292743Y332492D01*
X293844Y331390D01*
X293844Y330288D01*
X292743Y329187D01*
X291641Y329187D01*
X292743Y329187D02*
X293844Y328085D01*
X293844Y326984D01*
X292743Y325882D01*
X290540Y325882D01*
X289438Y326984D01*
X296922Y331390D02*
X298024Y332492D01*
X300227Y332492D01*
X301329Y331390D01*
X301329Y330288D01*
X300227Y329187D01*
X299125Y329187D01*
X300227Y329187D02*
X301329Y328085D01*
X301329Y326984D01*
X300227Y325882D01*
X298024Y325882D01*
X296922Y326984D01*
X304406Y326984D02*
X304406Y331390D01*
X305508Y332492D01*
X307711Y332492D01*
X308813Y331390D01*
X308813Y326984D01*
X307711Y325882D01*
X305508Y325882D01*
X304406Y326984D01*
X308813Y331390D01*
D11*
X336550Y319200D02*
X341150Y319200D01*
X336550Y319200D02*
X331950Y319200D01*
X336550Y319200D02*
X338888Y316100D01*
X336296Y319046D02*
X334366Y316100D01*
D10*
X330708Y303972D02*
X324098Y303972D01*
X330708Y303972D02*
X330708Y308378D01*
X324098Y311456D02*
X324098Y315863D01*
X324098Y311456D02*
X330708Y311456D01*
X330708Y315863D01*
X327403Y313659D02*
X327403Y311456D01*
X324098Y318940D02*
X330708Y318940D01*
X330708Y322245D01*
X329606Y323347D01*
X325200Y323347D01*
X324098Y322245D01*
X324098Y318940D01*
X325200Y326424D02*
X324098Y327526D01*
X324098Y329729D01*
X325200Y330831D01*
X326302Y330831D01*
X327403Y329729D01*
X327403Y328628D01*
X327403Y329729D02*
X328505Y330831D01*
X329606Y330831D01*
X330708Y329729D01*
X330708Y327526D01*
X329606Y326424D01*
X342894Y308234D02*
X349504Y308234D01*
X342894Y308234D02*
X342894Y311539D01*
X343996Y312640D01*
X346199Y312640D01*
X347301Y311539D01*
X347301Y308234D01*
X347301Y310437D02*
X349504Y312640D01*
X349504Y316820D02*
X349504Y319023D01*
X349504Y316820D02*
X348402Y315718D01*
X346199Y315718D01*
X345098Y316820D01*
X345098Y319023D01*
X346199Y320125D01*
X347301Y320125D01*
X347301Y315718D01*
X349504Y327609D02*
X342894Y327609D01*
X349504Y327609D02*
X349504Y324304D01*
X348402Y323202D01*
X346199Y323202D01*
X345098Y324304D01*
X345098Y327609D01*
D11*
X136178Y268919D02*
X133350Y271747D01*
X130522Y268919D01*
X180019Y225078D02*
X182847Y222250D01*
X180019Y219422D01*
X86681Y225078D02*
X83853Y222250D01*
X86681Y219422D01*
X129814Y176288D02*
X136886Y176288D01*
D10*
X76877Y228364D02*
X73761Y231480D01*
X73761Y234596D01*
X76877Y234596D01*
X79993Y231480D01*
X77656Y233817D02*
X74540Y230701D01*
X83727Y235214D02*
X79053Y239888D01*
X77495Y238330D02*
X80611Y241446D01*
X82787Y243622D02*
X87461Y238948D01*
X85903Y243622D02*
X82787Y243622D01*
X85903Y243622D02*
X85903Y246738D01*
X90577Y242064D01*
X88080Y248914D02*
X91195Y252030D01*
X88080Y248914D02*
X92753Y244240D01*
X95869Y247356D01*
X91974Y248135D02*
X90416Y246577D01*
X95708Y256543D02*
X97266Y256543D01*
X95708Y256543D02*
X94151Y254985D01*
X94151Y253427D01*
X97266Y250311D01*
X98824Y250311D01*
X100382Y251869D01*
X100382Y253427D01*
X98824Y254985D01*
X97266Y253427D01*
X100222Y257940D02*
X103337Y254825D01*
X100222Y257940D02*
X100222Y261056D01*
X103337Y261056D01*
X106453Y257940D01*
X104116Y260277D02*
X101001Y257161D01*
X104735Y264011D02*
X104735Y265569D01*
X106293Y267127D01*
X107851Y267127D01*
X108630Y266348D01*
X108630Y264790D01*
X107851Y264011D01*
X108630Y264790D02*
X110187Y264790D01*
X110966Y264011D01*
X110966Y262453D01*
X109408Y260896D01*
X107851Y260896D01*
X113922Y265409D02*
X117037Y268524D01*
X113922Y265409D02*
X113922Y271640D01*
X113143Y272419D01*
X111585Y272419D01*
X110027Y270861D01*
X110027Y269303D01*
X114540Y275374D02*
X118435Y271480D01*
X119993Y271480D01*
X121551Y273038D01*
X121551Y274596D01*
X117656Y278490D01*
X122169Y283003D02*
X126843Y278330D01*
X122169Y278330D02*
X122169Y283003D01*
X125285Y281446D02*
X122169Y278330D01*
D11*
X273560Y240950D02*
X273560Y228950D01*
X286560Y259950D02*
X292560Y259950D01*
X305560Y240950D02*
X305560Y228950D01*
X292560Y209950D02*
X286560Y209950D01*
D10*
X308858Y217595D02*
X311062Y215392D01*
X308858Y217595D02*
X315468Y217595D01*
X315468Y215392D02*
X315468Y219798D01*
X309960Y225079D02*
X308858Y227283D01*
X309960Y225079D02*
X312163Y222876D01*
X314366Y222876D01*
X315468Y223978D01*
X315468Y226181D01*
X314366Y227283D01*
X313265Y227283D01*
X312163Y226181D01*
X312163Y222876D01*
X315468Y230360D02*
X308858Y230360D01*
X311062Y232564D01*
X308858Y234767D01*
X315468Y234767D01*
X315468Y237844D02*
X308858Y237844D01*
X312163Y237844D02*
X312163Y242251D01*
X308858Y242251D02*
X315468Y242251D01*
X311062Y245329D02*
X311062Y249735D01*
X315468Y245329D01*
X315468Y249735D01*
X247738Y275510D02*
X246637Y276612D01*
X244434Y276612D01*
X243332Y275510D01*
X243332Y271104D01*
X244434Y270002D01*
X246637Y270002D01*
X247738Y271104D01*
X250816Y270002D02*
X255223Y270002D01*
X255223Y274408D02*
X250816Y270002D01*
X255223Y274408D02*
X255223Y275510D01*
X254121Y276612D01*
X251918Y276612D01*
X250816Y275510D01*
X260858Y245198D02*
X260858Y240792D01*
X256452Y245198D01*
X255350Y245198D01*
X254248Y244097D01*
X254248Y241894D01*
X255350Y240792D01*
X260858Y248276D02*
X260858Y252683D01*
X256452Y252683D02*
X260858Y248276D01*
X256452Y252683D02*
X255350Y252683D01*
X254248Y251581D01*
X254248Y249378D01*
X255350Y248276D01*
X256452Y255760D02*
X263061Y255760D01*
X256452Y255760D02*
X256452Y259065D01*
X257553Y260167D01*
X259756Y260167D01*
X260858Y259065D01*
X260858Y255760D01*
X260858Y263244D02*
X254248Y263244D01*
X254248Y267651D01*
X257553Y265448D02*
X257553Y263244D01*
X235030Y213448D02*
X233928Y212347D01*
X233928Y210144D01*
X235030Y209042D01*
X239436Y209042D01*
X240538Y210144D01*
X240538Y212347D01*
X239436Y213448D01*
X240538Y219831D02*
X233928Y219831D01*
X237233Y216526D01*
X237233Y220933D01*
X260858Y208368D02*
X260858Y203962D01*
X256452Y208368D01*
X255350Y208368D01*
X254248Y207267D01*
X254248Y205064D01*
X255350Y203962D01*
X260858Y211446D02*
X260858Y215853D01*
X256452Y215853D02*
X260858Y211446D01*
X256452Y215853D02*
X255350Y215853D01*
X254248Y214751D01*
X254248Y212548D01*
X255350Y211446D01*
X256452Y218930D02*
X263061Y218930D01*
X256452Y218930D02*
X256452Y222235D01*
X257553Y223337D01*
X259756Y223337D01*
X260858Y222235D01*
X260858Y218930D01*
X260858Y226414D02*
X254248Y226414D01*
X254248Y230821D01*
X257553Y228618D02*
X257553Y226414D01*
X151218Y168830D02*
X150117Y169932D01*
X147914Y169932D01*
X146812Y168830D01*
X146812Y164424D01*
X147914Y163322D01*
X150117Y163322D01*
X151218Y164424D01*
X154296Y169932D02*
X158703Y169932D01*
X154296Y169932D02*
X154296Y166627D01*
X156499Y167728D01*
X157601Y167728D01*
X158703Y166627D01*
X158703Y164424D01*
X157601Y163322D01*
X155398Y163322D01*
X154296Y164424D01*
X168402Y167728D02*
X170605Y169932D01*
X170605Y163322D01*
X168402Y163322D02*
X172808Y163322D01*
X175886Y164424D02*
X175886Y167728D01*
X175886Y164424D02*
X176988Y163322D01*
X180293Y163322D01*
X180293Y167728D01*
X183370Y169932D02*
X183370Y163322D01*
X183370Y169932D02*
X187777Y169932D01*
X185574Y166627D02*
X183370Y166627D01*
X230127Y148342D02*
X231228Y147240D01*
X230127Y148342D02*
X227924Y148342D01*
X226822Y147240D01*
X226822Y142834D01*
X227924Y141732D01*
X230127Y141732D01*
X231228Y142834D01*
X236509Y147240D02*
X238713Y148342D01*
X236509Y147240D02*
X234306Y145037D01*
X234306Y142834D01*
X235408Y141732D01*
X237611Y141732D01*
X238713Y142834D01*
X238713Y143935D01*
X237611Y145037D01*
X234306Y145037D01*
X270002Y147408D02*
X272205Y149612D01*
X272205Y143002D01*
X270002Y143002D02*
X274408Y143002D01*
X277486Y144104D02*
X277486Y147408D01*
X277486Y144104D02*
X278588Y143002D01*
X281893Y143002D01*
X281893Y147408D01*
X284970Y149612D02*
X284970Y143002D01*
X284970Y149612D02*
X289377Y149612D01*
X287174Y146307D02*
X284970Y146307D01*
D13*
X273050Y311150D03*
D10*
X244602Y313442D02*
X244602Y306832D01*
X244602Y313442D02*
X247907Y313442D01*
X249008Y312340D01*
X249008Y310137D01*
X247907Y309035D01*
X244602Y309035D01*
X246805Y309035D02*
X249008Y306832D01*
X255391Y306832D02*
X255391Y313442D01*
X252086Y310137D01*
X256493Y310137D01*
X289052Y312340D02*
X290154Y313442D01*
X292357Y313442D01*
X293458Y312340D01*
X293458Y311238D01*
X292357Y310137D01*
X291255Y310137D01*
X292357Y310137D02*
X293458Y309035D01*
X293458Y307934D01*
X292357Y306832D01*
X290154Y306832D01*
X289052Y307934D01*
X296536Y312340D02*
X297638Y313442D01*
X299841Y313442D01*
X300943Y312340D01*
X300943Y311238D01*
X299841Y310137D01*
X298739Y310137D01*
X299841Y310137D02*
X300943Y309035D01*
X300943Y307934D01*
X299841Y306832D01*
X297638Y306832D01*
X296536Y307934D01*
X304020Y307934D02*
X304020Y312340D01*
X305122Y313442D01*
X307325Y313442D01*
X308427Y312340D01*
X308427Y307934D01*
X307325Y306832D01*
X305122Y306832D01*
X304020Y307934D01*
X308427Y312340D01*
D11*
X336550Y281100D02*
X341150Y281100D01*
X336550Y281100D02*
X331950Y281100D01*
X336550Y281100D02*
X338888Y278000D01*
X336296Y280946D02*
X334366Y278000D01*
D10*
X330073Y266192D02*
X323463Y266192D01*
X330073Y266192D02*
X330073Y270598D01*
X323463Y273676D02*
X323463Y278083D01*
X323463Y273676D02*
X330073Y273676D01*
X330073Y278083D01*
X326768Y275879D02*
X326768Y273676D01*
X323463Y281160D02*
X330073Y281160D01*
X330073Y284465D01*
X328971Y285567D01*
X324565Y285567D01*
X323463Y284465D01*
X323463Y281160D01*
X330073Y288644D02*
X330073Y293051D01*
X325667Y293051D02*
X330073Y288644D01*
X325667Y293051D02*
X324565Y293051D01*
X323463Y291949D01*
X323463Y289746D01*
X324565Y288644D01*
X342513Y259842D02*
X343615Y259842D01*
X345818Y262045D01*
X343615Y264248D01*
X342513Y264248D01*
X345818Y262045D02*
X349123Y262045D01*
X349123Y268428D02*
X349123Y270631D01*
X349123Y268428D02*
X348021Y267326D01*
X345818Y267326D01*
X344717Y268428D01*
X344717Y270631D01*
X345818Y271733D01*
X346920Y271733D01*
X346920Y267326D01*
X342513Y274810D02*
X342513Y275912D01*
X349123Y275912D01*
X349123Y274810D02*
X349123Y277014D01*
X342513Y279800D02*
X342513Y280901D01*
X349123Y280901D01*
X349123Y279800D02*
X349123Y282003D01*
X349123Y285891D02*
X349123Y288094D01*
X348021Y289196D01*
X345818Y289196D01*
X344717Y288094D01*
X344717Y285891D01*
X345818Y284789D01*
X348021Y284789D01*
X349123Y285891D01*
X348021Y292273D02*
X344717Y292273D01*
X348021Y292273D02*
X349123Y293375D01*
X348021Y294477D01*
X349123Y295578D01*
X348021Y296680D01*
X344717Y296680D01*
D13*
X254000Y184150D03*
D10*
X226822Y181102D02*
X226822Y187712D01*
X230127Y187712D01*
X231228Y186610D01*
X231228Y184407D01*
X230127Y183305D01*
X226822Y183305D01*
X229025Y183305D02*
X231228Y181102D01*
X234306Y187712D02*
X238713Y187712D01*
X234306Y187712D02*
X234306Y184407D01*
X236509Y185508D01*
X237611Y185508D01*
X238713Y184407D01*
X238713Y182204D01*
X237611Y181102D01*
X235408Y181102D01*
X234306Y182204D01*
X270002Y181102D02*
X274408Y181102D01*
X270002Y181102D02*
X274408Y185508D01*
X274408Y186610D01*
X273307Y187712D01*
X271104Y187712D01*
X270002Y186610D01*
X277486Y181102D02*
X281893Y181102D01*
X281893Y185508D02*
X277486Y181102D01*
X281893Y185508D02*
X281893Y186610D01*
X280791Y187712D01*
X278588Y187712D01*
X277486Y186610D01*
D13*
X254000Y165100D03*
D10*
X226822Y162052D02*
X226822Y168662D01*
X230127Y168662D01*
X231228Y167560D01*
X231228Y165357D01*
X230127Y164255D01*
X226822Y164255D01*
X229025Y164255D02*
X231228Y162052D01*
X234306Y168662D02*
X238713Y168662D01*
X238713Y167560D01*
X234306Y163154D01*
X234306Y162052D01*
X270002Y162052D02*
X274408Y162052D01*
X270002Y162052D02*
X274408Y166458D01*
X274408Y167560D01*
X273307Y168662D01*
X271104Y168662D01*
X270002Y167560D01*
X277486Y162052D02*
X281893Y162052D01*
X281893Y166458D02*
X277486Y162052D01*
X281893Y166458D02*
X281893Y167560D01*
X280791Y168662D01*
X278588Y168662D01*
X277486Y167560D01*
D11*
X260350Y128270D02*
X247650Y128270D01*
X247650Y113030D02*
X260350Y113030D01*
D10*
X248684Y129794D02*
X248684Y136404D01*
X253090Y136404D01*
X250887Y133099D02*
X248684Y133099D01*
X256168Y134200D02*
X258371Y136404D01*
X258371Y129794D01*
X256168Y129794D02*
X260574Y129794D01*
X243338Y109734D02*
X238931Y109734D01*
X238931Y106429D01*
X241134Y107530D01*
X242236Y107530D01*
X243338Y106429D01*
X243338Y104226D01*
X242236Y103124D01*
X240033Y103124D01*
X238931Y104226D01*
X246415Y104226D02*
X246415Y108632D01*
X247517Y109734D01*
X249720Y109734D01*
X250822Y108632D01*
X250822Y104226D01*
X249720Y103124D01*
X247517Y103124D01*
X246415Y104226D01*
X250822Y108632D01*
X253900Y108632D02*
X253900Y104226D01*
X253900Y108632D02*
X255001Y109734D01*
X257204Y109734D01*
X258306Y108632D01*
X258306Y104226D01*
X257204Y103124D01*
X255001Y103124D01*
X253900Y104226D01*
X258306Y108632D01*
X261384Y107530D02*
X261384Y103124D01*
X261384Y107530D02*
X262485Y107530D01*
X263587Y106429D01*
X263587Y103124D01*
X263587Y106429D02*
X264689Y107530D01*
X265790Y106429D01*
X265790Y103124D01*
X268868Y103124D02*
X268868Y107530D01*
X271071Y109734D01*
X273274Y107530D01*
X273274Y103124D01*
X273274Y106429D02*
X268868Y106429D01*
D13*
X57150Y184150D03*
D10*
X37592Y189992D02*
X37592Y196602D01*
X40897Y196602D01*
X41998Y195500D01*
X41998Y193297D01*
X40897Y192195D01*
X37592Y192195D01*
X39795Y192195D02*
X41998Y189992D01*
X45076Y194398D02*
X47279Y196602D01*
X47279Y189992D01*
X45076Y189992D02*
X49483Y189992D01*
X59182Y189992D02*
X63588Y189992D01*
X59182Y189992D02*
X63588Y194398D01*
X63588Y195500D01*
X62487Y196602D01*
X60284Y196602D01*
X59182Y195500D01*
X66666Y189992D02*
X71073Y189992D01*
X71073Y194398D02*
X66666Y189992D01*
X71073Y194398D02*
X71073Y195500D01*
X69971Y196602D01*
X67768Y196602D01*
X66666Y195500D01*
X74150Y196602D02*
X74150Y189992D01*
X74150Y192195D02*
X78557Y196602D01*
X75252Y193297D02*
X78557Y189992D01*
D13*
X57150Y203200D03*
D10*
X37592Y209042D02*
X37592Y215652D01*
X40897Y215652D01*
X41998Y214550D01*
X41998Y212347D01*
X40897Y211245D01*
X37592Y211245D01*
X39795Y211245D02*
X41998Y209042D01*
X45076Y214550D02*
X46178Y215652D01*
X48381Y215652D01*
X49483Y214550D01*
X49483Y213448D01*
X48381Y212347D01*
X47279Y212347D01*
X48381Y212347D02*
X49483Y211245D01*
X49483Y210144D01*
X48381Y209042D01*
X46178Y209042D01*
X45076Y210144D01*
X59182Y213448D02*
X61385Y215652D01*
X61385Y209042D01*
X59182Y209042D02*
X63588Y209042D01*
X66666Y215652D02*
X71073Y215652D01*
X66666Y215652D02*
X66666Y212347D01*
X68869Y213448D01*
X69971Y213448D01*
X71073Y212347D01*
X71073Y210144D01*
X69971Y209042D01*
X67768Y209042D01*
X66666Y210144D01*
X74150Y209042D02*
X74150Y215652D01*
X74150Y211245D02*
X78557Y215652D01*
X75252Y212347D02*
X78557Y209042D01*
D13*
X57150Y165100D03*
D10*
X37592Y170942D02*
X37592Y177552D01*
X40897Y177552D01*
X41998Y176450D01*
X41998Y174247D01*
X40897Y173145D01*
X37592Y173145D01*
X39795Y173145D02*
X41998Y170942D01*
X45076Y176450D02*
X46178Y177552D01*
X48381Y177552D01*
X49483Y176450D01*
X49483Y175348D01*
X48381Y174247D01*
X49483Y173145D01*
X49483Y172044D01*
X48381Y170942D01*
X46178Y170942D01*
X45076Y172044D01*
X45076Y173145D01*
X46178Y174247D01*
X45076Y175348D01*
X45076Y176450D01*
X46178Y174247D02*
X48381Y174247D01*
X59182Y175348D02*
X61385Y177552D01*
X61385Y170942D01*
X59182Y170942D02*
X63588Y170942D01*
X66666Y172044D02*
X66666Y176450D01*
X67768Y177552D01*
X69971Y177552D01*
X71073Y176450D01*
X71073Y172044D01*
X69971Y170942D01*
X67768Y170942D01*
X66666Y172044D01*
X71073Y176450D01*
X74150Y177552D02*
X74150Y170942D01*
X74150Y173145D02*
X78557Y177552D01*
X75252Y174247D02*
X78557Y170942D01*
D11*
X69150Y117000D02*
X69150Y102000D01*
X45150Y102000D01*
X45150Y117000D01*
X69150Y137000D02*
X69150Y148000D01*
X65150Y152000D01*
X49150Y152000D01*
X45150Y148000D01*
X45150Y137000D01*
D12*
X46990Y130810D02*
X67310Y130810D01*
D10*
X37070Y106768D02*
X35968Y105667D01*
X35968Y103464D01*
X37070Y102362D01*
X41476Y102362D01*
X42578Y103464D01*
X42578Y105667D01*
X41476Y106768D01*
X35968Y109846D02*
X35968Y114253D01*
X37070Y114253D01*
X41476Y109846D01*
X42578Y109846D01*
X38662Y128032D02*
X36458Y130235D01*
X43068Y130235D01*
X43068Y128032D02*
X43068Y132438D01*
X41966Y135516D02*
X37560Y135516D01*
X36458Y136618D01*
X36458Y138821D01*
X37560Y139923D01*
X41966Y139923D01*
X43068Y138821D01*
X43068Y136618D01*
X41966Y135516D01*
X37560Y139923D01*
X38662Y143000D02*
X41966Y143000D01*
X43068Y144102D01*
X43068Y147407D01*
X38662Y147407D01*
X36458Y150484D02*
X43068Y150484D01*
X36458Y150484D02*
X36458Y154891D01*
X39763Y152688D02*
X39763Y150484D01*
D13*
X57150Y311150D03*
D10*
X36322Y316992D02*
X36322Y323602D01*
X39627Y323602D01*
X40728Y322500D01*
X40728Y320297D01*
X39627Y319195D01*
X36322Y319195D01*
X38525Y319195D02*
X40728Y316992D01*
X43806Y318094D02*
X44908Y316992D01*
X47111Y316992D01*
X48213Y318094D01*
X48213Y322500D01*
X47111Y323602D01*
X44908Y323602D01*
X43806Y322500D01*
X43806Y321398D01*
X44908Y320297D01*
X48213Y320297D01*
X61722Y316992D02*
X66128Y316992D01*
X61722Y316992D02*
X66128Y321398D01*
X66128Y322500D01*
X65027Y323602D01*
X62824Y323602D01*
X61722Y322500D01*
X69206Y316992D02*
X73613Y316992D01*
X73613Y321398D02*
X69206Y316992D01*
X73613Y321398D02*
X73613Y322500D01*
X72511Y323602D01*
X70308Y323602D01*
X69206Y322500D01*
X76690Y323602D02*
X76690Y316992D01*
X76690Y319195D02*
X81097Y323602D01*
X77792Y320297D02*
X81097Y316992D01*
D13*
X57150Y330200D03*
D10*
X36322Y336042D02*
X36322Y342652D01*
X39627Y342652D01*
X40728Y341550D01*
X40728Y339347D01*
X39627Y338245D01*
X36322Y338245D01*
X38525Y338245D02*
X40728Y336042D01*
X43806Y340448D02*
X46009Y342652D01*
X46009Y336042D01*
X43806Y336042D02*
X48213Y336042D01*
X51290Y337144D02*
X51290Y341550D01*
X52392Y342652D01*
X54595Y342652D01*
X55697Y341550D01*
X55697Y337144D01*
X54595Y336042D01*
X52392Y336042D01*
X51290Y337144D01*
X55697Y341550D01*
X62992Y340448D02*
X65195Y342652D01*
X65195Y336042D01*
X62992Y336042D02*
X67398Y336042D01*
X70476Y342652D02*
X74883Y342652D01*
X70476Y342652D02*
X70476Y339347D01*
X72679Y340448D01*
X73781Y340448D01*
X74883Y339347D01*
X74883Y337144D01*
X73781Y336042D01*
X71578Y336042D01*
X70476Y337144D01*
X77960Y336042D02*
X77960Y342652D01*
X77960Y338245D02*
X82367Y342652D01*
X79062Y339347D02*
X82367Y336042D01*
D13*
X57150Y292100D03*
D10*
X36322Y297942D02*
X36322Y304552D01*
X39627Y304552D01*
X40728Y303450D01*
X40728Y301247D01*
X39627Y300145D01*
X36322Y300145D01*
X38525Y300145D02*
X40728Y297942D01*
X43806Y302348D02*
X46009Y304552D01*
X46009Y297942D01*
X43806Y297942D02*
X48213Y297942D01*
X51290Y297942D02*
X55697Y297942D01*
X55697Y302348D02*
X51290Y297942D01*
X55697Y302348D02*
X55697Y303450D01*
X54595Y304552D01*
X52392Y304552D01*
X51290Y303450D01*
X60860Y301840D02*
X63063Y304044D01*
X63063Y297434D01*
X60860Y297434D02*
X65266Y297434D01*
X68344Y298536D02*
X68344Y302942D01*
X69445Y304044D01*
X71649Y304044D01*
X72750Y302942D01*
X72750Y298536D01*
X71649Y297434D01*
X69445Y297434D01*
X68344Y298536D01*
X72750Y302942D01*
X75828Y304044D02*
X75828Y297434D01*
X75828Y299637D02*
X80234Y304044D01*
X76929Y300739D02*
X80234Y297434D01*
D11*
X69150Y244000D02*
X69150Y229000D01*
X45150Y229000D01*
X45150Y244000D01*
X69150Y264000D02*
X69150Y275000D01*
X65150Y279000D01*
X49150Y279000D01*
X45150Y275000D01*
X45150Y264000D01*
D12*
X46990Y257810D02*
X67310Y257810D01*
D10*
X37070Y233768D02*
X35968Y232667D01*
X35968Y230464D01*
X37070Y229362D01*
X41476Y229362D01*
X42578Y230464D01*
X42578Y232667D01*
X41476Y233768D01*
X37070Y236846D02*
X35968Y237948D01*
X35968Y240151D01*
X37070Y241253D01*
X38172Y241253D01*
X39273Y240151D01*
X40375Y241253D01*
X41476Y241253D01*
X42578Y240151D01*
X42578Y237948D01*
X41476Y236846D01*
X40375Y236846D01*
X39273Y237948D01*
X38172Y236846D01*
X37070Y236846D01*
X39273Y237948D02*
X39273Y240151D01*
X38662Y258842D02*
X36458Y261045D01*
X43068Y261045D01*
X43068Y258842D02*
X43068Y263248D01*
X41966Y266326D02*
X37560Y266326D01*
X36458Y267428D01*
X36458Y269631D01*
X37560Y270733D01*
X41966Y270733D01*
X43068Y269631D01*
X43068Y267428D01*
X41966Y266326D01*
X37560Y270733D01*
X38662Y273810D02*
X41966Y273810D01*
X43068Y274912D01*
X43068Y278217D01*
X38662Y278217D01*
X36458Y281294D02*
X43068Y281294D01*
X36458Y281294D02*
X36458Y285701D01*
X39763Y283498D02*
X39763Y281294D01*
D14*
X88900Y107950D03*
D10*
X76962Y92462D02*
X76962Y85852D01*
X76962Y92462D02*
X80267Y92462D01*
X81368Y91360D01*
X81368Y89157D01*
X80267Y88055D01*
X76962Y88055D01*
X79165Y88055D02*
X81368Y85852D01*
X84446Y90258D02*
X86649Y92462D01*
X86649Y85852D01*
X84446Y85852D02*
X88853Y85852D01*
X91930Y91360D02*
X93032Y92462D01*
X95235Y92462D01*
X96337Y91360D01*
X96337Y90258D01*
X95235Y89157D01*
X94134Y89157D01*
X95235Y89157D02*
X96337Y88055D01*
X96337Y86954D01*
X95235Y85852D01*
X93032Y85852D01*
X91930Y86954D01*
X96940Y98960D02*
X94736Y101163D01*
X101346Y101163D01*
X101346Y98960D02*
X101346Y103366D01*
X100244Y106444D02*
X95838Y106444D01*
X94736Y107545D01*
X94736Y109749D01*
X95838Y110850D01*
X100244Y110850D01*
X101346Y109749D01*
X101346Y107545D01*
X100244Y106444D01*
X95838Y110850D01*
X94736Y113928D02*
X101346Y113928D01*
X99143Y113928D02*
X94736Y118334D01*
X98041Y115029D02*
X101346Y118334D01*
D14*
X107950Y107950D03*
D10*
X103632Y92462D02*
X103632Y85852D01*
X103632Y92462D02*
X106937Y92462D01*
X108038Y91360D01*
X108038Y89157D01*
X106937Y88055D01*
X103632Y88055D01*
X105835Y88055D02*
X108038Y85852D01*
X111116Y90258D02*
X113319Y92462D01*
X113319Y85852D01*
X111116Y85852D02*
X115523Y85852D01*
X121905Y85852D02*
X121905Y92462D01*
X118600Y89157D01*
X123007Y89157D01*
X115990Y98960D02*
X113786Y101163D01*
X120396Y101163D01*
X120396Y98960D02*
X120396Y103366D01*
X119294Y106444D02*
X114888Y106444D01*
X113786Y107545D01*
X113786Y109749D01*
X114888Y110850D01*
X119294Y110850D01*
X120396Y109749D01*
X120396Y107545D01*
X119294Y106444D01*
X114888Y110850D01*
X113786Y113928D02*
X120396Y113928D01*
X118193Y113928D02*
X113786Y118334D01*
X117091Y115029D02*
X120396Y118334D01*
D13*
X184150Y261620D03*
D10*
X176022Y267462D02*
X176022Y274072D01*
X179327Y274072D01*
X180428Y272970D01*
X180428Y270767D01*
X179327Y269665D01*
X176022Y269665D01*
X178225Y269665D02*
X180428Y267462D01*
X183506Y271868D02*
X185709Y274072D01*
X185709Y267462D01*
X183506Y267462D02*
X187913Y267462D01*
X190990Y274072D02*
X195397Y274072D01*
X190990Y274072D02*
X190990Y270767D01*
X193194Y271868D01*
X194295Y271868D01*
X195397Y270767D01*
X195397Y268564D01*
X194295Y267462D01*
X192092Y267462D01*
X190990Y268564D01*
X178225Y255022D02*
X176022Y252818D01*
X178225Y255022D02*
X178225Y248412D01*
X176022Y248412D02*
X180428Y248412D01*
X183506Y249514D02*
X183506Y253920D01*
X184608Y255022D01*
X186811Y255022D01*
X187913Y253920D01*
X187913Y249514D01*
X186811Y248412D01*
X184608Y248412D01*
X183506Y249514D01*
X187913Y253920D01*
X190990Y255022D02*
X190990Y248412D01*
X190990Y250615D02*
X194295Y248412D01*
X190990Y250615D02*
X194295Y252818D01*
D14*
X228600Y254000D03*
D10*
X217932Y270002D02*
X217932Y276612D01*
X221237Y276612D01*
X222338Y275510D01*
X222338Y273307D01*
X221237Y272205D01*
X217932Y272205D01*
X220135Y272205D02*
X222338Y270002D01*
X225416Y274408D02*
X227619Y276612D01*
X227619Y270002D01*
X225416Y270002D02*
X229823Y270002D01*
X235104Y275510D02*
X237307Y276612D01*
X235104Y275510D02*
X232900Y273307D01*
X232900Y271104D01*
X234002Y270002D01*
X236205Y270002D01*
X237307Y271104D01*
X237307Y272205D01*
X236205Y273307D01*
X232900Y273307D01*
X214878Y248075D02*
X217082Y245872D01*
X214878Y248075D02*
X221488Y248075D01*
X221488Y245872D02*
X221488Y250278D01*
X220386Y253356D02*
X215980Y253356D01*
X214878Y254458D01*
X214878Y256661D01*
X215980Y257763D01*
X220386Y257763D01*
X221488Y256661D01*
X221488Y254458D01*
X220386Y253356D01*
X215980Y257763D01*
X214878Y260840D02*
X221488Y260840D01*
X219285Y260840D02*
X221488Y264145D01*
X219285Y260840D02*
X217082Y264145D01*
D11*
X86800Y42900D02*
X86702Y42898D01*
X86604Y42892D01*
X86506Y42883D01*
X86409Y42869D01*
X86312Y42852D01*
X86216Y42831D01*
X86121Y42806D01*
X86027Y42778D01*
X85935Y42745D01*
X85843Y42710D01*
X85753Y42670D01*
X85665Y42628D01*
X85578Y42581D01*
X85494Y42532D01*
X85411Y42479D01*
X85331Y42423D01*
X85252Y42363D01*
X85176Y42301D01*
X85103Y42236D01*
X85032Y42168D01*
X84964Y42097D01*
X84899Y42024D01*
X84837Y41948D01*
X84777Y41869D01*
X84721Y41789D01*
X84668Y41706D01*
X84619Y41622D01*
X84572Y41535D01*
X84530Y41447D01*
X84490Y41357D01*
X84455Y41265D01*
X84422Y41173D01*
X84394Y41079D01*
X84369Y40984D01*
X84348Y40888D01*
X84331Y40791D01*
X84317Y40694D01*
X84308Y40596D01*
X84302Y40498D01*
X84300Y40400D01*
X86800Y42900D02*
X141800Y42900D01*
X141898Y42898D01*
X141996Y42892D01*
X142094Y42883D01*
X142191Y42869D01*
X142288Y42852D01*
X142384Y42831D01*
X142479Y42806D01*
X142573Y42778D01*
X142665Y42745D01*
X142757Y42710D01*
X142847Y42670D01*
X142935Y42628D01*
X143022Y42581D01*
X143106Y42532D01*
X143189Y42479D01*
X143269Y42423D01*
X143348Y42363D01*
X143424Y42301D01*
X143497Y42236D01*
X143568Y42168D01*
X143636Y42097D01*
X143701Y42024D01*
X143763Y41948D01*
X143823Y41869D01*
X143879Y41789D01*
X143932Y41706D01*
X143981Y41622D01*
X144028Y41535D01*
X144070Y41447D01*
X144110Y41357D01*
X144145Y41265D01*
X144178Y41173D01*
X144206Y41079D01*
X144231Y40984D01*
X144252Y40888D01*
X144269Y40791D01*
X144283Y40694D01*
X144292Y40596D01*
X144298Y40498D01*
X144300Y40400D01*
X144300Y10400D02*
X144298Y10302D01*
X144292Y10204D01*
X144283Y10106D01*
X144269Y10009D01*
X144252Y9912D01*
X144231Y9816D01*
X144206Y9721D01*
X144178Y9627D01*
X144145Y9535D01*
X144110Y9443D01*
X144070Y9353D01*
X144028Y9265D01*
X143981Y9178D01*
X143932Y9094D01*
X143879Y9011D01*
X143823Y8931D01*
X143763Y8852D01*
X143701Y8776D01*
X143636Y8703D01*
X143568Y8632D01*
X143497Y8564D01*
X143424Y8499D01*
X143348Y8437D01*
X143269Y8377D01*
X143189Y8321D01*
X143106Y8268D01*
X143022Y8219D01*
X142935Y8172D01*
X142847Y8130D01*
X142757Y8090D01*
X142665Y8055D01*
X142573Y8022D01*
X142479Y7994D01*
X142384Y7969D01*
X142288Y7948D01*
X142191Y7931D01*
X142094Y7917D01*
X141996Y7908D01*
X141898Y7902D01*
X141800Y7900D01*
X86800Y7900D01*
X86702Y7902D01*
X86604Y7908D01*
X86506Y7917D01*
X86409Y7931D01*
X86312Y7948D01*
X86216Y7969D01*
X86121Y7994D01*
X86027Y8022D01*
X85935Y8055D01*
X85843Y8090D01*
X85753Y8130D01*
X85665Y8172D01*
X85578Y8219D01*
X85494Y8268D01*
X85411Y8321D01*
X85331Y8377D01*
X85252Y8437D01*
X85176Y8499D01*
X85103Y8564D01*
X85032Y8632D01*
X84964Y8703D01*
X84899Y8776D01*
X84837Y8852D01*
X84777Y8931D01*
X84721Y9011D01*
X84668Y9094D01*
X84619Y9178D01*
X84572Y9265D01*
X84530Y9353D01*
X84490Y9443D01*
X84455Y9535D01*
X84422Y9627D01*
X84394Y9721D01*
X84369Y9816D01*
X84348Y9912D01*
X84331Y10009D01*
X84317Y10106D01*
X84308Y10204D01*
X84302Y10302D01*
X84300Y10400D01*
X84300Y14400D01*
X84300Y36400D02*
X84300Y40400D01*
X144300Y40400D02*
X144300Y36400D01*
X144300Y14400D02*
X144300Y10400D01*
X129300Y32900D02*
X99300Y32900D01*
X99300Y17900D02*
X129300Y17900D01*
X99300Y17900D02*
X99300Y32900D01*
X129300Y32900D02*
X129300Y17900D01*
D10*
X111984Y50720D02*
X110883Y51822D01*
X108679Y51822D01*
X107578Y50720D01*
X107578Y49618D01*
X108679Y48517D01*
X110883Y48517D01*
X111984Y47415D01*
X111984Y46314D01*
X110883Y45212D01*
X108679Y45212D01*
X107578Y46314D01*
X115062Y49618D02*
X117265Y51822D01*
X117265Y45212D01*
X115062Y45212D02*
X119468Y45212D01*
D11*
X211300Y40400D02*
X211302Y40498D01*
X211308Y40596D01*
X211317Y40694D01*
X211331Y40791D01*
X211348Y40888D01*
X211369Y40984D01*
X211394Y41079D01*
X211422Y41173D01*
X211455Y41265D01*
X211490Y41357D01*
X211530Y41447D01*
X211572Y41535D01*
X211619Y41622D01*
X211668Y41706D01*
X211721Y41789D01*
X211777Y41869D01*
X211837Y41948D01*
X211899Y42024D01*
X211964Y42097D01*
X212032Y42168D01*
X212103Y42236D01*
X212176Y42301D01*
X212252Y42363D01*
X212331Y42423D01*
X212411Y42479D01*
X212494Y42532D01*
X212578Y42581D01*
X212665Y42628D01*
X212753Y42670D01*
X212843Y42710D01*
X212935Y42745D01*
X213027Y42778D01*
X213121Y42806D01*
X213216Y42831D01*
X213312Y42852D01*
X213409Y42869D01*
X213506Y42883D01*
X213604Y42892D01*
X213702Y42898D01*
X213800Y42900D01*
X268800Y42900D01*
X268898Y42898D01*
X268996Y42892D01*
X269094Y42883D01*
X269191Y42869D01*
X269288Y42852D01*
X269384Y42831D01*
X269479Y42806D01*
X269573Y42778D01*
X269665Y42745D01*
X269757Y42710D01*
X269847Y42670D01*
X269935Y42628D01*
X270022Y42581D01*
X270106Y42532D01*
X270189Y42479D01*
X270269Y42423D01*
X270348Y42363D01*
X270424Y42301D01*
X270497Y42236D01*
X270568Y42168D01*
X270636Y42097D01*
X270701Y42024D01*
X270763Y41948D01*
X270823Y41869D01*
X270879Y41789D01*
X270932Y41706D01*
X270981Y41622D01*
X271028Y41535D01*
X271070Y41447D01*
X271110Y41357D01*
X271145Y41265D01*
X271178Y41173D01*
X271206Y41079D01*
X271231Y40984D01*
X271252Y40888D01*
X271269Y40791D01*
X271283Y40694D01*
X271292Y40596D01*
X271298Y40498D01*
X271300Y40400D01*
X271300Y10400D02*
X271298Y10302D01*
X271292Y10204D01*
X271283Y10106D01*
X271269Y10009D01*
X271252Y9912D01*
X271231Y9816D01*
X271206Y9721D01*
X271178Y9627D01*
X271145Y9535D01*
X271110Y9443D01*
X271070Y9353D01*
X271028Y9265D01*
X270981Y9178D01*
X270932Y9094D01*
X270879Y9011D01*
X270823Y8931D01*
X270763Y8852D01*
X270701Y8776D01*
X270636Y8703D01*
X270568Y8632D01*
X270497Y8564D01*
X270424Y8499D01*
X270348Y8437D01*
X270269Y8377D01*
X270189Y8321D01*
X270106Y8268D01*
X270022Y8219D01*
X269935Y8172D01*
X269847Y8130D01*
X269757Y8090D01*
X269665Y8055D01*
X269573Y8022D01*
X269479Y7994D01*
X269384Y7969D01*
X269288Y7948D01*
X269191Y7931D01*
X269094Y7917D01*
X268996Y7908D01*
X268898Y7902D01*
X268800Y7900D01*
X213800Y7900D01*
X213702Y7902D01*
X213604Y7908D01*
X213506Y7917D01*
X213409Y7931D01*
X213312Y7948D01*
X213216Y7969D01*
X213121Y7994D01*
X213027Y8022D01*
X212935Y8055D01*
X212843Y8090D01*
X212753Y8130D01*
X212665Y8172D01*
X212578Y8219D01*
X212494Y8268D01*
X212411Y8321D01*
X212331Y8377D01*
X212252Y8437D01*
X212176Y8499D01*
X212103Y8564D01*
X212032Y8632D01*
X211964Y8703D01*
X211899Y8776D01*
X211837Y8852D01*
X211777Y8931D01*
X211721Y9011D01*
X211668Y9094D01*
X211619Y9178D01*
X211572Y9265D01*
X211530Y9353D01*
X211490Y9443D01*
X211455Y9535D01*
X211422Y9627D01*
X211394Y9721D01*
X211369Y9816D01*
X211348Y9912D01*
X211331Y10009D01*
X211317Y10106D01*
X211308Y10204D01*
X211302Y10302D01*
X211300Y10400D01*
X211300Y14400D01*
X211300Y36400D02*
X211300Y40400D01*
X271300Y40400D02*
X271300Y36400D01*
X271300Y14400D02*
X271300Y10400D01*
X256300Y32900D02*
X226300Y32900D01*
X226300Y17900D02*
X256300Y17900D01*
X226300Y17900D02*
X226300Y32900D01*
X256300Y32900D02*
X256300Y17900D01*
D10*
X238984Y50720D02*
X237883Y51822D01*
X235679Y51822D01*
X234578Y50720D01*
X234578Y49618D01*
X235679Y48517D01*
X237883Y48517D01*
X238984Y47415D01*
X238984Y46314D01*
X237883Y45212D01*
X235679Y45212D01*
X234578Y46314D01*
X242062Y45212D02*
X246468Y45212D01*
X242062Y45212D02*
X246468Y49618D01*
X246468Y50720D01*
X245367Y51822D01*
X243164Y51822D01*
X242062Y50720D01*
D11*
X222250Y336550D02*
X209550Y336550D01*
X222250Y336550D02*
X228600Y330200D01*
X228600Y317500D02*
X222250Y311150D01*
X184150Y336550D02*
X177800Y330200D01*
X184150Y336550D02*
X196850Y336550D01*
X203200Y330200D01*
X203200Y317500D02*
X196850Y311150D01*
X184150Y311150D01*
X177800Y317500D01*
X203200Y330200D02*
X209550Y336550D01*
X203200Y317500D02*
X209550Y311150D01*
X222250Y311150D01*
X146050Y336550D02*
X133350Y336550D01*
X146050Y336550D02*
X152400Y330200D01*
X152400Y317500D02*
X146050Y311150D01*
X152400Y330200D02*
X158750Y336550D01*
X171450Y336550D01*
X177800Y330200D01*
X177800Y317500D02*
X171450Y311150D01*
X158750Y311150D01*
X152400Y317500D01*
X127000Y317500D02*
X127000Y330200D01*
X133350Y336550D01*
X127000Y317500D02*
X133350Y311150D01*
X146050Y311150D01*
X228600Y317500D02*
X228600Y330200D01*
M02*
