G04 EAGLE Gerber RS-274X export*
G75*
%MOMM*%
%FSLAX34Y34*%
%LPD*%
%IN*%
%IPPOS*%
%AMOC8*
5,1,8,0,0,1.08239X$1,22.5*%
G01*
%ADD10C,0.254000*%


D10*
X0Y0D02*
X355600Y0D01*
X355600Y349250D01*
X0Y349250D01*
X0Y0D01*
X49530Y33746D02*
X49452Y32660D01*
X49297Y31582D01*
X49066Y30519D01*
X48759Y29474D01*
X48379Y28454D01*
X47927Y27464D01*
X47405Y26509D01*
X46816Y25593D01*
X46164Y24721D01*
X45451Y23899D01*
X44681Y23129D01*
X43859Y22416D01*
X42987Y21764D01*
X42071Y21175D01*
X41116Y20653D01*
X40126Y20201D01*
X39106Y19821D01*
X38061Y19514D01*
X36998Y19283D01*
X35920Y19128D01*
X34834Y19050D01*
X33746Y19050D01*
X32660Y19128D01*
X31582Y19283D01*
X30519Y19514D01*
X29474Y19821D01*
X28454Y20201D01*
X27464Y20653D01*
X26509Y21175D01*
X25593Y21764D01*
X24721Y22416D01*
X23899Y23129D01*
X23129Y23899D01*
X22416Y24721D01*
X21764Y25593D01*
X21175Y26509D01*
X20653Y27464D01*
X20201Y28454D01*
X19821Y29474D01*
X19514Y30519D01*
X19283Y31582D01*
X19128Y32660D01*
X19050Y33746D01*
X19050Y34834D01*
X19128Y35920D01*
X19283Y36998D01*
X19514Y38061D01*
X19821Y39106D01*
X20201Y40126D01*
X20653Y41116D01*
X21175Y42071D01*
X21764Y42987D01*
X22416Y43859D01*
X23129Y44681D01*
X23899Y45451D01*
X24721Y46164D01*
X25593Y46816D01*
X26509Y47405D01*
X27464Y47927D01*
X28454Y48379D01*
X29474Y48759D01*
X30519Y49066D01*
X31582Y49297D01*
X32660Y49452D01*
X33746Y49530D01*
X34834Y49530D01*
X35920Y49452D01*
X36998Y49297D01*
X38061Y49066D01*
X39106Y48759D01*
X40126Y48379D01*
X41116Y47927D01*
X42071Y47405D01*
X42987Y46816D01*
X43859Y46164D01*
X44681Y45451D01*
X45451Y44681D01*
X46164Y43859D01*
X46816Y42987D01*
X47405Y42071D01*
X47927Y41116D01*
X48379Y40126D01*
X48759Y39106D01*
X49066Y38061D01*
X49297Y36998D01*
X49452Y35920D01*
X49530Y34834D01*
X49530Y33746D01*
X335280Y33746D02*
X335202Y32660D01*
X335047Y31582D01*
X334816Y30519D01*
X334509Y29474D01*
X334129Y28454D01*
X333677Y27464D01*
X333155Y26509D01*
X332566Y25593D01*
X331914Y24721D01*
X331201Y23899D01*
X330431Y23129D01*
X329609Y22416D01*
X328737Y21764D01*
X327821Y21175D01*
X326866Y20653D01*
X325876Y20201D01*
X324856Y19821D01*
X323811Y19514D01*
X322748Y19283D01*
X321670Y19128D01*
X320584Y19050D01*
X319496Y19050D01*
X318410Y19128D01*
X317332Y19283D01*
X316269Y19514D01*
X315224Y19821D01*
X314204Y20201D01*
X313214Y20653D01*
X312259Y21175D01*
X311343Y21764D01*
X310471Y22416D01*
X309649Y23129D01*
X308879Y23899D01*
X308166Y24721D01*
X307514Y25593D01*
X306925Y26509D01*
X306403Y27464D01*
X305951Y28454D01*
X305571Y29474D01*
X305264Y30519D01*
X305033Y31582D01*
X304878Y32660D01*
X304800Y33746D01*
X304800Y34834D01*
X304878Y35920D01*
X305033Y36998D01*
X305264Y38061D01*
X305571Y39106D01*
X305951Y40126D01*
X306403Y41116D01*
X306925Y42071D01*
X307514Y42987D01*
X308166Y43859D01*
X308879Y44681D01*
X309649Y45451D01*
X310471Y46164D01*
X311343Y46816D01*
X312259Y47405D01*
X313214Y47927D01*
X314204Y48379D01*
X315224Y48759D01*
X316269Y49066D01*
X317332Y49297D01*
X318410Y49452D01*
X319496Y49530D01*
X320584Y49530D01*
X321670Y49452D01*
X322748Y49297D01*
X323811Y49066D01*
X324856Y48759D01*
X325876Y48379D01*
X326866Y47927D01*
X327821Y47405D01*
X328737Y46816D01*
X329609Y46164D01*
X330431Y45451D01*
X331201Y44681D01*
X331914Y43859D01*
X332566Y42987D01*
X333155Y42071D01*
X333677Y41116D01*
X334129Y40126D01*
X334509Y39106D01*
X334816Y38061D01*
X335047Y36998D01*
X335202Y35920D01*
X335280Y34834D01*
X335280Y33746D01*
M02*
